<svg width="387" height="308" viewBox="0 0 387 308" fill="none" xmlns="http://www.w3.org/2000/svg">
<path d="M386.174 1.0773H115.841V307.143H386.174V1.0773Z" stroke="black"/>
<path d="M302.842 60.3816C325.737 60.3816 344.297 51.7872 344.297 41.1855C344.297 30.5837 325.737 21.9893 302.842 21.9893C279.947 21.9893 261.387 30.5837 261.387 41.1855C261.387 51.7872 279.947 60.3816 302.842 60.3816Z" stroke="black"/>
<path d="M283.732 171.078C312.634 171.078 336.064 157.9 336.064 141.644C336.064 125.388 312.634 112.21 283.732 112.21C254.83 112.21 231.4 125.388 231.4 141.644C231.4 157.9 254.83 171.078 283.732 171.078Z" stroke="black"/>
<path d="M321.07 286.892C345.589 286.892 365.464 277.438 365.464 265.777C365.464 254.115 345.589 244.662 321.07 244.662C296.552 244.662 276.676 254.115 276.676 265.777C276.676 277.438 296.552 286.892 321.07 286.892Z" stroke="black"/>
<path d="M189.945 285.432C214.463 285.432 234.339 275.979 234.339 264.317C234.339 252.656 214.463 243.202 189.945 243.202C165.427 243.202 145.551 252.656 145.551 264.317C145.551 275.979 165.427 285.432 189.945 285.432Z" stroke="black"/>
<path d="M289.264 43.0254V35.5815H290.837V41.7278H294.029V43.0254H289.264ZM297.564 43.1345C297 43.1345 296.511 43.0145 296.1 42.7746C295.69 42.5323 295.374 42.1955 295.151 41.7642C294.928 41.3304 294.817 40.8276 294.817 40.2558C294.817 39.6791 294.928 39.1751 295.151 38.7437C295.374 38.31 295.69 37.9732 296.1 37.7333C296.511 37.491 297 37.3698 297.564 37.3698C298.129 37.3698 298.616 37.491 299.025 37.7333C299.437 37.9732 299.755 38.31 299.978 38.7437C300.201 39.1751 300.312 39.6791 300.312 40.2558C300.312 40.8276 300.201 41.3304 299.978 41.7642C299.755 42.1955 299.437 42.5323 299.025 42.7746C298.616 43.0145 298.129 43.1345 297.564 43.1345ZM297.572 41.935C297.828 41.935 298.043 41.8623 298.215 41.7169C298.387 41.5691 298.517 41.368 298.604 41.1136C298.694 40.8591 298.738 40.5696 298.738 40.2449C298.738 39.9202 298.694 39.6306 298.604 39.3762C298.517 39.1217 298.387 38.9206 298.215 38.7728C298.043 38.625 297.828 38.5511 297.572 38.5511C297.312 38.5511 297.094 38.625 296.917 38.7728C296.743 38.9206 296.611 39.1217 296.521 39.3762C296.434 39.6306 296.39 39.9202 296.39 40.2449C296.39 40.5696 296.434 40.8591 296.521 41.1136C296.611 41.368 296.743 41.5691 296.917 41.7169C297.094 41.8623 297.312 41.935 297.572 41.935ZM303.834 45.2353C303.333 45.2353 302.903 45.1663 302.544 45.0281C302.188 44.8924 301.904 44.7071 301.693 44.472C301.483 44.237 301.346 43.9729 301.283 43.6797L302.715 43.487C302.758 43.5985 302.827 43.7027 302.922 43.7996C303.016 43.8965 303.141 43.9741 303.296 44.0322C303.454 44.0928 303.645 44.1231 303.871 44.1231C304.207 44.1231 304.485 44.0407 304.703 43.8759C304.923 43.7136 305.034 43.441 305.034 43.0581V42.0368H304.968C304.9 42.1919 304.799 42.3385 304.663 42.4766C304.527 42.6147 304.353 42.7274 304.14 42.8146C303.926 42.9018 303.672 42.9455 303.376 42.9455C302.957 42.9455 302.575 42.8485 302.231 42.6547C301.89 42.4584 301.617 42.1591 301.413 41.7569C301.212 41.3522 301.112 40.841 301.112 40.2231C301.112 39.5906 301.215 39.0624 301.421 38.6383C301.627 38.2143 301.901 37.8969 302.242 37.686C302.586 37.4752 302.963 37.3698 303.373 37.3698C303.685 37.3698 303.947 37.4231 304.158 37.5297C304.369 37.6339 304.538 37.7648 304.667 37.9223C304.797 38.0774 304.898 38.23 304.968 38.3803H305.026V37.4425H306.564V43.0799C306.564 43.5549 306.448 43.9523 306.215 44.2721C305.982 44.592 305.66 44.8319 305.248 44.9918C304.839 45.1541 304.367 45.2353 303.834 45.2353ZM303.867 41.7824C304.117 41.7824 304.327 41.7206 304.499 41.597C304.674 41.471 304.807 41.2917 304.899 41.059C304.994 40.824 305.041 40.5429 305.041 40.2158C305.041 39.8887 304.995 39.6052 304.903 39.3653C304.811 39.123 304.677 38.9352 304.503 38.8019C304.329 38.6686 304.117 38.602 303.867 38.602C303.612 38.602 303.398 38.671 303.224 38.8092C303.049 38.9449 302.917 39.1339 302.827 39.3762C302.738 39.6185 302.693 39.8984 302.693 40.2158C302.693 40.5381 302.738 40.8167 302.827 41.0518C302.919 41.2844 303.052 41.4649 303.224 41.5933C303.398 41.7194 303.612 41.7824 303.867 41.7824ZM307.796 43.0254V37.4425H309.344V43.0254H307.796ZM308.574 36.7228C308.344 36.7228 308.146 36.6465 307.981 36.4939C307.819 36.3388 307.738 36.1534 307.738 35.9377C307.738 35.7245 307.819 35.5416 307.981 35.3889C308.146 35.2338 308.344 35.1563 308.574 35.1563C308.804 35.1563 309 35.2338 309.163 35.3889C309.327 35.5416 309.41 35.7245 309.41 35.9377C309.41 36.1534 309.327 36.3388 309.163 36.4939C309 36.6465 308.804 36.7228 308.574 36.7228ZM312.133 39.7978V43.0254H310.585V37.4425H312.06V38.4275H312.126C312.249 38.1028 312.457 37.846 312.747 37.657C313.038 37.4655 313.391 37.3698 313.805 37.3698C314.193 37.3698 314.531 37.4546 314.819 37.6243C315.108 37.7939 315.332 38.0362 315.492 38.3512C315.652 38.6638 315.732 39.0369 315.732 39.4707V43.0254H314.183V39.7469C314.186 39.4053 314.098 39.1387 313.921 38.9473C313.745 38.7534 313.501 38.6565 313.191 38.6565C312.982 38.6565 312.798 38.7013 312.638 38.791C312.481 38.8806 312.357 39.0115 312.268 39.1835C312.18 39.3532 312.136 39.5579 312.133 39.7978Z" fill="#333333"/>
<path d="M249.898 148.717V147.467L254.898 145.265V146.703L251.475 148.077L251.521 148.003V148.18L251.475 148.106L254.898 149.48V150.918L249.898 148.717ZM256.695 148.717V147.467L261.695 145.265V146.703L258.272 148.077L258.318 148.003V148.18L258.272 148.106L261.695 149.48V150.918L256.695 148.717ZM264.753 151.103C264.405 151.103 264.095 151.043 263.822 150.922C263.55 150.799 263.335 150.618 263.176 150.379C263.02 150.137 262.942 149.836 262.942 149.477C262.942 149.174 262.997 148.919 263.109 148.713C263.22 148.507 263.371 148.341 263.563 148.216C263.755 148.09 263.973 147.996 264.217 147.932C264.463 147.868 264.721 147.823 264.991 147.797C265.308 147.764 265.564 147.733 265.758 147.705C265.952 147.674 266.093 147.629 266.18 147.57C266.268 147.51 266.312 147.423 266.312 147.307V147.286C266.312 147.061 266.241 146.887 266.099 146.763C265.959 146.64 265.76 146.579 265.502 146.579C265.23 146.579 265.013 146.639 264.852 146.76C264.691 146.878 264.585 147.027 264.533 147.207L263.134 147.094C263.205 146.762 263.344 146.476 263.553 146.234C263.761 145.991 264.03 145.804 264.359 145.673C264.69 145.541 265.074 145.474 265.509 145.474C265.812 145.474 266.102 145.51 266.379 145.581C266.659 145.652 266.906 145.762 267.121 145.911C267.339 146.06 267.511 146.252 267.636 146.487C267.762 146.719 267.825 146.997 267.825 147.321V151H266.39V150.244H266.347C266.26 150.414 266.143 150.564 265.996 150.695C265.849 150.822 265.673 150.923 265.467 150.996C265.261 151.067 265.023 151.103 264.753 151.103ZM265.186 150.059C265.409 150.059 265.605 150.015 265.776 149.928C265.946 149.838 266.08 149.717 266.177 149.565C266.274 149.414 266.322 149.242 266.322 149.05V148.472C266.275 148.502 266.21 148.531 266.127 148.557C266.047 148.58 265.955 148.603 265.854 148.624C265.752 148.643 265.65 148.661 265.548 148.678C265.446 148.692 265.354 148.705 265.271 148.717C265.094 148.743 264.939 148.784 264.806 148.841C264.674 148.898 264.571 148.975 264.497 149.072C264.424 149.166 264.387 149.285 264.387 149.427C264.387 149.633 264.462 149.79 264.611 149.899C264.762 150.006 264.954 150.059 265.186 150.059ZM269.027 151V143.727H270.539V146.462H270.586C270.652 146.315 270.748 146.166 270.873 146.014C271.001 145.86 271.167 145.732 271.37 145.631C271.576 145.527 271.832 145.474 272.137 145.474C272.535 145.474 272.902 145.579 273.238 145.787C273.574 145.993 273.843 146.304 274.044 146.721C274.246 147.135 274.346 147.655 274.346 148.28C274.346 148.888 274.248 149.402 274.051 149.821C273.857 150.238 273.592 150.554 273.256 150.769C272.922 150.982 272.548 151.089 272.134 151.089C271.84 151.089 271.591 151.04 271.385 150.943C271.181 150.846 271.014 150.724 270.884 150.577C270.754 150.428 270.654 150.278 270.586 150.126H270.518V151H269.027ZM270.507 148.273C270.507 148.597 270.552 148.88 270.642 149.121C270.732 149.363 270.863 149.551 271.033 149.686C271.203 149.819 271.411 149.885 271.654 149.885C271.901 149.885 272.109 149.817 272.279 149.683C272.45 149.545 272.579 149.356 272.667 149.114C272.757 148.871 272.801 148.59 272.801 148.273C272.801 147.958 272.758 147.681 272.67 147.442C272.583 147.203 272.453 147.016 272.283 146.881C272.113 146.746 271.903 146.678 271.654 146.678C271.408 146.678 271.2 146.743 271.029 146.874C270.861 147.004 270.732 147.188 270.642 147.428C270.552 147.667 270.507 147.948 270.507 148.273ZM279.894 147.101L278.509 147.186C278.485 147.068 278.434 146.961 278.356 146.866C278.278 146.769 278.175 146.692 278.047 146.636C277.922 146.576 277.772 146.547 277.596 146.547C277.362 146.547 277.164 146.597 277.003 146.696C276.842 146.793 276.762 146.923 276.762 147.087C276.762 147.217 276.814 147.327 276.918 147.417C277.022 147.507 277.201 147.579 277.454 147.634L278.442 147.832C278.972 147.941 279.367 148.116 279.628 148.358C279.888 148.599 280.018 148.917 280.018 149.31C280.018 149.667 279.913 149.981 279.702 150.251C279.494 150.521 279.207 150.731 278.843 150.883C278.481 151.032 278.063 151.107 277.589 151.107C276.867 151.107 276.292 150.956 275.863 150.656C275.437 150.353 275.188 149.941 275.114 149.42L276.602 149.342C276.647 149.562 276.756 149.73 276.929 149.846C277.102 149.96 277.323 150.016 277.593 150.016C277.858 150.016 278.071 149.965 278.232 149.864C278.395 149.759 278.478 149.626 278.481 149.462C278.478 149.325 278.42 149.213 278.307 149.125C278.193 149.035 278.018 148.966 277.781 148.919L276.836 148.731C276.304 148.624 275.907 148.44 275.647 148.177C275.389 147.914 275.26 147.579 275.26 147.172C275.26 146.821 275.354 146.52 275.544 146.266C275.736 146.013 276.004 145.818 276.35 145.68C276.698 145.543 277.105 145.474 277.572 145.474C278.26 145.474 278.803 145.62 279.198 145.911C279.596 146.202 279.828 146.599 279.894 147.101ZM283.872 145.545V146.682H280.587V145.545H283.872ZM281.333 144.239H282.846V149.324C282.846 149.464 282.867 149.572 282.91 149.651C282.952 149.726 283.012 149.78 283.087 149.81C283.165 149.841 283.255 149.857 283.357 149.857C283.428 149.857 283.499 149.851 283.57 149.839C283.641 149.825 283.696 149.814 283.734 149.807L283.972 150.933C283.896 150.956 283.789 150.983 283.652 151.014C283.515 151.047 283.348 151.067 283.151 151.075C282.787 151.089 282.467 151.04 282.192 150.929C281.92 150.818 281.708 150.645 281.557 150.411C281.405 150.176 281.331 149.88 281.333 149.523V144.239ZM284.858 151V145.545H286.324V146.497H286.381C286.48 146.159 286.647 145.903 286.882 145.73C287.116 145.555 287.386 145.467 287.691 145.467C287.767 145.467 287.849 145.472 287.936 145.482C288.024 145.491 288.101 145.504 288.167 145.521V146.863C288.096 146.842 287.998 146.823 287.873 146.806C287.747 146.79 287.632 146.781 287.528 146.781C287.306 146.781 287.107 146.83 286.931 146.927C286.759 147.022 286.621 147.154 286.52 147.325C286.42 147.495 286.37 147.692 286.37 147.914V151H284.858ZM290.349 151.103C290.001 151.103 289.69 151.043 289.418 150.922C289.146 150.799 288.93 150.618 288.772 150.379C288.616 150.137 288.537 149.836 288.537 149.477C288.537 149.174 288.593 148.919 288.704 148.713C288.816 148.507 288.967 148.341 289.159 148.216C289.351 148.09 289.568 147.996 289.812 147.932C290.059 147.868 290.317 147.823 290.586 147.797C290.904 147.764 291.159 147.733 291.354 147.705C291.548 147.674 291.689 147.629 291.776 147.57C291.864 147.51 291.907 147.423 291.907 147.307V147.286C291.907 147.061 291.836 146.887 291.694 146.763C291.555 146.64 291.356 146.579 291.098 146.579C290.826 146.579 290.609 146.639 290.448 146.76C290.287 146.878 290.18 147.027 290.128 147.207L288.729 147.094C288.8 146.762 288.94 146.476 289.148 146.234C289.357 145.991 289.625 145.804 289.954 145.673C290.286 145.541 290.669 145.474 291.105 145.474C291.408 145.474 291.698 145.51 291.975 145.581C292.254 145.652 292.502 145.762 292.717 145.911C292.935 146.06 293.107 146.252 293.232 146.487C293.358 146.719 293.42 146.997 293.42 147.321V151H291.986V150.244H291.943C291.855 150.414 291.738 150.564 291.591 150.695C291.445 150.822 291.268 150.923 291.062 150.996C290.856 151.067 290.618 151.103 290.349 151.103ZM290.782 150.059C291.004 150.059 291.201 150.015 291.371 149.928C291.542 149.838 291.675 149.717 291.773 149.565C291.87 149.414 291.918 149.242 291.918 149.05V148.472C291.871 148.502 291.806 148.531 291.723 148.557C291.642 148.58 291.551 148.603 291.449 148.624C291.348 148.643 291.246 148.661 291.144 148.678C291.042 148.692 290.95 148.705 290.867 148.717C290.689 148.743 290.534 148.784 290.402 148.841C290.269 148.898 290.166 148.975 290.093 149.072C290.019 149.166 289.983 149.285 289.983 149.427C289.983 149.633 290.057 149.79 290.206 149.899C290.358 150.006 290.55 150.059 290.782 150.059ZM297.058 151.107C296.5 151.107 296.019 150.988 295.617 150.751C295.217 150.512 294.909 150.181 294.693 149.757C294.48 149.333 294.374 148.846 294.374 148.294C294.374 147.735 294.481 147.245 294.697 146.824C294.915 146.4 295.224 146.07 295.624 145.833C296.024 145.594 296.5 145.474 297.051 145.474C297.527 145.474 297.944 145.561 298.301 145.734C298.659 145.906 298.942 146.149 299.15 146.462C299.358 146.774 299.473 147.141 299.494 147.562H298.067C298.027 147.29 297.92 147.071 297.747 146.906C297.577 146.737 297.353 146.653 297.076 146.653C296.842 146.653 296.637 146.717 296.462 146.845C296.289 146.971 296.154 147.154 296.057 147.396C295.96 147.637 295.911 147.929 295.911 148.273C295.911 148.621 295.959 148.917 296.053 149.161C296.151 149.404 296.287 149.59 296.462 149.718C296.637 149.846 296.842 149.91 297.076 149.91C297.249 149.91 297.404 149.874 297.541 149.803C297.681 149.732 297.796 149.629 297.886 149.494C297.978 149.357 298.039 149.192 298.067 149.001H299.494C299.471 149.417 299.357 149.784 299.154 150.102C298.952 150.416 298.674 150.663 298.319 150.84C297.964 151.018 297.544 151.107 297.058 151.107ZM303.364 145.545V146.682H300.08V145.545H303.364ZM300.825 144.239H302.338V149.324C302.338 149.464 302.359 149.572 302.402 149.651C302.445 149.726 302.504 149.78 302.58 149.81C302.658 149.841 302.748 149.857 302.849 149.857C302.92 149.857 302.991 149.851 303.062 149.839C303.134 149.825 303.188 149.814 303.226 149.807L303.464 150.933C303.388 150.956 303.281 150.983 303.144 151.014C303.007 151.047 302.84 151.067 302.643 151.075C302.279 151.089 301.959 151.04 301.685 150.929C301.412 150.818 301.201 150.645 301.049 150.411C300.897 150.176 300.823 149.88 300.825 149.523V144.239ZM309.645 148.717L304.645 150.918V149.48L308.068 148.106L308.022 148.18V148.003L308.068 148.077L304.645 146.703V145.265L309.645 147.467V148.717ZM316.441 148.717L311.441 150.918V149.48L314.865 148.106L314.819 148.18V148.003L314.865 148.077L311.441 146.703V145.265L316.441 147.467V148.717Z" fill="#333333"/>
<path d="M250.21 139H247.632V131.727H250.232C250.963 131.727 251.593 131.873 252.121 132.164C252.649 132.453 253.055 132.868 253.339 133.411C253.625 133.953 253.768 134.601 253.768 135.357C253.768 136.114 253.625 136.765 253.339 137.31C253.055 137.854 252.646 138.272 252.114 138.563C251.583 138.854 250.949 139 250.21 139ZM249.17 137.683H250.146C250.601 137.683 250.983 137.602 251.293 137.441C251.606 137.278 251.84 137.026 251.996 136.685C252.155 136.341 252.234 135.899 252.234 135.357C252.234 134.819 252.155 134.38 251.996 134.039C251.84 133.698 251.607 133.447 251.297 133.286C250.987 133.125 250.604 133.045 250.15 133.045H249.17V137.683ZM257.344 139.107C256.792 139.107 256.315 138.989 255.912 138.755C255.512 138.518 255.203 138.189 254.986 137.768C254.768 137.344 254.659 136.853 254.659 136.294C254.659 135.731 254.768 135.238 254.986 134.817C255.203 134.393 255.512 134.064 255.912 133.83C256.315 133.593 256.792 133.474 257.344 133.474C257.895 133.474 258.371 133.593 258.771 133.83C259.174 134.064 259.484 134.393 259.702 134.817C259.919 135.238 260.028 135.731 260.028 136.294C260.028 136.853 259.919 137.344 259.702 137.768C259.484 138.189 259.174 138.518 258.771 138.755C258.371 138.989 257.895 139.107 257.344 139.107ZM257.351 137.935C257.602 137.935 257.811 137.864 257.979 137.722C258.147 137.577 258.274 137.381 258.359 137.132C258.447 136.884 258.491 136.601 258.491 136.283C258.491 135.966 258.447 135.683 258.359 135.435C258.274 135.186 258.147 134.99 257.979 134.845C257.811 134.701 257.602 134.629 257.351 134.629C257.097 134.629 256.884 134.701 256.711 134.845C256.541 134.99 256.412 135.186 256.324 135.435C256.239 135.683 256.197 135.966 256.197 136.283C256.197 136.601 256.239 136.884 256.324 137.132C256.412 137.381 256.541 137.577 256.711 137.722C256.884 137.864 257.097 137.935 257.351 137.935ZM265.308 129.384V141.344H263.873V129.384H265.308ZM270.663 139H269.015L271.526 131.727H273.507L276.015 139H274.367L272.545 133.389H272.488L270.663 139ZM270.56 136.141H274.452V137.342H270.56V136.141ZM281.273 135.101L279.888 135.186C279.864 135.068 279.813 134.961 279.735 134.866C279.657 134.769 279.554 134.692 279.426 134.636C279.301 134.576 279.151 134.547 278.975 134.547C278.741 134.547 278.543 134.597 278.382 134.696C278.221 134.793 278.141 134.923 278.141 135.087C278.141 135.217 278.193 135.327 278.297 135.417C278.401 135.507 278.58 135.579 278.833 135.634L279.82 135.832C280.351 135.941 280.746 136.116 281.007 136.358C281.267 136.599 281.397 136.917 281.397 137.31C281.397 137.667 281.292 137.981 281.081 138.251C280.873 138.521 280.586 138.731 280.222 138.883C279.86 139.032 279.442 139.107 278.968 139.107C278.246 139.107 277.671 138.956 277.242 138.656C276.816 138.353 276.566 137.941 276.493 137.42L277.981 137.342C278.026 137.562 278.135 137.73 278.308 137.846C278.481 137.96 278.702 138.016 278.972 138.016C279.237 138.016 279.45 137.965 279.611 137.864C279.774 137.759 279.857 137.626 279.86 137.462C279.857 137.325 279.799 137.213 279.686 137.125C279.572 137.035 279.397 136.966 279.16 136.919L278.215 136.731C277.683 136.624 277.286 136.44 277.026 136.177C276.768 135.914 276.639 135.579 276.639 135.172C276.639 134.821 276.733 134.52 276.923 134.266C277.115 134.013 277.383 133.818 277.729 133.68C278.077 133.543 278.484 133.474 278.95 133.474C279.639 133.474 280.182 133.62 280.577 133.911C280.975 134.202 281.207 134.599 281.273 135.101ZM283.721 137.43L283.724 135.616H283.944L285.691 133.545H287.428L285.081 136.287H284.722L283.721 137.43ZM282.35 139V131.727H283.863V139H282.35ZM285.759 139L284.154 136.624L285.162 135.555L287.531 139H285.759ZM294.458 133.819C294.43 133.532 294.308 133.31 294.093 133.151C293.877 132.993 293.585 132.913 293.215 132.913C292.964 132.913 292.753 132.949 292.58 133.02C292.407 133.089 292.274 133.184 292.182 133.308C292.092 133.431 292.047 133.57 292.047 133.727C292.042 133.857 292.07 133.97 292.129 134.067C292.19 134.165 292.274 134.249 292.381 134.32C292.487 134.388 292.61 134.449 292.75 134.501C292.89 134.55 293.039 134.593 293.198 134.629L293.851 134.785C294.168 134.856 294.459 134.951 294.725 135.069C294.99 135.187 295.219 135.333 295.414 135.506C295.608 135.679 295.758 135.882 295.865 136.116C295.973 136.351 296.029 136.62 296.031 136.923C296.029 137.368 295.915 137.754 295.691 138.08C295.468 138.405 295.146 138.657 294.725 138.837C294.306 139.014 293.8 139.103 293.208 139.103C292.621 139.103 292.11 139.013 291.674 138.833C291.241 138.653 290.902 138.387 290.659 138.034C290.417 137.679 290.29 137.24 290.279 136.717H291.767C291.783 136.96 291.853 137.164 291.976 137.327C292.102 137.488 292.268 137.61 292.477 137.693C292.687 137.774 292.925 137.814 293.191 137.814C293.451 137.814 293.677 137.776 293.869 137.7C294.063 137.625 294.213 137.519 294.32 137.384C294.426 137.249 294.48 137.094 294.48 136.919C294.48 136.756 294.431 136.618 294.334 136.507C294.239 136.396 294.1 136.301 293.915 136.223C293.733 136.145 293.509 136.074 293.244 136.01L292.452 135.811C291.839 135.662 291.355 135.429 290.999 135.112C290.644 134.794 290.468 134.367 290.47 133.83C290.468 133.389 290.585 133.004 290.822 132.675C291.061 132.346 291.389 132.089 291.806 131.905C292.222 131.72 292.696 131.628 293.226 131.628C293.766 131.628 294.237 131.72 294.639 131.905C295.044 132.089 295.359 132.346 295.584 132.675C295.809 133.004 295.925 133.386 295.932 133.819H294.458ZM299.523 139.107C298.962 139.107 298.479 138.993 298.074 138.766C297.672 138.536 297.362 138.212 297.144 137.793C296.926 137.371 296.817 136.873 296.817 136.298C296.817 135.737 296.926 135.244 297.144 134.82C297.362 134.397 297.668 134.066 298.064 133.83C298.461 133.593 298.928 133.474 299.463 133.474C299.823 133.474 300.158 133.532 300.468 133.648C300.78 133.762 301.052 133.934 301.284 134.163C301.519 134.393 301.701 134.682 301.831 135.03C301.962 135.375 302.027 135.78 302.027 136.244V136.66H297.421V135.722H300.603C300.603 135.504 300.555 135.312 300.461 135.143C300.366 134.975 300.234 134.844 300.066 134.749C299.901 134.652 299.708 134.604 299.488 134.604C299.258 134.604 299.054 134.657 298.877 134.763C298.702 134.868 298.564 135.009 298.465 135.186C298.365 135.361 298.315 135.557 298.312 135.772V136.663C298.312 136.933 298.362 137.166 298.461 137.363C298.563 137.559 298.706 137.711 298.891 137.817C299.076 137.924 299.295 137.977 299.548 137.977C299.716 137.977 299.87 137.954 300.01 137.906C300.149 137.859 300.269 137.788 300.368 137.693C300.468 137.598 300.543 137.482 300.596 137.345L301.995 137.438C301.924 137.774 301.778 138.067 301.558 138.318C301.34 138.567 301.058 138.761 300.713 138.901C300.369 139.038 299.973 139.107 299.523 139.107ZM303.014 139V133.545H304.48V134.497H304.537C304.637 134.159 304.804 133.903 305.038 133.73C305.272 133.555 305.542 133.467 305.848 133.467C305.923 133.467 306.005 133.472 306.093 133.482C306.18 133.491 306.257 133.504 306.324 133.521V134.863C306.252 134.842 306.154 134.823 306.029 134.806C305.903 134.79 305.788 134.781 305.684 134.781C305.462 134.781 305.263 134.83 305.088 134.927C304.915 135.022 304.778 135.154 304.676 135.325C304.576 135.495 304.527 135.692 304.527 135.914V139H303.014ZM312.357 133.545L310.45 139H308.745L306.838 133.545H308.436L309.569 137.448H309.626L310.755 133.545H312.357ZM315.441 139.107C314.88 139.107 314.397 138.993 313.992 138.766C313.59 138.536 313.28 138.212 313.062 137.793C312.844 137.371 312.735 136.873 312.735 136.298C312.735 135.737 312.844 135.244 313.062 134.82C313.28 134.397 313.586 134.066 313.982 133.83C314.379 133.593 314.846 133.474 315.381 133.474C315.741 133.474 316.076 133.532 316.386 133.648C316.698 133.762 316.97 133.934 317.202 134.163C317.437 134.393 317.619 134.682 317.749 135.03C317.879 135.375 317.945 135.78 317.945 136.244V136.66H313.339V135.722H316.521C316.521 135.504 316.473 135.312 316.379 135.143C316.284 134.975 316.152 134.844 315.984 134.749C315.819 134.652 315.626 134.604 315.406 134.604C315.176 134.604 314.972 134.657 314.795 134.763C314.62 134.868 314.482 135.009 314.383 135.186C314.283 135.361 314.232 135.557 314.23 135.772V136.663C314.23 136.933 314.28 137.166 314.379 137.363C314.481 137.559 314.624 137.711 314.809 137.817C314.994 137.924 315.213 137.977 315.466 137.977C315.634 137.977 315.788 137.954 315.928 137.906C316.067 137.859 316.187 137.788 316.286 137.693C316.386 137.598 316.461 137.482 316.513 137.345L317.913 137.438C317.842 137.774 317.696 138.067 317.476 138.318C317.258 138.567 316.976 138.761 316.631 138.901C316.287 139.038 315.891 139.107 315.441 139.107ZM318.932 139V133.545H320.398V134.497H320.455C320.555 134.159 320.722 133.903 320.956 133.73C321.19 133.555 321.46 133.467 321.766 133.467C321.841 133.467 321.923 133.472 322.011 133.482C322.098 133.491 322.175 133.504 322.241 133.521V134.863C322.17 134.842 322.072 134.823 321.947 134.806C321.821 134.79 321.706 134.781 321.602 134.781C321.38 134.781 321.181 134.83 321.006 134.927C320.833 135.022 320.696 135.154 320.594 135.325C320.494 135.495 320.445 135.692 320.445 135.914V139H318.932Z" fill="#333333"/>
<path d="M304.553 256.18C304.524 255.893 304.402 255.671 304.187 255.512C303.972 255.354 303.679 255.274 303.31 255.274C303.059 255.274 302.847 255.31 302.674 255.381C302.501 255.449 302.369 255.545 302.276 255.668C302.186 255.792 302.142 255.931 302.142 256.087C302.137 256.218 302.164 256.331 302.223 256.428C302.285 256.525 302.369 256.609 302.475 256.681C302.582 256.749 302.705 256.81 302.845 256.862C302.984 256.911 303.133 256.954 303.292 256.989L303.945 257.146C304.263 257.217 304.554 257.311 304.819 257.43C305.084 257.548 305.314 257.694 305.508 257.867C305.702 258.039 305.852 258.243 305.959 258.477C306.068 258.712 306.124 258.98 306.126 259.283C306.124 259.729 306.01 260.114 305.785 260.441C305.562 260.765 305.24 261.018 304.819 261.198C304.4 261.375 303.895 261.464 303.303 261.464C302.716 261.464 302.204 261.374 301.769 261.194C301.335 261.014 300.997 260.748 300.753 260.395C300.512 260.04 300.385 259.601 300.373 259.078H301.861C301.878 259.321 301.947 259.525 302.07 259.688C302.196 259.849 302.363 259.971 302.571 260.054C302.782 260.135 303.02 260.175 303.285 260.175C303.545 260.175 303.771 260.137 303.963 260.061C304.157 259.985 304.308 259.88 304.414 259.745C304.521 259.61 304.574 259.455 304.574 259.28C304.574 259.117 304.526 258.979 304.428 258.868C304.334 258.757 304.194 258.662 304.009 258.584C303.827 258.506 303.603 258.435 303.338 258.371L302.546 258.172C301.933 258.023 301.449 257.79 301.094 257.472C300.739 257.155 300.562 256.728 300.565 256.19C300.562 255.75 300.68 255.365 300.916 255.036C301.155 254.707 301.483 254.45 301.9 254.266C302.317 254.081 302.79 253.989 303.32 253.989C303.86 253.989 304.331 254.081 304.734 254.266C305.139 254.45 305.454 254.707 305.678 255.036C305.903 255.365 306.019 255.747 306.026 256.18H304.553ZM309.596 261.467C309.038 261.467 308.557 261.349 308.154 261.112C307.754 260.873 307.447 260.542 307.231 260.118C307.018 259.694 306.912 259.207 306.912 258.655C306.912 258.096 307.019 257.606 307.235 257.185C307.453 256.761 307.761 256.431 308.162 256.194C308.562 255.955 309.038 255.835 309.589 255.835C310.065 255.835 310.482 255.922 310.839 256.095C311.197 256.267 311.48 256.51 311.688 256.823C311.896 257.135 312.011 257.502 312.032 257.923H310.605C310.565 257.651 310.458 257.432 310.285 257.266C310.115 257.098 309.891 257.014 309.614 257.014C309.38 257.014 309.175 257.078 309 257.206C308.827 257.332 308.692 257.515 308.595 257.756C308.498 257.998 308.449 258.29 308.449 258.634C308.449 258.982 308.497 259.278 308.591 259.521C308.688 259.765 308.824 259.951 309 260.079C309.175 260.207 309.38 260.271 309.614 260.271C309.787 260.271 309.942 260.235 310.079 260.164C310.219 260.093 310.334 259.99 310.424 259.855C310.516 259.718 310.576 259.553 310.605 259.362H312.032C312.009 259.778 311.895 260.145 311.691 260.462C311.49 260.777 311.212 261.024 310.857 261.201C310.502 261.379 310.082 261.467 309.596 261.467ZM314.514 258.207V261.361H313.001V254.088H314.471V256.869H314.535C314.658 256.547 314.857 256.295 315.132 256.112C315.406 255.928 315.751 255.835 316.165 255.835C316.544 255.835 316.874 255.918 317.156 256.084C317.44 256.247 317.66 256.483 317.816 256.791C317.975 257.096 318.053 257.462 318.051 257.888V261.361H316.538V258.158C316.54 257.822 316.455 257.56 316.282 257.373C316.112 257.186 315.873 257.092 315.565 257.092C315.359 257.092 315.177 257.136 315.018 257.224C314.862 257.311 314.739 257.439 314.649 257.607C314.561 257.773 314.516 257.973 314.514 258.207ZM321.727 261.467C321.166 261.467 320.683 261.354 320.278 261.127C319.876 260.897 319.565 260.573 319.348 260.154C319.13 259.732 319.021 259.234 319.021 258.658C319.021 258.097 319.13 257.605 319.348 257.181C319.565 256.757 319.872 256.427 320.267 256.19C320.665 255.954 321.132 255.835 321.667 255.835C322.026 255.835 322.361 255.893 322.672 256.009C322.984 256.123 323.256 256.295 323.488 256.524C323.723 256.754 323.905 257.043 324.035 257.391C324.165 257.736 324.23 258.141 324.23 258.605V259.021H319.625V258.083H322.806C322.806 257.865 322.759 257.672 322.664 257.504C322.57 257.336 322.438 257.205 322.27 257.11C322.105 257.013 321.912 256.965 321.691 256.965C321.462 256.965 321.258 257.018 321.081 257.124C320.905 257.229 320.768 257.369 320.669 257.547C320.569 257.722 320.518 257.917 320.516 258.133V259.024C320.516 259.294 320.566 259.527 320.665 259.724C320.767 259.92 320.91 260.072 321.095 260.178C321.279 260.285 321.498 260.338 321.752 260.338C321.92 260.338 322.074 260.314 322.213 260.267C322.353 260.22 322.473 260.149 322.572 260.054C322.672 259.959 322.747 259.843 322.799 259.706L324.199 259.798C324.127 260.135 323.982 260.428 323.762 260.679C323.544 260.928 323.262 261.122 322.917 261.261C322.573 261.399 322.177 261.467 321.727 261.467ZM327.228 261.45C326.813 261.45 326.438 261.343 326.102 261.13C325.768 260.915 325.503 260.599 325.306 260.182C325.112 259.763 325.015 259.249 325.015 258.641C325.015 258.016 325.116 257.496 325.317 257.082C325.518 256.665 325.786 256.354 326.12 256.148C326.456 255.939 326.824 255.835 327.224 255.835C327.529 255.835 327.784 255.887 327.988 255.992C328.194 256.093 328.359 256.221 328.485 256.375C328.613 256.527 328.71 256.676 328.776 256.823H328.822V254.088H330.331V261.361H328.84V260.487H328.776C328.705 260.639 328.604 260.789 328.474 260.938C328.346 261.085 328.179 261.207 327.973 261.304C327.77 261.401 327.521 261.45 327.228 261.45ZM327.707 260.246C327.951 260.246 328.157 260.18 328.325 260.047C328.495 259.912 328.626 259.724 328.716 259.482C328.808 259.241 328.854 258.958 328.854 258.634C328.854 258.309 328.809 258.028 328.719 257.788C328.629 257.549 328.499 257.365 328.328 257.234C328.158 257.104 327.951 257.039 327.707 257.039C327.458 257.039 327.249 257.107 327.078 257.242C326.908 257.377 326.779 257.564 326.691 257.803C326.604 258.042 326.56 258.319 326.56 258.634C326.56 258.951 326.604 259.231 326.691 259.475C326.781 259.717 326.91 259.906 327.078 260.043C327.249 260.178 327.458 260.246 327.707 260.246ZM335.073 259.038V255.906H336.586V261.361H335.133V260.37H335.077C334.953 260.69 334.749 260.947 334.462 261.141C334.178 261.335 333.831 261.432 333.422 261.432C333.057 261.432 332.736 261.349 332.459 261.183C332.182 261.018 331.966 260.782 331.809 260.477C331.656 260.171 331.577 259.806 331.575 259.379V255.906H333.088V259.109C333.09 259.431 333.177 259.686 333.347 259.873C333.518 260.06 333.746 260.154 334.032 260.154C334.215 260.154 334.385 260.112 334.544 260.029C334.702 259.944 334.83 259.819 334.927 259.653C335.027 259.487 335.075 259.282 335.073 259.038ZM339.309 254.088V261.361H337.796V254.088H339.309ZM343.006 261.467C342.445 261.467 341.962 261.354 341.557 261.127C341.155 260.897 340.845 260.573 340.627 260.154C340.409 259.732 340.3 259.234 340.3 258.658C340.3 258.097 340.409 257.605 340.627 257.181C340.845 256.757 341.151 256.427 341.547 256.19C341.944 255.954 342.411 255.835 342.946 255.835C343.306 255.835 343.641 255.893 343.951 256.009C344.263 256.123 344.536 256.295 344.768 256.524C345.002 256.754 345.184 257.043 345.314 257.391C345.445 257.736 345.51 258.141 345.51 258.605V259.021H340.904V258.083H344.086C344.086 257.865 344.038 257.672 343.944 257.504C343.849 257.336 343.718 257.205 343.55 257.11C343.384 257.013 343.191 256.965 342.971 256.965C342.741 256.965 342.537 257.018 342.36 257.124C342.185 257.229 342.047 257.369 341.948 257.547C341.849 257.722 341.798 257.917 341.795 258.133V259.024C341.795 259.294 341.845 259.527 341.944 259.724C342.046 259.92 342.189 260.072 342.374 260.178C342.559 260.285 342.778 260.338 343.031 260.338C343.199 260.338 343.353 260.314 343.493 260.267C343.632 260.22 343.752 260.149 343.851 260.054C343.951 259.959 344.027 259.843 344.079 259.706L345.478 259.798C345.407 260.135 345.261 260.428 345.041 260.679C344.823 260.928 344.541 261.122 344.196 261.261C343.853 261.399 343.456 261.467 343.006 261.467Z" fill="#333333"/>
<path d="M293.664 264.948H295.56L297.563 269.835H297.648L299.651 264.948H301.548V272.221H300.056V267.487H299.996L298.114 272.185H297.098L295.216 267.469H295.156V272.221H293.664V264.948ZM304.341 272.324C303.993 272.324 303.683 272.263 303.411 272.143C303.139 272.02 302.923 271.839 302.765 271.599C302.608 271.358 302.53 271.057 302.53 270.697C302.53 270.394 302.586 270.14 302.697 269.934C302.809 269.728 302.96 269.562 303.152 269.437C303.344 269.311 303.561 269.217 303.805 269.153C304.051 269.089 304.309 269.044 304.579 269.018C304.897 268.985 305.152 268.954 305.346 268.925C305.541 268.895 305.681 268.85 305.769 268.79C305.857 268.731 305.9 268.644 305.9 268.528V268.506C305.9 268.281 305.829 268.107 305.687 267.984C305.548 267.861 305.349 267.8 305.091 267.8C304.818 267.8 304.602 267.86 304.441 267.981C304.28 268.099 304.173 268.248 304.121 268.428L302.722 268.315C302.793 267.983 302.933 267.697 303.141 267.455C303.349 267.211 303.618 267.024 303.947 266.894C304.279 266.762 304.662 266.695 305.098 266.695C305.401 266.695 305.691 266.731 305.968 266.802C306.247 266.873 306.495 266.983 306.71 267.132C306.928 267.281 307.099 267.473 307.225 267.707C307.35 267.939 307.413 268.218 307.413 268.542V272.221H305.979V271.464H305.936C305.848 271.635 305.731 271.785 305.584 271.915C305.438 272.043 305.261 272.144 305.055 272.217C304.849 272.288 304.611 272.324 304.341 272.324ZM304.775 271.28C304.997 271.28 305.194 271.236 305.364 271.148C305.535 271.058 305.668 270.938 305.765 270.786C305.863 270.635 305.911 270.463 305.911 270.271V269.692C305.864 269.723 305.799 269.752 305.716 269.778C305.635 269.801 305.544 269.824 305.442 269.845C305.34 269.864 305.239 269.882 305.137 269.898C305.035 269.913 304.943 269.926 304.86 269.938C304.682 269.964 304.527 270.005 304.395 270.062C304.262 270.119 304.159 270.196 304.086 270.293C304.012 270.387 303.976 270.506 303.976 270.648C303.976 270.854 304.05 271.011 304.199 271.12C304.351 271.227 304.543 271.28 304.775 271.28ZM310.1 269.067V272.221H308.587V266.766H310.029V267.729H310.092C310.213 267.411 310.416 267.161 310.7 266.976C310.984 266.789 311.328 266.695 311.733 266.695C312.112 266.695 312.442 266.778 312.724 266.944C313.006 267.11 313.225 267.346 313.381 267.654C313.537 267.96 313.615 268.324 313.615 268.748V272.221H312.102V269.018C312.105 268.684 312.02 268.424 311.847 268.237C311.674 268.047 311.436 267.952 311.133 267.952C310.929 267.952 310.749 267.996 310.593 268.084C310.439 268.171 310.319 268.299 310.231 268.467C310.146 268.633 310.102 268.833 310.1 269.067ZM316.363 272.324C316.015 272.324 315.705 272.263 315.433 272.143C315.16 272.02 314.945 271.839 314.786 271.599C314.63 271.358 314.552 271.057 314.552 270.697C314.552 270.394 314.607 270.14 314.719 269.934C314.83 269.728 314.982 269.562 315.173 269.437C315.365 269.311 315.583 269.217 315.827 269.153C316.073 269.089 316.331 269.044 316.601 269.018C316.918 268.985 317.174 268.954 317.368 268.925C317.562 268.895 317.703 268.85 317.79 268.79C317.878 268.731 317.922 268.644 317.922 268.528V268.506C317.922 268.281 317.851 268.107 317.709 267.984C317.569 267.861 317.37 267.8 317.112 267.8C316.84 267.8 316.623 267.86 316.462 267.981C316.301 268.099 316.195 268.248 316.143 268.428L314.744 268.315C314.815 267.983 314.954 267.697 315.163 267.455C315.371 267.211 315.64 267.024 315.969 266.894C316.3 266.762 316.684 266.695 317.119 266.695C317.422 266.695 317.712 266.731 317.989 266.802C318.269 266.873 318.516 266.983 318.732 267.132C318.949 267.281 319.121 267.473 319.246 267.707C319.372 267.939 319.435 268.218 319.435 268.542V272.221H318V271.464H317.957C317.87 271.635 317.753 271.785 317.606 271.915C317.459 272.043 317.283 272.144 317.077 272.217C316.871 272.288 316.633 272.324 316.363 272.324ZM316.796 271.28C317.019 271.28 317.215 271.236 317.386 271.148C317.556 271.058 317.69 270.938 317.787 270.786C317.884 270.635 317.933 270.463 317.933 270.271V269.692C317.885 269.723 317.82 269.752 317.737 269.778C317.657 269.801 317.566 269.824 317.464 269.845C317.362 269.864 317.26 269.882 317.158 269.898C317.057 269.913 316.964 269.926 316.881 269.938C316.704 269.964 316.549 270.005 316.416 270.062C316.284 270.119 316.181 270.196 316.107 270.293C316.034 270.387 315.997 270.506 315.997 270.648C315.997 270.854 316.072 271.011 316.221 271.12C316.372 271.227 316.564 271.28 316.796 271.28ZM323.066 274.38C322.576 274.38 322.155 274.313 321.805 274.178C321.457 274.045 321.18 273.864 320.974 273.634C320.768 273.405 320.634 273.147 320.573 272.86L321.972 272.672C322.015 272.781 322.082 272.883 322.174 272.977C322.267 273.072 322.389 273.148 322.54 273.205C322.694 273.264 322.881 273.293 323.101 273.293C323.43 273.293 323.701 273.213 323.914 273.052C324.13 272.893 324.238 272.627 324.238 272.253V271.255H324.174C324.107 271.406 324.008 271.55 323.875 271.685C323.743 271.82 323.572 271.93 323.364 272.015C323.156 272.1 322.907 272.143 322.618 272.143C322.209 272.143 321.836 272.048 321.5 271.859C321.166 271.667 320.899 271.375 320.701 270.982C320.504 270.586 320.406 270.087 320.406 269.483C320.406 268.865 320.507 268.349 320.708 267.935C320.909 267.52 321.176 267.21 321.51 267.004C321.846 266.798 322.215 266.695 322.615 266.695C322.92 266.695 323.176 266.747 323.382 266.852C323.588 266.953 323.753 267.081 323.879 267.235C324.007 267.387 324.105 267.536 324.174 267.683H324.23V266.766H325.733V272.274C325.733 272.738 325.619 273.126 325.392 273.439C325.164 273.751 324.85 273.986 324.447 274.142C324.047 274.301 323.587 274.38 323.066 274.38ZM323.098 271.006C323.341 271.006 323.547 270.946 323.716 270.825C323.886 270.702 324.016 270.527 324.106 270.3C324.199 270.07 324.245 269.795 324.245 269.476C324.245 269.156 324.2 268.879 324.11 268.645C324.02 268.408 323.89 268.225 323.719 268.094C323.549 267.964 323.341 267.899 323.098 267.899C322.849 267.899 322.64 267.967 322.469 268.102C322.299 268.234 322.17 268.419 322.082 268.656C321.994 268.892 321.951 269.166 321.951 269.476C321.951 269.791 321.994 270.063 322.082 270.293C322.172 270.52 322.301 270.696 322.469 270.822C322.64 270.945 322.849 271.006 323.098 271.006ZM329.422 272.327C328.861 272.327 328.378 272.214 327.973 271.987C327.571 271.757 327.261 271.433 327.043 271.013C326.825 270.592 326.716 270.094 326.716 269.518C326.716 268.957 326.825 268.465 327.043 268.041C327.261 267.617 327.567 267.287 327.963 267.05C328.36 266.814 328.827 266.695 329.362 266.695C329.722 266.695 330.057 266.753 330.367 266.869C330.679 266.983 330.952 267.155 331.184 267.384C331.418 267.614 331.6 267.903 331.73 268.251C331.861 268.596 331.926 269.001 331.926 269.465V269.881H327.32V268.943H330.502C330.502 268.725 330.454 268.532 330.36 268.364C330.265 268.196 330.134 268.065 329.966 267.97C329.8 267.873 329.607 267.825 329.387 267.825C329.157 267.825 328.953 267.878 328.776 267.984C328.601 268.089 328.463 268.229 328.364 268.407C328.265 268.582 328.214 268.777 328.211 268.993V269.884C328.211 270.154 328.261 270.387 328.36 270.584C328.462 270.78 328.605 270.932 328.79 271.038C328.975 271.145 329.194 271.198 329.447 271.198C329.615 271.198 329.769 271.174 329.909 271.127C330.048 271.08 330.168 271.009 330.267 270.914C330.367 270.819 330.443 270.703 330.495 270.566L331.894 270.658C331.823 270.995 331.677 271.288 331.457 271.539C331.239 271.788 330.957 271.982 330.612 272.121C330.269 272.259 329.872 272.327 329.422 272.327ZM332.913 272.221V266.766H334.355V267.729H334.419C334.532 267.409 334.722 267.157 334.987 266.972C335.252 266.788 335.569 266.695 335.939 266.695C336.313 266.695 336.631 266.789 336.894 266.976C337.157 267.161 337.332 267.411 337.419 267.729H337.476C337.587 267.416 337.789 267.166 338.08 266.979C338.373 266.79 338.72 266.695 339.12 266.695C339.629 266.695 340.042 266.857 340.36 267.182C340.679 267.504 340.839 267.961 340.839 268.553V272.221H339.33V268.851C339.33 268.548 339.249 268.321 339.088 268.169C338.927 268.018 338.726 267.942 338.485 267.942C338.21 267.942 337.996 268.029 337.842 268.205C337.688 268.377 337.611 268.606 337.611 268.89V272.221H336.145V268.819C336.145 268.551 336.068 268.338 335.914 268.18C335.762 268.021 335.562 267.942 335.314 267.942C335.145 267.942 334.994 267.984 334.859 268.07C334.726 268.152 334.621 268.27 334.543 268.421C334.465 268.57 334.426 268.746 334.426 268.947V272.221H332.913ZM344.52 272.327C343.959 272.327 343.476 272.214 343.071 271.987C342.669 271.757 342.358 271.433 342.141 271.013C341.923 270.592 341.814 270.094 341.814 269.518C341.814 268.957 341.923 268.465 342.141 268.041C342.358 267.617 342.665 267.287 343.06 267.05C343.458 266.814 343.924 266.695 344.46 266.695C344.819 266.695 345.154 266.753 345.464 266.869C345.777 266.983 346.049 267.155 346.281 267.384C346.516 267.614 346.698 267.903 346.828 268.251C346.958 268.596 347.023 269.001 347.023 269.465V269.881H342.418V268.943H345.599C345.599 268.725 345.552 268.532 345.457 268.364C345.363 268.196 345.231 268.065 345.063 267.97C344.897 267.873 344.705 267.825 344.484 267.825C344.255 267.825 344.051 267.878 343.874 267.984C343.698 268.089 343.561 268.229 343.462 268.407C343.362 268.582 343.311 268.777 343.309 268.993V269.884C343.309 270.154 343.359 270.387 343.458 270.584C343.56 270.78 343.703 270.932 343.888 271.038C344.072 271.145 344.291 271.198 344.545 271.198C344.713 271.198 344.867 271.174 345.006 271.127C345.146 271.08 345.266 271.009 345.365 270.914C345.464 270.819 345.54 270.703 345.592 270.566L346.991 270.658C346.92 270.995 346.775 271.288 346.555 271.539C346.337 271.788 346.055 271.982 345.71 272.121C345.366 272.259 344.97 272.327 344.52 272.327ZM349.523 269.067V272.221H348.011V266.766H349.452V267.729H349.516C349.637 267.411 349.839 267.161 350.124 266.976C350.408 266.789 350.752 266.695 351.157 266.695C351.536 266.695 351.866 266.778 352.148 266.944C352.429 267.11 352.648 267.346 352.805 267.654C352.961 267.96 353.039 268.324 353.039 268.748V272.221H351.526V269.018C351.529 268.684 351.443 268.424 351.271 268.237C351.098 268.047 350.86 267.952 350.557 267.952C350.353 267.952 350.173 267.996 350.017 268.084C349.863 268.171 349.742 268.299 349.655 268.467C349.57 268.633 349.526 268.833 349.523 269.067ZM357.133 266.766V267.903H353.848V266.766H357.133ZM354.594 265.46H356.106V270.545C356.106 270.684 356.128 270.793 356.17 270.871C356.213 270.947 356.272 271 356.348 271.031C356.426 271.062 356.516 271.077 356.618 271.077C356.689 271.077 356.76 271.072 356.831 271.06C356.902 271.045 356.956 271.035 356.994 271.028L357.232 272.153C357.156 272.177 357.05 272.204 356.912 272.235C356.775 272.268 356.608 272.288 356.412 272.295C356.047 272.31 355.728 272.261 355.453 272.15C355.181 272.039 354.969 271.866 354.817 271.631C354.666 271.397 354.591 271.101 354.594 270.744V265.46Z" fill="#333333"/>
<path d="M181.042 261H178.545V253.956H181.063C181.771 253.956 182.381 254.097 182.892 254.379C183.404 254.659 183.797 255.061 184.072 255.586C184.35 256.112 184.488 256.74 184.488 257.471C184.488 258.205 184.35 258.835 184.072 259.363C183.797 259.89 183.401 260.295 182.886 260.577C182.372 260.859 181.757 261 181.042 261ZM180.034 259.724H180.98C181.42 259.724 181.791 259.646 182.091 259.49C182.394 259.332 182.621 259.088 182.772 258.758C182.926 258.425 183.003 257.996 183.003 257.471C183.003 256.951 182.926 256.525 182.772 256.195C182.621 255.865 182.395 255.622 182.095 255.466C181.794 255.31 181.424 255.232 180.984 255.232H180.034V259.724ZM187.07 261.1C186.733 261.1 186.433 261.041 186.169 260.924C185.906 260.805 185.697 260.63 185.543 260.398C185.392 260.164 185.316 259.873 185.316 259.525C185.316 259.231 185.37 258.985 185.478 258.785C185.586 258.586 185.733 258.425 185.918 258.304C186.104 258.182 186.315 258.09 186.551 258.028C186.79 257.966 187.039 257.923 187.301 257.898C187.608 257.866 187.856 257.836 188.044 257.808C188.232 257.778 188.368 257.735 188.453 257.678C188.538 257.62 188.58 257.535 188.58 257.423V257.402C188.58 257.185 188.512 257.016 188.374 256.897C188.239 256.778 188.046 256.718 187.796 256.718C187.532 256.718 187.323 256.776 187.167 256.893C187.011 257.008 186.908 257.152 186.857 257.327L185.502 257.217C185.571 256.896 185.706 256.618 185.908 256.384C186.11 256.148 186.37 255.967 186.689 255.841C187.01 255.713 187.381 255.648 187.803 255.648C188.097 255.648 188.377 255.683 188.646 255.752C188.916 255.82 189.156 255.927 189.365 256.071C189.575 256.216 189.742 256.402 189.863 256.629C189.985 256.853 190.046 257.123 190.046 257.437V261H188.656V260.267H188.615C188.53 260.433 188.416 260.578 188.274 260.704C188.132 260.828 187.961 260.925 187.762 260.997C187.562 261.065 187.332 261.1 187.07 261.1ZM187.49 260.089C187.706 260.089 187.896 260.046 188.061 259.961C188.226 259.874 188.356 259.757 188.45 259.61C188.544 259.464 188.591 259.298 188.591 259.112V258.551C188.545 258.581 188.482 258.608 188.401 258.634C188.324 258.657 188.235 258.678 188.137 258.699C188.038 258.717 187.939 258.735 187.841 258.751C187.742 258.764 187.653 258.777 187.573 258.788C187.401 258.814 187.25 258.854 187.122 258.909C186.994 258.964 186.894 259.038 186.823 259.132C186.752 259.224 186.716 259.339 186.716 259.476C186.716 259.676 186.788 259.828 186.933 259.934C187.08 260.037 187.265 260.089 187.49 260.089ZM193.992 255.717V256.818H190.811V255.717H193.992ZM191.533 254.451H192.998V259.377C192.998 259.512 193.019 259.617 193.06 259.693C193.101 259.766 193.159 259.818 193.232 259.848C193.308 259.878 193.395 259.893 193.493 259.893C193.562 259.893 193.631 259.887 193.7 259.875C193.769 259.862 193.821 259.851 193.858 259.844L194.088 260.935C194.015 260.958 193.912 260.984 193.779 261.014C193.646 261.046 193.484 261.065 193.294 261.072C192.941 261.086 192.631 261.039 192.365 260.931C192.102 260.823 191.896 260.656 191.75 260.429C191.603 260.202 191.531 259.915 191.533 259.569V254.451ZM196.453 261.1C196.116 261.1 195.816 261.041 195.552 260.924C195.288 260.805 195.08 260.63 194.926 260.398C194.775 260.164 194.699 259.873 194.699 259.525C194.699 259.231 194.753 258.985 194.861 258.785C194.968 258.586 195.115 258.425 195.301 258.304C195.487 258.182 195.698 258.09 195.934 258.028C196.172 257.966 196.422 257.923 196.684 257.898C196.991 257.866 197.238 257.836 197.426 257.808C197.614 257.778 197.751 257.735 197.836 257.678C197.921 257.62 197.963 257.535 197.963 257.423V257.402C197.963 257.185 197.894 257.016 197.757 256.897C197.621 256.778 197.429 256.718 197.179 256.718C196.915 256.718 196.705 256.776 196.549 256.893C196.393 257.008 196.29 257.152 196.24 257.327L194.885 257.217C194.953 256.896 195.089 256.618 195.291 256.384C195.492 256.148 195.753 255.967 196.071 255.841C196.392 255.713 196.764 255.648 197.186 255.648C197.479 255.648 197.76 255.683 198.028 255.752C198.299 255.82 198.538 255.927 198.747 256.071C198.958 256.216 199.124 256.402 199.246 256.629C199.367 256.853 199.428 257.123 199.428 257.437V261H198.039V260.267H197.997C197.913 260.433 197.799 260.578 197.657 260.704C197.515 260.828 197.344 260.925 197.144 260.997C196.945 261.065 196.714 261.1 196.453 261.1ZM196.873 260.089C197.088 260.089 197.279 260.046 197.444 259.961C197.609 259.874 197.738 259.757 197.832 259.61C197.926 259.464 197.973 259.298 197.973 259.112V258.551C197.927 258.581 197.864 258.608 197.784 258.634C197.706 258.657 197.618 258.678 197.519 258.699C197.421 258.717 197.322 258.735 197.223 258.751C197.125 258.764 197.035 258.777 196.955 258.788C196.783 258.814 196.633 258.854 196.505 258.909C196.376 258.964 196.277 259.038 196.205 259.132C196.134 259.224 196.099 259.339 196.099 259.476C196.099 259.676 196.171 259.828 196.315 259.934C196.462 260.037 196.648 260.089 196.873 260.089ZM160.612 265.956H162.449L164.389 270.689H164.471L166.411 265.956H168.248V273H166.803V268.415H166.745L164.922 272.966H163.938L162.115 268.398H162.057V273H160.612V265.956ZM171.834 273.103C171.3 273.103 170.838 272.99 170.448 272.763C170.06 272.533 169.761 272.215 169.55 271.807C169.339 271.396 169.234 270.92 169.234 270.379C169.234 269.833 169.339 269.357 169.55 268.948C169.761 268.538 170.06 268.219 170.448 267.992C170.838 267.763 171.3 267.648 171.834 267.648C172.368 267.648 172.829 267.763 173.217 267.992C173.606 268.219 173.907 268.538 174.118 268.948C174.329 269.357 174.434 269.833 174.434 270.379C174.434 270.92 174.329 271.396 174.118 271.807C173.907 272.215 173.606 272.533 173.217 272.763C172.829 272.99 172.368 273.103 171.834 273.103ZM171.841 271.968C172.084 271.968 172.287 271.899 172.45 271.762C172.612 271.622 172.735 271.432 172.818 271.191C172.903 270.95 172.945 270.676 172.945 270.369C172.945 270.062 172.903 269.788 172.818 269.547C172.735 269.306 172.612 269.116 172.45 268.976C172.287 268.836 172.084 268.766 171.841 268.766C171.596 268.766 171.389 268.836 171.222 268.976C171.057 269.116 170.932 269.306 170.847 269.547C170.764 269.788 170.723 270.062 170.723 270.369C170.723 270.676 170.764 270.95 170.847 271.191C170.932 271.432 171.057 271.622 171.222 271.762C171.389 271.899 171.596 271.968 171.841 271.968ZM177.334 273.086C176.932 273.086 176.569 272.983 176.243 272.776C175.92 272.568 175.663 272.262 175.473 271.858C175.285 271.452 175.191 270.955 175.191 270.365C175.191 269.76 175.288 269.257 175.483 268.856C175.678 268.452 175.937 268.15 176.26 267.951C176.586 267.749 176.943 267.648 177.33 267.648C177.626 267.648 177.872 267.699 178.07 267.8C178.269 267.898 178.43 268.022 178.551 268.171C178.675 268.318 178.769 268.462 178.833 268.604H178.878V265.956H180.34V273H178.895V272.154H178.833C178.764 272.301 178.667 272.446 178.541 272.591C178.417 272.733 178.255 272.851 178.056 272.945C177.859 273.039 177.618 273.086 177.334 273.086ZM177.798 271.92C178.034 271.92 178.234 271.856 178.396 271.727C178.561 271.597 178.688 271.414 178.775 271.181C178.864 270.947 178.909 270.673 178.909 270.359C178.909 270.044 178.865 269.772 178.778 269.54C178.691 269.308 178.565 269.13 178.4 269.003C178.235 268.877 178.034 268.814 177.798 268.814C177.557 268.814 177.354 268.88 177.189 269.01C177.024 269.141 176.899 269.322 176.814 269.554C176.729 269.785 176.687 270.054 176.687 270.359C176.687 270.666 176.729 270.938 176.814 271.174C176.901 271.408 177.026 271.591 177.189 271.724C177.354 271.855 177.557 271.92 177.798 271.92ZM181.544 273V267.717H183.009V273H181.544ZM182.28 267.036C182.062 267.036 181.876 266.964 181.72 266.819C181.566 266.673 181.489 266.497 181.489 266.293C181.489 266.091 181.566 265.918 181.72 265.774C181.876 265.627 182.062 265.554 182.28 265.554C182.498 265.554 182.684 265.627 182.837 265.774C182.993 265.918 183.071 266.091 183.071 266.293C183.071 266.497 182.993 266.673 182.837 266.819C182.684 266.964 182.498 267.036 182.28 267.036ZM187.024 267.717V268.818H183.763V267.717H187.024ZM184.51 273V267.335C184.51 266.952 184.584 266.635 184.733 266.383C184.885 266.13 185.091 265.941 185.352 265.815C185.614 265.689 185.911 265.626 186.243 265.626C186.468 265.626 186.673 265.643 186.859 265.678C187.047 265.712 187.187 265.743 187.279 265.77L187.017 266.871C186.96 266.853 186.889 266.835 186.804 266.819C186.721 266.803 186.637 266.795 186.549 266.795C186.334 266.795 186.184 266.846 186.099 266.947C186.014 267.045 185.972 267.184 185.972 267.363V273H184.51ZM187.919 273V267.717H189.384V273H187.919ZM188.655 267.036C188.437 267.036 188.25 266.964 188.095 266.819C187.941 266.673 187.864 266.497 187.864 266.293C187.864 266.091 187.941 265.918 188.095 265.774C188.25 265.627 188.437 265.554 188.655 265.554C188.873 265.554 189.059 265.627 189.212 265.774C189.368 265.918 189.446 266.091 189.446 266.293C189.446 266.497 189.368 266.673 189.212 266.819C189.059 266.964 188.873 267.036 188.655 267.036ZM192.945 273.103C192.404 273.103 191.938 272.989 191.549 272.759C191.161 272.528 190.863 272.207 190.654 271.796C190.448 271.386 190.345 270.913 190.345 270.379C190.345 269.838 190.449 269.363 190.658 268.955C190.869 268.545 191.168 268.225 191.555 267.996C191.943 267.764 192.404 267.648 192.938 267.648C193.399 267.648 193.802 267.732 194.149 267.899C194.495 268.067 194.769 268.302 194.971 268.604C195.172 268.907 195.284 269.263 195.304 269.671H193.922C193.883 269.407 193.78 269.195 193.612 269.034C193.447 268.872 193.23 268.79 192.962 268.79C192.735 268.79 192.537 268.852 192.367 268.976C192.2 269.097 192.069 269.275 191.975 269.509C191.881 269.743 191.834 270.026 191.834 270.359C191.834 270.696 191.88 270.982 191.972 271.218C192.066 271.455 192.197 271.635 192.367 271.758C192.537 271.882 192.735 271.944 192.962 271.944C193.129 271.944 193.28 271.91 193.413 271.841C193.548 271.772 193.659 271.672 193.746 271.542C193.836 271.409 193.894 271.249 193.922 271.064H195.304C195.281 271.467 195.171 271.823 194.974 272.13C194.779 272.435 194.51 272.673 194.166 272.845C193.822 273.017 193.415 273.103 192.945 273.103ZM197.749 273.1C197.412 273.1 197.111 273.041 196.848 272.924C196.584 272.805 196.375 272.63 196.222 272.398C196.07 272.164 195.995 271.873 195.995 271.525C195.995 271.231 196.049 270.985 196.156 270.785C196.264 270.586 196.411 270.425 196.597 270.304C196.782 270.182 196.993 270.09 197.23 270.028C197.468 269.966 197.718 269.923 197.979 269.898C198.287 269.866 198.534 269.836 198.722 269.808C198.91 269.778 199.047 269.735 199.131 269.678C199.216 269.62 199.259 269.535 199.259 269.423V269.402C199.259 269.185 199.19 269.016 199.052 268.897C198.917 268.778 198.724 268.718 198.475 268.718C198.211 268.718 198.001 268.776 197.845 268.893C197.689 269.008 197.586 269.152 197.536 269.327L196.18 269.217C196.249 268.896 196.385 268.618 196.586 268.384C196.788 268.148 197.048 267.967 197.367 267.841C197.688 267.713 198.06 267.648 198.481 267.648C198.775 267.648 199.056 267.683 199.324 267.752C199.595 267.82 199.834 267.927 200.043 268.071C200.254 268.216 200.42 268.402 200.542 268.629C200.663 268.853 200.724 269.123 200.724 269.437V273H199.334V272.267H199.293C199.208 272.433 199.095 272.578 198.953 272.704C198.81 272.828 198.64 272.925 198.44 272.997C198.241 273.065 198.01 273.1 197.749 273.1ZM198.168 272.089C198.384 272.089 198.574 272.046 198.739 271.961C198.904 271.874 199.034 271.757 199.128 271.61C199.222 271.464 199.269 271.298 199.269 271.112V270.551C199.223 270.581 199.16 270.608 199.08 270.634C199.002 270.657 198.914 270.678 198.815 270.699C198.716 270.717 198.618 270.735 198.519 270.751C198.421 270.764 198.331 270.777 198.251 270.788C198.079 270.814 197.929 270.854 197.8 270.909C197.672 270.964 197.572 271.038 197.501 271.132C197.43 271.224 197.395 271.339 197.395 271.476C197.395 271.676 197.467 271.828 197.611 271.934C197.758 272.037 197.944 272.089 198.168 272.089ZM204.671 267.717V268.818H201.489V267.717H204.671ZM202.211 266.451H203.677V271.377C203.677 271.512 203.697 271.617 203.739 271.693C203.78 271.766 203.837 271.818 203.91 271.848C203.986 271.878 204.073 271.893 204.172 271.893C204.241 271.893 204.309 271.887 204.378 271.875C204.447 271.862 204.5 271.851 204.536 271.844L204.767 272.935C204.694 272.958 204.59 272.984 204.457 273.014C204.324 273.046 204.163 273.065 203.972 273.072C203.619 273.086 203.31 273.039 203.044 272.931C202.78 272.823 202.575 272.656 202.428 272.429C202.281 272.202 202.209 271.915 202.211 271.569V266.451ZM205.625 273V267.717H207.09V273H205.625ZM206.361 267.036C206.143 267.036 205.956 266.964 205.8 266.819C205.647 266.673 205.57 266.497 205.57 266.293C205.57 266.091 205.647 265.918 205.8 265.774C205.956 265.627 206.143 265.554 206.361 265.554C206.579 265.554 206.765 265.627 206.918 265.774C207.074 265.918 207.152 266.091 207.152 266.293C207.152 266.497 207.074 266.673 206.918 266.819C206.765 266.964 206.579 267.036 206.361 267.036ZM210.651 273.103C210.117 273.103 209.655 272.99 209.265 272.763C208.877 272.533 208.578 272.215 208.367 271.807C208.156 271.396 208.051 270.92 208.051 270.379C208.051 269.833 208.156 269.357 208.367 268.948C208.578 268.538 208.877 268.219 209.265 267.992C209.655 267.763 210.117 267.648 210.651 267.648C211.185 267.648 211.646 267.763 212.033 267.992C212.423 268.219 212.724 268.538 212.935 268.948C213.145 269.357 213.251 269.833 213.251 270.379C213.251 270.92 213.145 271.396 212.935 271.807C212.724 272.215 212.423 272.533 212.033 272.763C211.646 272.99 211.185 273.103 210.651 273.103ZM210.658 271.968C210.901 271.968 211.104 271.899 211.266 271.762C211.429 271.622 211.552 271.432 211.634 271.191C211.719 270.95 211.762 270.676 211.762 270.369C211.762 270.062 211.719 269.788 211.634 269.547C211.552 269.306 211.429 269.116 211.266 268.976C211.104 268.836 210.901 268.766 210.658 268.766C210.412 268.766 210.206 268.836 210.039 268.976C209.873 269.116 209.749 269.306 209.664 269.547C209.581 269.788 209.54 270.062 209.54 270.369C209.54 270.676 209.581 270.95 209.664 271.191C209.749 271.432 209.873 271.622 210.039 271.762C210.206 271.899 210.412 271.968 210.658 271.968ZM215.669 269.946V273H214.204V267.717H215.6V268.649H215.662C215.779 268.342 215.975 268.099 216.25 267.92C216.525 267.739 216.859 267.648 217.251 267.648C217.618 267.648 217.938 267.729 218.211 267.889C218.483 268.05 218.695 268.279 218.847 268.577C218.998 268.873 219.074 269.226 219.074 269.636V273H217.609V269.898C217.611 269.574 217.528 269.322 217.361 269.141C217.194 268.958 216.963 268.866 216.67 268.866C216.473 268.866 216.298 268.908 216.147 268.993C215.998 269.078 215.881 269.202 215.796 269.365C215.714 269.525 215.671 269.719 215.669 269.946Z" fill="#333333"/>
<path d="M200.675 207.718V200.446H205.064V201.227H201.556V203.684H204.837V204.465H201.556V206.937H205.121V207.718H200.675ZM207.163 202.264L208.47 204.494L209.777 202.264H210.743L208.981 204.991L210.743 207.718H209.777L208.47 205.602L207.163 207.718H206.197L207.93 204.991L206.197 202.264H207.163ZM214.311 202.264V202.974H211.484V202.264H214.311ZM212.308 200.957H213.146V206.156C213.146 206.392 213.18 206.57 213.249 206.688C213.32 206.804 213.41 206.883 213.519 206.923C213.63 206.961 213.747 206.98 213.87 206.98C213.963 206.98 214.038 206.975 214.097 206.965C214.157 206.954 214.204 206.944 214.24 206.937L214.41 207.69C214.353 207.711 214.274 207.732 214.172 207.754C214.07 207.777 213.941 207.789 213.785 207.789C213.548 207.789 213.316 207.738 213.089 207.637C212.864 207.535 212.677 207.38 212.528 207.171C212.381 206.963 212.308 206.7 212.308 206.383V200.957ZM217.8 207.832C217.274 207.832 216.821 207.716 216.439 207.484C216.061 207.249 215.768 206.923 215.562 206.504C215.359 206.082 215.257 205.592 215.257 205.034C215.257 204.475 215.359 203.982 215.562 203.556C215.768 203.128 216.055 202.794 216.422 202.555C216.791 202.313 217.222 202.193 217.714 202.193C217.998 202.193 218.279 202.24 218.556 202.335C218.833 202.429 219.085 202.583 219.312 202.796C219.54 203.007 219.721 203.286 219.856 203.634C219.991 203.982 220.058 204.411 220.058 204.92V205.275H215.854V204.551H219.206C219.206 204.243 219.144 203.968 219.021 203.727C218.9 203.485 218.728 203.295 218.503 203.155C218.28 203.015 218.017 202.946 217.714 202.946C217.381 202.946 217.092 203.028 216.848 203.194C216.606 203.357 216.421 203.571 216.29 203.833C216.16 204.096 216.095 204.378 216.095 204.678V205.161C216.095 205.573 216.166 205.923 216.308 206.209C216.452 206.493 216.653 206.71 216.908 206.859C217.164 207.006 217.461 207.079 217.8 207.079C218.02 207.079 218.219 207.048 218.396 206.987C218.576 206.923 218.731 206.828 218.861 206.703C218.992 206.575 219.092 206.416 219.163 206.227L219.973 206.454C219.888 206.729 219.744 206.97 219.543 207.178C219.342 207.384 219.093 207.545 218.797 207.661C218.501 207.775 218.169 207.832 217.8 207.832ZM222.171 204.437V207.718H221.333V202.264H222.143V203.116H222.214C222.341 202.839 222.536 202.616 222.796 202.448C223.056 202.278 223.393 202.193 223.805 202.193C224.174 202.193 224.497 202.268 224.774 202.42C225.051 202.569 225.266 202.796 225.42 203.102C225.574 203.405 225.651 203.788 225.651 204.252V207.718H224.813V204.309C224.813 203.881 224.702 203.547 224.479 203.308C224.257 203.066 223.951 202.946 223.563 202.946C223.296 202.946 223.056 203.004 222.846 203.12C222.637 203.236 222.473 203.405 222.352 203.627C222.231 203.85 222.171 204.12 222.171 204.437ZM229.242 207.832C228.788 207.832 228.386 207.717 228.038 207.487C227.69 207.255 227.418 206.929 227.222 206.507C227.025 206.084 226.927 205.583 226.927 205.005C226.927 204.432 227.025 203.935 227.222 203.514C227.418 203.092 227.692 202.767 228.042 202.537C228.392 202.307 228.797 202.193 229.256 202.193C229.612 202.193 229.892 202.252 230.098 202.37C230.306 202.486 230.465 202.619 230.574 202.768C230.685 202.915 230.772 203.035 230.833 203.13H230.904V200.446H231.742V207.718H230.933V206.88H230.833C230.772 206.98 230.684 207.105 230.57 207.257C230.457 207.406 230.295 207.54 230.084 207.658C229.873 207.774 229.593 207.832 229.242 207.832ZM229.356 207.079C229.692 207.079 229.976 206.991 230.208 206.816C230.44 206.639 230.616 206.394 230.737 206.081C230.858 205.766 230.918 205.403 230.918 204.991C230.918 204.584 230.859 204.227 230.741 203.922C230.622 203.614 230.447 203.375 230.215 203.205C229.983 203.032 229.697 202.946 229.356 202.946C229.001 202.946 228.705 203.037 228.468 203.219C228.234 203.399 228.057 203.644 227.939 203.954C227.823 204.262 227.765 204.607 227.765 204.991C227.765 205.379 227.824 205.732 227.942 206.049C228.063 206.364 228.241 206.615 228.475 206.802C228.712 206.987 229.005 207.079 229.356 207.079ZM237.257 203.485L236.504 203.698C236.457 203.573 236.387 203.451 236.295 203.333C236.205 203.212 236.082 203.112 235.925 203.034C235.769 202.956 235.569 202.917 235.325 202.917C234.991 202.917 234.713 202.994 234.491 203.148C234.271 203.299 234.161 203.492 234.161 203.727C234.161 203.935 234.236 204.1 234.388 204.22C234.539 204.341 234.776 204.442 235.098 204.522L235.908 204.721C236.395 204.839 236.759 205.021 236.998 205.264C237.237 205.506 237.357 205.817 237.357 206.198C237.357 206.511 237.267 206.79 237.087 207.036C236.909 207.283 236.661 207.477 236.341 207.619C236.021 207.761 235.65 207.832 235.226 207.832C234.67 207.832 234.209 207.711 233.844 207.47C233.48 207.228 233.249 206.875 233.152 206.411L233.947 206.213C234.023 206.506 234.166 206.726 234.377 206.873C234.59 207.02 234.868 207.093 235.212 207.093C235.602 207.093 235.912 207.01 236.142 206.845C236.374 206.677 236.49 206.475 236.49 206.241C236.49 206.052 236.424 205.893 236.291 205.765C236.159 205.635 235.955 205.538 235.68 205.474L234.771 205.261C234.272 205.142 233.905 204.959 233.67 204.71C233.438 204.459 233.322 204.146 233.322 203.769C233.322 203.462 233.409 203.189 233.582 202.953C233.757 202.716 233.995 202.53 234.295 202.395C234.598 202.26 234.942 202.193 235.325 202.193C235.865 202.193 236.289 202.311 236.597 202.548C236.907 202.785 237.127 203.097 237.257 203.485Z" fill="#333333"/>
<path d="M124.104 23.5692V23.001L128.677 20.6715V21.5806L125.169 23.2709L125.197 23.2141V23.3561L125.169 23.2993L128.677 24.9896V25.8987L124.104 23.5692ZM130.695 23.5692V23.001L135.269 20.6715V21.5806L131.761 23.2709L131.789 23.2141V23.3561L131.761 23.2993L135.269 24.9896V25.8987L130.695 23.5692ZM137.046 26.126V20.6715H137.884V26.126H137.046ZM137.472 19.7624C137.309 19.7624 137.168 19.7067 137.049 19.5955C136.933 19.4842 136.875 19.3504 136.875 19.1942C136.875 19.0379 136.933 18.9042 137.049 18.7929C137.168 18.6816 137.309 18.626 137.472 18.626C137.635 18.626 137.775 18.6816 137.891 18.7929C138.009 18.9042 138.068 19.0379 138.068 19.1942C138.068 19.3504 138.009 19.4842 137.891 19.5955C137.775 19.7067 137.635 19.7624 137.472 19.7624ZM140.257 22.8448V26.126H139.419V20.6715H140.228V21.5237H140.299C140.427 21.2467 140.621 21.0242 140.882 20.8561C141.142 20.6857 141.478 20.6004 141.89 20.6004C142.26 20.6004 142.583 20.6762 142.86 20.8277C143.137 20.9769 143.352 21.2041 143.506 21.5095C143.66 21.8126 143.737 22.1961 143.737 22.6601V26.126H142.899V22.7169C142.899 22.2884 142.788 21.9546 142.565 21.7155C142.343 21.474 142.037 21.3533 141.649 21.3533C141.381 21.3533 141.142 21.4113 140.932 21.5273C140.723 21.6433 140.559 21.8126 140.438 22.0351C140.317 22.2576 140.257 22.5275 140.257 22.8448ZM147.484 26.2396C146.973 26.2396 146.533 26.1189 146.163 25.8774C145.794 25.636 145.51 25.3033 145.311 24.8796C145.112 24.4558 145.013 23.9717 145.013 23.4271C145.013 22.8732 145.115 22.3843 145.318 21.9605C145.524 21.5344 145.811 21.2018 146.177 20.9627C146.547 20.7212 146.978 20.6004 147.47 20.6004C147.854 20.6004 148.199 20.6715 148.507 20.8135C148.815 20.9556 149.067 21.1544 149.263 21.4101C149.46 21.6658 149.582 21.9641 149.629 22.305H148.791C148.727 22.0564 148.585 21.8362 148.365 21.6445C148.147 21.4503 147.854 21.3533 147.484 21.3533C147.158 21.3533 146.871 21.4385 146.625 21.609C146.381 21.777 146.191 22.015 146.053 22.3227C145.918 22.6281 145.851 22.9868 145.851 23.3987C145.851 23.8201 145.917 24.1871 146.05 24.4996C146.185 24.8121 146.374 25.0547 146.618 25.2276C146.864 25.4004 147.153 25.4868 147.484 25.4868C147.702 25.4868 147.9 25.4489 148.077 25.3732C148.255 25.2974 148.405 25.1885 148.528 25.0465C148.651 24.9044 148.739 24.734 148.791 24.5351H149.629C149.582 24.8571 149.465 25.1471 149.278 25.4051C149.093 25.6608 148.848 25.8644 148.543 26.0159C148.24 26.1651 147.887 26.2396 147.484 26.2396ZM151.692 18.8533V26.126H150.854V18.8533H151.692ZM156.665 23.8959V20.6715H157.503V26.126H156.665V25.2027H156.608C156.48 25.4797 156.281 25.7153 156.011 25.9094C155.742 26.1011 155.401 26.197 154.989 26.197C154.648 26.197 154.345 26.1225 154.08 25.9733C153.815 25.8218 153.606 25.5945 153.455 25.2915C153.303 24.9861 153.227 24.6014 153.227 24.1374V20.6715H154.065V24.0806C154.065 24.4783 154.177 24.7955 154.399 25.0323C154.624 25.269 154.911 25.3874 155.259 25.3874C155.467 25.3874 155.679 25.3341 155.894 25.2276C156.112 25.121 156.294 24.9577 156.441 24.7375C156.59 24.5173 156.665 24.2368 156.665 23.8959ZM161.098 26.2396C160.643 26.2396 160.242 26.1248 159.894 25.8952C159.546 25.6632 159.273 25.3365 159.077 24.9151C158.881 24.4913 158.782 23.9906 158.782 23.4129C158.782 22.84 158.881 22.3429 159.077 21.9215C159.273 21.5001 159.547 21.1745 159.897 20.9449C160.248 20.7153 160.653 20.6004 161.112 20.6004C161.467 20.6004 161.747 20.6596 161.953 20.778C162.162 20.894 162.32 21.0266 162.429 21.1757C162.541 21.3225 162.627 21.4432 162.689 21.5379H162.76V18.8533H163.598V26.126H162.788V25.2879H162.689C162.627 25.3874 162.539 25.5128 162.426 25.6644C162.312 25.8135 162.15 25.9473 161.939 26.0656C161.729 26.1816 161.448 26.2396 161.098 26.2396ZM161.211 25.4868C161.547 25.4868 161.831 25.3992 162.064 25.224C162.296 25.0465 162.472 24.8014 162.593 24.4889C162.713 24.1741 162.774 23.8107 162.774 23.3987C162.774 22.9915 162.715 22.6352 162.596 22.3298C162.478 22.0221 162.303 21.783 162.071 21.6125C161.839 21.4397 161.552 21.3533 161.211 21.3533C160.856 21.3533 160.56 21.4444 160.323 21.6267C160.089 21.8066 159.913 22.0517 159.794 22.3618C159.678 22.6696 159.62 23.0152 159.62 23.3987C159.62 23.787 159.68 24.1397 159.798 24.457C159.919 24.7718 160.096 25.0228 160.331 25.2098C160.567 25.3945 160.861 25.4868 161.211 25.4868ZM167.536 26.2396C167.01 26.2396 166.557 26.1236 166.176 25.8916C165.797 25.6573 165.505 25.3306 165.299 24.9115C165.095 24.4901 164.993 24.0001 164.993 23.4413C164.993 22.8826 165.095 22.3902 165.299 21.9641C165.505 21.5356 165.791 21.2018 166.158 20.9627C166.527 20.7212 166.958 20.6004 167.451 20.6004C167.735 20.6004 168.015 20.6478 168.292 20.7425C168.569 20.8372 168.821 20.9911 169.049 21.2041C169.276 21.4148 169.457 21.6942 169.592 22.0422C169.727 22.3902 169.794 22.8187 169.794 23.3277V23.6828H165.59V22.9584H168.942C168.942 22.6506 168.881 22.376 168.757 22.1345C168.637 21.8931 168.464 21.7025 168.239 21.5628C168.016 21.4231 167.754 21.3533 167.451 21.3533C167.117 21.3533 166.828 21.4361 166.584 21.6019C166.343 21.7652 166.157 21.9783 166.027 22.2411C165.896 22.5038 165.831 22.7856 165.831 23.0862V23.5692C165.831 23.9811 165.902 24.3303 166.044 24.6168C166.189 24.9009 166.389 25.1175 166.644 25.2666C166.9 25.4134 167.197 25.4868 167.536 25.4868C167.756 25.4868 167.955 25.456 168.132 25.3945C168.312 25.3306 168.467 25.2359 168.598 25.1104C168.728 24.9825 168.828 24.8239 168.899 24.6345L169.709 24.8618C169.624 25.1364 169.481 25.3779 169.279 25.5862C169.078 25.7922 168.83 25.9532 168.534 26.0692C168.238 26.1828 167.905 26.2396 167.536 26.2396ZM175.885 23.5692L171.311 25.8987V24.9896L174.819 23.2993L174.791 23.3561V23.2141L174.819 23.2709L171.311 21.5806V20.6715L175.885 23.001V23.5692ZM182.476 23.5692L177.902 25.8987V24.9896L181.411 23.2993L181.383 23.3561V23.2141L181.411 23.2709L177.902 21.5806V20.6715L182.476 23.001V23.5692Z" fill="#333333"/>
<path d="M233.437 83.0212V82.453L238.01 80.1235V81.0325L234.502 82.7229L234.53 82.6661V82.8081L234.502 82.7513L238.01 84.4416V85.3507L233.437 83.0212ZM240.028 83.0212V82.453L244.602 80.1235V81.0325L241.094 82.7229L241.122 82.6661V82.8081L241.094 82.7513L244.602 84.4416V85.3507L240.028 83.0212ZM246.379 85.578V80.1235H247.217V85.578H246.379ZM246.805 79.2144C246.641 79.2144 246.501 79.1587 246.382 79.0475C246.266 78.9362 246.208 78.8024 246.208 78.6462C246.208 78.4899 246.266 78.3562 246.382 78.2449C246.501 78.1336 246.641 78.078 246.805 78.078C246.968 78.078 247.108 78.1336 247.224 78.2449C247.342 78.3562 247.401 78.4899 247.401 78.6462C247.401 78.8024 247.342 78.9362 247.224 79.0475C247.108 79.1587 246.968 79.2144 246.805 79.2144ZM249.59 82.2968V85.578H248.752V80.1235H249.561V80.9757H249.632C249.76 80.6987 249.954 80.4762 250.215 80.3081C250.475 80.1377 250.811 80.0524 251.223 80.0524C251.593 80.0524 251.916 80.1282 252.193 80.2797C252.47 80.4289 252.685 80.6561 252.839 80.9615C252.993 81.2646 253.07 81.6481 253.07 82.1121V85.578H252.232V82.1689C252.232 81.7404 252.121 81.4066 251.898 81.1675C251.675 80.926 251.37 80.8053 250.982 80.8053C250.714 80.8053 250.475 80.8633 250.264 80.9793C250.056 81.0953 249.892 81.2646 249.771 81.4871C249.65 81.7096 249.59 81.9795 249.59 82.2968ZM256.817 85.6916C256.306 85.6916 255.866 85.5709 255.496 85.3294C255.127 85.0879 254.843 84.7553 254.644 84.3316C254.445 83.9078 254.346 83.4236 254.346 82.8791C254.346 82.3252 254.447 81.8363 254.651 81.4125C254.857 80.9864 255.143 80.6538 255.51 80.4147C255.88 80.1732 256.311 80.0524 256.803 80.0524C257.187 80.0524 257.532 80.1235 257.84 80.2655C258.148 80.4075 258.4 80.6064 258.596 80.8621C258.793 81.1178 258.915 81.4161 258.962 81.757H258.124C258.06 81.5084 257.918 81.2882 257.698 81.0965C257.48 80.9023 257.187 80.8053 256.817 80.8053C256.491 80.8053 256.204 80.8905 255.958 81.061C255.714 81.229 255.523 81.467 255.386 81.7747C255.251 82.0801 255.184 82.4388 255.184 82.8507C255.184 83.2721 255.25 83.6391 255.383 83.9516C255.517 84.2641 255.707 84.5067 255.951 84.6796C256.197 84.8524 256.486 84.9388 256.817 84.9388C257.035 84.9388 257.233 84.9009 257.41 84.8252C257.588 84.7494 257.738 84.6405 257.861 84.4985C257.984 84.3564 258.072 84.186 258.124 83.9871H258.962C258.915 84.3091 258.798 84.5991 258.611 84.8571C258.426 85.1128 258.181 85.3164 257.875 85.4679C257.572 85.6171 257.22 85.6916 256.817 85.6916ZM261.025 78.3053V85.578H260.187V78.3053H261.025ZM265.998 83.3479V80.1235H266.836V85.578H265.998V84.6547H265.941C265.813 84.9317 265.614 85.1673 265.344 85.3614C265.074 85.5531 264.734 85.649 264.322 85.649C263.981 85.649 263.678 85.5745 263.413 85.4253C263.147 85.2738 262.939 85.0465 262.788 84.7435C262.636 84.4381 262.56 84.0534 262.56 83.5894V80.1235H263.398V83.5325C263.398 83.9303 263.51 84.2475 263.732 84.4843C263.957 84.721 264.244 84.8394 264.592 84.8394C264.8 84.8394 265.012 84.7861 265.227 84.6796C265.445 84.573 265.627 84.4097 265.774 84.1895C265.923 83.9693 265.998 83.6888 265.998 83.3479ZM270.43 85.6916C269.976 85.6916 269.575 85.5768 269.227 85.3472C268.879 85.1152 268.606 84.7885 268.41 84.3671C268.213 83.9433 268.115 83.4426 268.115 82.8649C268.115 82.292 268.213 81.7949 268.41 81.3735C268.606 80.9521 268.88 80.6265 269.23 80.3969C269.581 80.1673 269.985 80.0524 270.445 80.0524C270.8 80.0524 271.08 80.1116 271.286 80.23C271.495 80.346 271.653 80.4786 271.762 80.6277C271.873 80.7745 271.96 80.8952 272.021 80.9899H272.092V78.3053H272.93V85.578H272.121V84.7399H272.021C271.96 84.8394 271.872 84.9648 271.759 85.1164C271.645 85.2655 271.483 85.3993 271.272 85.5176C271.061 85.6336 270.781 85.6916 270.43 85.6916ZM270.544 84.9388C270.88 84.9388 271.164 84.8512 271.396 84.676C271.628 84.4985 271.805 84.2534 271.926 83.9409C272.046 83.6261 272.107 83.2627 272.107 82.8507C272.107 82.4435 272.047 82.0872 271.929 81.7818C271.811 81.4741 271.636 81.235 271.404 81.0645C271.171 80.8917 270.885 80.8053 270.544 80.8053C270.189 80.8053 269.893 80.8964 269.656 81.0787C269.422 81.2586 269.246 81.5037 269.127 81.8138C269.011 82.1216 268.953 82.4672 268.953 82.8507C268.953 83.239 269.012 83.5917 269.131 83.909C269.252 84.2238 269.429 84.4748 269.663 84.6618C269.9 84.8465 270.194 84.9388 270.544 84.9388ZM276.869 85.6916C276.343 85.6916 275.89 85.5756 275.509 85.3436C275.13 85.1093 274.837 84.7825 274.631 84.3635C274.428 83.9421 274.326 83.4521 274.326 82.8933C274.326 82.3346 274.428 81.8422 274.631 81.4161C274.837 80.9876 275.124 80.6538 275.491 80.4147C275.86 80.1732 276.291 80.0524 276.783 80.0524C277.068 80.0524 277.348 80.0998 277.625 80.1945C277.902 80.2892 278.154 80.4431 278.381 80.6561C278.609 80.8668 278.79 81.1462 278.925 81.4942C279.06 81.8422 279.127 82.2707 279.127 82.7797V83.1348H274.923V82.4104H278.275C278.275 82.1026 278.213 81.828 278.09 81.5865C277.97 81.345 277.797 81.1545 277.572 81.0148C277.349 80.8751 277.087 80.8053 276.783 80.8053C276.45 80.8053 276.161 80.8881 275.917 81.0539C275.676 81.2172 275.49 81.4303 275.359 81.6931C275.229 81.9558 275.164 82.2376 275.164 82.5382V83.0212C275.164 83.4331 275.235 83.7823 275.377 84.0688C275.522 84.3529 275.722 84.5695 275.977 84.7186C276.233 84.8654 276.53 84.9388 276.869 84.9388C277.089 84.9388 277.288 84.908 277.465 84.8465C277.645 84.7825 277.8 84.6879 277.93 84.5624C278.061 84.4345 278.161 84.2759 278.232 84.0865L279.042 84.3138C278.957 84.5884 278.814 84.8299 278.612 85.0382C278.411 85.2442 278.163 85.4052 277.867 85.5212C277.571 85.6348 277.238 85.6916 276.869 85.6916ZM285.217 83.0212L280.644 85.3507V84.4416L284.152 82.7513L284.124 82.8081V82.6661L284.152 82.7229L280.644 81.0325V80.1235L285.217 82.453V83.0212ZM291.809 83.0212L287.235 85.3507V84.4416L290.744 82.7513L290.715 82.8081V82.6661L290.744 82.7229L287.235 81.0325V80.1235L291.809 82.453V83.0212Z" fill="#333333"/>
<path d="M298.64 209.816V202.544H303.029V203.325H299.52V205.782H302.802V206.564H299.52V209.035H303.086V209.816H298.64ZM305.128 204.362L306.434 206.592L307.741 204.362H308.707L306.946 207.089L308.707 209.816H307.741L306.434 207.7L305.128 209.816H304.162L305.895 207.089L304.162 204.362H305.128ZM312.275 204.362V205.072H309.449V204.362H312.275ZM310.272 203.055H311.11V208.254C311.11 208.491 311.145 208.668 311.213 208.787C311.284 208.903 311.374 208.981 311.483 209.021C311.595 209.059 311.712 209.078 311.835 209.078C311.927 209.078 312.003 209.073 312.062 209.064C312.121 209.052 312.169 209.042 312.204 209.035L312.375 209.788C312.318 209.809 312.239 209.831 312.137 209.852C312.035 209.876 311.906 209.887 311.75 209.887C311.513 209.887 311.281 209.837 311.054 209.735C310.829 209.633 310.642 209.478 310.493 209.27C310.346 209.061 310.272 208.798 310.272 208.481V203.055ZM315.764 209.93C315.239 209.93 314.785 209.814 314.404 209.582C314.025 209.348 313.733 209.021 313.527 208.602C313.323 208.181 313.222 207.69 313.222 207.132C313.222 206.573 313.323 206.081 313.527 205.654C313.733 205.226 314.019 204.892 314.386 204.653C314.756 204.412 315.187 204.291 315.679 204.291C315.963 204.291 316.244 204.338 316.521 204.433C316.798 204.528 317.05 204.681 317.277 204.895C317.504 205.105 317.685 205.385 317.82 205.733C317.955 206.081 318.023 206.509 318.023 207.018V207.373H313.818V206.649H317.17C317.17 206.341 317.109 206.066 316.986 205.825C316.865 205.583 316.692 205.393 316.467 205.253C316.245 205.114 315.982 205.044 315.679 205.044C315.345 205.044 315.056 205.127 314.813 205.292C314.571 205.456 314.385 205.669 314.255 205.931C314.125 206.194 314.06 206.476 314.06 206.777V207.26C314.06 207.672 314.131 208.021 314.273 208.307C314.417 208.591 314.617 208.808 314.873 208.957C315.129 209.104 315.426 209.177 315.764 209.177C315.984 209.177 316.183 209.146 316.361 209.085C316.541 209.021 316.696 208.926 316.826 208.801C316.956 208.673 317.057 208.514 317.128 208.325L317.938 208.552C317.852 208.827 317.709 209.068 317.508 209.277C317.307 209.483 317.058 209.644 316.762 209.76C316.466 209.873 316.134 209.93 315.764 209.93ZM320.136 206.535V209.816H319.298V204.362H320.107V205.214H320.178C320.306 204.937 320.5 204.715 320.761 204.547C321.021 204.376 321.357 204.291 321.769 204.291C322.139 204.291 322.462 204.367 322.739 204.518C323.016 204.667 323.231 204.895 323.385 205.2C323.539 205.503 323.616 205.886 323.616 206.35V209.816H322.778V206.407C322.778 205.979 322.666 205.645 322.444 205.406C322.221 205.164 321.916 205.044 321.528 205.044C321.26 205.044 321.021 205.102 320.81 205.218C320.602 205.334 320.438 205.503 320.317 205.725C320.196 205.948 320.136 206.218 320.136 206.535ZM327.207 209.93C326.752 209.93 326.351 209.815 326.003 209.586C325.655 209.354 325.383 209.027 325.186 208.605C324.99 208.182 324.892 207.681 324.892 207.103C324.892 206.53 324.99 206.033 325.186 205.612C325.383 205.19 325.656 204.865 326.007 204.635C326.357 204.406 326.762 204.291 327.221 204.291C327.576 204.291 327.857 204.35 328.063 204.468C328.271 204.584 328.43 204.717 328.539 204.866C328.65 205.013 328.736 205.134 328.798 205.228H328.869V202.544H329.707V209.816H328.897V208.978H328.798C328.736 209.078 328.649 209.203 328.535 209.355C328.421 209.504 328.259 209.638 328.048 209.756C327.838 209.872 327.557 209.93 327.207 209.93ZM327.32 209.177C327.657 209.177 327.941 209.09 328.173 208.914C328.405 208.737 328.581 208.492 328.702 208.179C328.823 207.864 328.883 207.501 328.883 207.089C328.883 206.682 328.824 206.326 328.705 206.02C328.587 205.712 328.412 205.473 328.18 205.303C327.948 205.13 327.661 205.044 327.32 205.044C326.965 205.044 326.669 205.135 326.433 205.317C326.198 205.497 326.022 205.742 325.904 206.052C325.788 206.36 325.73 206.706 325.73 207.089C325.73 207.477 325.789 207.83 325.907 208.147C326.028 208.462 326.205 208.713 326.44 208.9C326.677 209.085 326.97 209.177 327.32 209.177ZM335.222 205.583L334.469 205.797C334.422 205.671 334.352 205.549 334.259 205.431C334.169 205.31 334.046 205.211 333.89 205.132C333.734 205.054 333.534 205.015 333.29 205.015C332.956 205.015 332.678 205.092 332.455 205.246C332.235 205.398 332.125 205.591 332.125 205.825C332.125 206.033 332.201 206.198 332.352 206.319C332.504 206.439 332.741 206.54 333.063 206.62L333.872 206.819C334.36 206.938 334.723 207.119 334.963 207.363C335.202 207.604 335.321 207.915 335.321 208.297C335.321 208.609 335.231 208.888 335.051 209.135C334.874 209.381 334.625 209.575 334.306 209.717C333.986 209.859 333.614 209.93 333.191 209.93C332.634 209.93 332.174 209.809 331.809 209.568C331.445 209.326 331.214 208.974 331.117 208.51L331.912 208.311C331.988 208.604 332.131 208.824 332.342 208.971C332.555 209.118 332.833 209.191 333.176 209.191C333.567 209.191 333.877 209.109 334.107 208.943C334.339 208.775 334.455 208.574 334.455 208.339C334.455 208.15 334.388 207.991 334.256 207.863C334.123 207.733 333.92 207.636 333.645 207.572L332.736 207.359C332.236 207.241 331.87 207.057 331.635 206.809C331.403 206.558 331.287 206.244 331.287 205.868C331.287 205.56 331.374 205.288 331.546 205.051C331.722 204.814 331.959 204.628 332.26 204.493C332.563 204.358 332.906 204.291 333.29 204.291C333.83 204.291 334.254 204.409 334.561 204.646C334.871 204.883 335.092 205.195 335.222 205.583Z" fill="#333333"/>
<path d="M194.206 243.567L213.85 211.388" stroke="black"/>
<path d="M324.031 244.775L316.753 214.174" stroke="black"/>
<path d="M304.104 169.451L302.691 175.168L308.178 173.374L304.104 169.451ZM313.741 202.485L305.777 173.633L304.826 173.944L312.791 202.795L313.741 202.485Z" fill="black"/>
<path d="M293.306 112.502L296.821 107.999L291.119 107.094L293.306 112.502ZM299.798 60.2956L293.41 107.964L294.398 108.12L300.786 60.4524L299.798 60.2956Z" fill="black"/>
<path d="M244.404 161.372L239.425 163.876L244.052 167.329L244.404 161.372ZM220.853 199.681L242.406 165.478L241.604 164.88L220.051 199.083L220.853 199.681Z" fill="black"/>
<path fill-rule="evenodd" clip-rule="evenodd" d="M136.62 43.541L256.38 43.541L256.38 40.9489L261.37 44.084L256.38 47.219L256.38 44.627L137.618 44.627L137.618 67.976L29.834 67.976L29.834 66.89L136.62 66.89L136.62 43.541Z" fill="black"/>
<path d="M12.351 52.3398C16.3752 52.3398 19.6374 48.7899 19.6374 44.4109C19.6374 40.0319 16.3752 36.482 12.351 36.482C8.32687 36.482 5.06464 40.0319 5.06464 44.4109C5.06464 48.7899 8.32687 52.3398 12.351 52.3398Z" stroke="black"/>
<path d="M12.5496 52.5993L13.0237 79.7634L2.5916 99.6383" stroke="black"/>
<path d="M13.2073 79.694L23.7302 97.7237" stroke="black"/>
<path d="M0.891998 60.2024L23.9538 60.4468" stroke="black"/>
</svg>
