<svg width="392" height="308" viewBox="0 0 392 308" fill="none" xmlns="http://www.w3.org/2000/svg">
<path d="M391.174 1.0773H120.841V307.143H391.174V1.0773Z" stroke="black"/>
<path d="M307.842 60.3816C330.737 60.3816 349.297 51.7872 349.297 41.1855C349.297 30.5837 330.737 21.9893 307.842 21.9893C284.947 21.9893 266.387 30.5837 266.387 41.1855C266.387 51.7872 284.947 60.3816 307.842 60.3816Z" stroke="black"/>
<path d="M288.732 171.078C317.634 171.078 341.064 157.9 341.064 141.644C341.064 125.388 317.634 112.21 288.732 112.21C259.83 112.21 236.4 125.388 236.4 141.644C236.4 157.9 259.83 171.078 288.732 171.078Z" stroke="black"/>
<path d="M326.07 286.892C350.589 286.892 370.464 277.438 370.464 265.777C370.464 254.115 350.589 244.662 326.07 244.662C301.552 244.662 281.676 254.115 281.676 265.777C281.676 277.438 301.552 286.892 326.07 286.892Z" stroke="black"/>
<path d="M194.945 285.432C219.463 285.432 239.339 275.979 239.339 264.317C239.339 252.656 219.463 243.202 194.945 243.202C170.427 243.202 150.551 252.656 150.551 264.317C150.551 275.979 170.427 285.432 194.945 285.432Z" stroke="black"/>
<path d="M294.264 43.0254V35.5815H295.837V41.7278H299.029V43.0254H294.264ZM302.564 43.1345C302 43.1345 301.511 43.0145 301.1 42.7746C300.69 42.5323 300.374 42.1955 300.151 41.7642C299.928 41.3304 299.817 40.8276 299.817 40.2558C299.817 39.6791 299.928 39.1751 300.151 38.7437C300.374 38.31 300.69 37.9732 301.1 37.7333C301.511 37.491 302 37.3698 302.564 37.3698C303.129 37.3698 303.616 37.491 304.025 37.7333C304.437 37.9732 304.755 38.31 304.978 38.7437C305.201 39.1751 305.312 39.6791 305.312 40.2558C305.312 40.8276 305.201 41.3304 304.978 41.7642C304.755 42.1955 304.437 42.5323 304.025 42.7746C303.616 43.0145 303.129 43.1345 302.564 43.1345ZM302.572 41.935C302.828 41.935 303.043 41.8623 303.215 41.7169C303.387 41.5691 303.517 41.368 303.604 41.1136C303.694 40.8591 303.738 40.5696 303.738 40.2449C303.738 39.9202 303.694 39.6306 303.604 39.3762C303.517 39.1217 303.387 38.9206 303.215 38.7728C303.043 38.625 302.828 38.5511 302.572 38.5511C302.312 38.5511 302.094 38.625 301.917 38.7728C301.743 38.9206 301.611 39.1217 301.521 39.3762C301.434 39.6306 301.39 39.9202 301.39 40.2449C301.39 40.5696 301.434 40.8591 301.521 41.1136C301.611 41.368 301.743 41.5691 301.917 41.7169C302.094 41.8623 302.312 41.935 302.572 41.935ZM308.834 45.2353C308.333 45.2353 307.903 45.1663 307.544 45.0281C307.188 44.8924 306.904 44.7071 306.693 44.472C306.483 44.237 306.346 43.9729 306.283 43.6797L307.715 43.487C307.758 43.5985 307.827 43.7027 307.922 43.7996C308.016 43.8965 308.141 43.9741 308.296 44.0322C308.454 44.0928 308.645 44.1231 308.871 44.1231C309.207 44.1231 309.485 44.0407 309.703 43.8759C309.923 43.7136 310.034 43.441 310.034 43.0581V42.0368H309.968C309.9 42.1919 309.799 42.3385 309.663 42.4766C309.527 42.6147 309.353 42.7274 309.14 42.8146C308.926 42.9018 308.672 42.9455 308.376 42.9455C307.957 42.9455 307.575 42.8485 307.231 42.6547C306.89 42.4584 306.617 42.1591 306.413 41.7569C306.212 41.3522 306.112 40.841 306.112 40.2231C306.112 39.5906 306.215 39.0624 306.421 38.6383C306.627 38.2143 306.901 37.8969 307.242 37.686C307.586 37.4752 307.963 37.3698 308.373 37.3698C308.685 37.3698 308.947 37.4231 309.158 37.5297C309.369 37.6339 309.538 37.7648 309.667 37.9223C309.797 38.0774 309.898 38.23 309.968 38.3803H310.026V37.4425H311.564V43.0799C311.564 43.5549 311.448 43.9523 311.215 44.2721C310.982 44.592 310.66 44.8319 310.248 44.9918C309.839 45.1541 309.367 45.2353 308.834 45.2353ZM308.867 41.7824C309.117 41.7824 309.327 41.7206 309.499 41.597C309.674 41.471 309.807 41.2917 309.899 41.059C309.994 40.824 310.041 40.5429 310.041 40.2158C310.041 39.8887 309.995 39.6052 309.903 39.3653C309.811 39.123 309.677 38.9352 309.503 38.8019C309.329 38.6686 309.117 38.602 308.867 38.602C308.612 38.602 308.398 38.671 308.224 38.8092C308.049 38.9449 307.917 39.1339 307.827 39.3762C307.738 39.6185 307.693 39.8984 307.693 40.2158C307.693 40.5381 307.738 40.8167 307.827 41.0518C307.919 41.2844 308.052 41.4649 308.224 41.5933C308.398 41.7194 308.612 41.7824 308.867 41.7824ZM312.796 43.0254V37.4425H314.344V43.0254H312.796ZM313.574 36.7228C313.344 36.7228 313.146 36.6465 312.981 36.4939C312.819 36.3388 312.738 36.1534 312.738 35.9377C312.738 35.7245 312.819 35.5416 312.981 35.3889C313.146 35.2338 313.344 35.1563 313.574 35.1563C313.804 35.1563 314 35.2338 314.163 35.3889C314.327 35.5416 314.41 35.7245 314.41 35.9377C314.41 36.1534 314.327 36.3388 314.163 36.4939C314 36.6465 313.804 36.7228 313.574 36.7228ZM317.133 39.7978V43.0254H315.585V37.4425H317.06V38.4275H317.126C317.249 38.1028 317.457 37.846 317.747 37.657C318.038 37.4655 318.391 37.3698 318.805 37.3698C319.193 37.3698 319.531 37.4546 319.819 37.6243C320.108 37.7939 320.332 38.0362 320.492 38.3512C320.652 38.6638 320.732 39.0369 320.732 39.4707V43.0254H319.183V39.7469C319.186 39.4053 319.098 39.1387 318.921 38.9473C318.745 38.7534 318.501 38.6565 318.191 38.6565C317.982 38.6565 317.798 38.7013 317.638 38.791C317.481 38.8806 317.357 39.0115 317.268 39.1835C317.18 39.3532 317.136 39.5579 317.133 39.7978Z" fill="#333333"/>
<path d="M254.898 148.717V147.467L259.898 145.265V146.703L256.475 148.077L256.521 148.003V148.18L256.475 148.106L259.898 149.48V150.918L254.898 148.717ZM261.695 148.717V147.467L266.695 145.265V146.703L263.272 148.077L263.318 148.003V148.18L263.272 148.106L266.695 149.48V150.918L261.695 148.717ZM269.753 151.103C269.405 151.103 269.095 151.043 268.822 150.922C268.55 150.799 268.335 150.618 268.176 150.379C268.02 150.137 267.942 149.836 267.942 149.477C267.942 149.174 267.997 148.919 268.109 148.713C268.22 148.507 268.371 148.341 268.563 148.216C268.755 148.09 268.973 147.996 269.217 147.932C269.463 147.868 269.721 147.823 269.991 147.797C270.308 147.764 270.564 147.733 270.758 147.705C270.952 147.674 271.093 147.629 271.18 147.57C271.268 147.51 271.312 147.423 271.312 147.307V147.286C271.312 147.061 271.241 146.887 271.099 146.763C270.959 146.64 270.76 146.579 270.502 146.579C270.23 146.579 270.013 146.639 269.852 146.76C269.691 146.878 269.585 147.027 269.533 147.207L268.134 147.094C268.205 146.762 268.344 146.476 268.553 146.234C268.761 145.991 269.03 145.804 269.359 145.673C269.69 145.541 270.074 145.474 270.509 145.474C270.812 145.474 271.102 145.51 271.379 145.581C271.659 145.652 271.906 145.762 272.121 145.911C272.339 146.06 272.511 146.252 272.636 146.487C272.762 146.719 272.825 146.997 272.825 147.321V151H271.39V150.244H271.347C271.26 150.414 271.143 150.564 270.996 150.695C270.849 150.822 270.673 150.923 270.467 150.996C270.261 151.067 270.023 151.103 269.753 151.103ZM270.186 150.059C270.409 150.059 270.605 150.015 270.776 149.928C270.946 149.838 271.08 149.717 271.177 149.565C271.274 149.414 271.322 149.242 271.322 149.05V148.472C271.275 148.502 271.21 148.531 271.127 148.557C271.047 148.58 270.955 148.603 270.854 148.624C270.752 148.643 270.65 148.661 270.548 148.678C270.446 148.692 270.354 148.705 270.271 148.717C270.094 148.743 269.939 148.784 269.806 148.841C269.674 148.898 269.571 148.975 269.497 149.072C269.424 149.166 269.387 149.285 269.387 149.427C269.387 149.633 269.462 149.79 269.611 149.899C269.762 150.006 269.954 150.059 270.186 150.059ZM274.027 151V143.727H275.539V146.462H275.586C275.652 146.315 275.748 146.166 275.873 146.014C276.001 145.86 276.167 145.732 276.37 145.631C276.576 145.527 276.832 145.474 277.137 145.474C277.535 145.474 277.902 145.579 278.238 145.787C278.574 145.993 278.843 146.304 279.044 146.721C279.246 147.135 279.346 147.655 279.346 148.28C279.346 148.888 279.248 149.402 279.051 149.821C278.857 150.238 278.592 150.554 278.256 150.769C277.922 150.982 277.548 151.089 277.134 151.089C276.84 151.089 276.591 151.04 276.385 150.943C276.181 150.846 276.014 150.724 275.884 150.577C275.754 150.428 275.654 150.278 275.586 150.126H275.518V151H274.027ZM275.507 148.273C275.507 148.597 275.552 148.88 275.642 149.121C275.732 149.363 275.863 149.551 276.033 149.686C276.203 149.819 276.411 149.885 276.654 149.885C276.901 149.885 277.109 149.817 277.279 149.683C277.45 149.545 277.579 149.356 277.667 149.114C277.757 148.871 277.801 148.59 277.801 148.273C277.801 147.958 277.758 147.681 277.67 147.442C277.583 147.203 277.453 147.016 277.283 146.881C277.113 146.746 276.903 146.678 276.654 146.678C276.408 146.678 276.2 146.743 276.029 146.874C275.861 147.004 275.732 147.188 275.642 147.428C275.552 147.667 275.507 147.948 275.507 148.273ZM284.894 147.101L283.509 147.186C283.485 147.068 283.434 146.961 283.356 146.866C283.278 146.769 283.175 146.692 283.047 146.636C282.922 146.576 282.772 146.547 282.596 146.547C282.362 146.547 282.164 146.597 282.003 146.696C281.842 146.793 281.762 146.923 281.762 147.087C281.762 147.217 281.814 147.327 281.918 147.417C282.022 147.507 282.201 147.579 282.454 147.634L283.442 147.832C283.972 147.941 284.367 148.116 284.628 148.358C284.888 148.599 285.018 148.917 285.018 149.31C285.018 149.667 284.913 149.981 284.702 150.251C284.494 150.521 284.207 150.731 283.843 150.883C283.481 151.032 283.063 151.107 282.589 151.107C281.867 151.107 281.292 150.956 280.863 150.656C280.437 150.353 280.188 149.941 280.114 149.42L281.602 149.342C281.647 149.562 281.756 149.73 281.929 149.846C282.102 149.96 282.323 150.016 282.593 150.016C282.858 150.016 283.071 149.965 283.232 149.864C283.395 149.759 283.478 149.626 283.481 149.462C283.478 149.325 283.42 149.213 283.307 149.125C283.193 149.035 283.018 148.966 282.781 148.919L281.836 148.731C281.304 148.624 280.907 148.44 280.647 148.177C280.389 147.914 280.26 147.579 280.26 147.172C280.26 146.821 280.354 146.52 280.544 146.266C280.736 146.013 281.004 145.818 281.35 145.68C281.698 145.543 282.105 145.474 282.572 145.474C283.26 145.474 283.803 145.62 284.198 145.911C284.596 146.202 284.828 146.599 284.894 147.101ZM288.872 145.545V146.682H285.587V145.545H288.872ZM286.333 144.239H287.846V149.324C287.846 149.464 287.867 149.572 287.91 149.651C287.952 149.726 288.012 149.78 288.087 149.81C288.165 149.841 288.255 149.857 288.357 149.857C288.428 149.857 288.499 149.851 288.57 149.839C288.641 149.825 288.696 149.814 288.734 149.807L288.972 150.933C288.896 150.956 288.789 150.983 288.652 151.014C288.515 151.047 288.348 151.067 288.151 151.075C287.787 151.089 287.467 151.04 287.192 150.929C286.92 150.818 286.708 150.645 286.557 150.411C286.405 150.176 286.331 149.88 286.333 149.523V144.239ZM289.858 151V145.545H291.324V146.497H291.381C291.48 146.159 291.647 145.903 291.882 145.73C292.116 145.555 292.386 145.467 292.691 145.467C292.767 145.467 292.849 145.472 292.936 145.482C293.024 145.491 293.101 145.504 293.167 145.521V146.863C293.096 146.842 292.998 146.823 292.873 146.806C292.747 146.79 292.632 146.781 292.528 146.781C292.306 146.781 292.107 146.83 291.931 146.927C291.759 147.022 291.621 147.154 291.52 147.325C291.42 147.495 291.37 147.692 291.37 147.914V151H289.858ZM295.349 151.103C295.001 151.103 294.69 151.043 294.418 150.922C294.146 150.799 293.93 150.618 293.772 150.379C293.616 150.137 293.537 149.836 293.537 149.477C293.537 149.174 293.593 148.919 293.704 148.713C293.816 148.507 293.967 148.341 294.159 148.216C294.351 148.09 294.568 147.996 294.812 147.932C295.059 147.868 295.317 147.823 295.586 147.797C295.904 147.764 296.159 147.733 296.354 147.705C296.548 147.674 296.689 147.629 296.776 147.57C296.864 147.51 296.907 147.423 296.907 147.307V147.286C296.907 147.061 296.836 146.887 296.694 146.763C296.555 146.64 296.356 146.579 296.098 146.579C295.826 146.579 295.609 146.639 295.448 146.76C295.287 146.878 295.18 147.027 295.128 147.207L293.729 147.094C293.8 146.762 293.94 146.476 294.148 146.234C294.357 145.991 294.625 145.804 294.954 145.673C295.286 145.541 295.669 145.474 296.105 145.474C296.408 145.474 296.698 145.51 296.975 145.581C297.254 145.652 297.502 145.762 297.717 145.911C297.935 146.06 298.107 146.252 298.232 146.487C298.358 146.719 298.42 146.997 298.42 147.321V151H296.986V150.244H296.943C296.855 150.414 296.738 150.564 296.591 150.695C296.445 150.822 296.268 150.923 296.062 150.996C295.856 151.067 295.618 151.103 295.349 151.103ZM295.782 150.059C296.004 150.059 296.201 150.015 296.371 149.928C296.542 149.838 296.675 149.717 296.773 149.565C296.87 149.414 296.918 149.242 296.918 149.05V148.472C296.871 148.502 296.806 148.531 296.723 148.557C296.642 148.58 296.551 148.603 296.449 148.624C296.348 148.643 296.246 148.661 296.144 148.678C296.042 148.692 295.95 148.705 295.867 148.717C295.689 148.743 295.534 148.784 295.402 148.841C295.269 148.898 295.166 148.975 295.093 149.072C295.019 149.166 294.983 149.285 294.983 149.427C294.983 149.633 295.057 149.79 295.206 149.899C295.358 150.006 295.55 150.059 295.782 150.059ZM302.058 151.107C301.5 151.107 301.019 150.988 300.617 150.751C300.217 150.512 299.909 150.181 299.693 149.757C299.48 149.333 299.374 148.846 299.374 148.294C299.374 147.735 299.481 147.245 299.697 146.824C299.915 146.4 300.224 146.07 300.624 145.833C301.024 145.594 301.5 145.474 302.051 145.474C302.527 145.474 302.944 145.561 303.301 145.734C303.659 145.906 303.942 146.149 304.15 146.462C304.358 146.774 304.473 147.141 304.494 147.562H303.067C303.027 147.29 302.92 147.071 302.747 146.906C302.577 146.737 302.353 146.653 302.076 146.653C301.842 146.653 301.637 146.717 301.462 146.845C301.289 146.971 301.154 147.154 301.057 147.396C300.96 147.637 300.911 147.929 300.911 148.273C300.911 148.621 300.959 148.917 301.053 149.161C301.151 149.404 301.287 149.59 301.462 149.718C301.637 149.846 301.842 149.91 302.076 149.91C302.249 149.91 302.404 149.874 302.541 149.803C302.681 149.732 302.796 149.629 302.886 149.494C302.978 149.357 303.039 149.192 303.067 149.001H304.494C304.471 149.417 304.357 149.784 304.154 150.102C303.952 150.416 303.674 150.663 303.319 150.84C302.964 151.018 302.544 151.107 302.058 151.107ZM308.364 145.545V146.682H305.08V145.545H308.364ZM305.825 144.239H307.338V149.324C307.338 149.464 307.359 149.572 307.402 149.651C307.445 149.726 307.504 149.78 307.58 149.81C307.658 149.841 307.748 149.857 307.849 149.857C307.92 149.857 307.991 149.851 308.062 149.839C308.134 149.825 308.188 149.814 308.226 149.807L308.464 150.933C308.388 150.956 308.281 150.983 308.144 151.014C308.007 151.047 307.84 151.067 307.643 151.075C307.279 151.089 306.959 151.04 306.685 150.929C306.412 150.818 306.201 150.645 306.049 150.411C305.897 150.176 305.823 149.88 305.825 149.523V144.239ZM314.645 148.717L309.645 150.918V149.48L313.068 148.106L313.022 148.18V148.003L313.068 148.077L309.645 146.703V145.265L314.645 147.467V148.717ZM321.441 148.717L316.441 150.918V149.48L319.865 148.106L319.819 148.18V148.003L319.865 148.077L316.441 146.703V145.265L321.441 147.467V148.717Z" fill="#333333"/>
<path d="M255.21 139H252.632V131.727H255.232C255.963 131.727 256.593 131.873 257.121 132.164C257.649 132.453 258.055 132.868 258.339 133.411C258.625 133.953 258.768 134.601 258.768 135.357C258.768 136.114 258.625 136.765 258.339 137.31C258.055 137.854 257.646 138.272 257.114 138.563C256.583 138.854 255.949 139 255.21 139ZM254.17 137.683H255.146C255.601 137.683 255.983 137.602 256.293 137.441C256.606 137.278 256.84 137.026 256.996 136.685C257.155 136.341 257.234 135.899 257.234 135.357C257.234 134.819 257.155 134.38 256.996 134.039C256.84 133.698 256.607 133.447 256.297 133.286C255.987 133.125 255.604 133.045 255.15 133.045H254.17V137.683ZM262.344 139.107C261.792 139.107 261.315 138.989 260.912 138.755C260.512 138.518 260.203 138.189 259.986 137.768C259.768 137.344 259.659 136.853 259.659 136.294C259.659 135.731 259.768 135.238 259.986 134.817C260.203 134.393 260.512 134.064 260.912 133.83C261.315 133.593 261.792 133.474 262.344 133.474C262.895 133.474 263.371 133.593 263.771 133.83C264.174 134.064 264.484 134.393 264.702 134.817C264.919 135.238 265.028 135.731 265.028 136.294C265.028 136.853 264.919 137.344 264.702 137.768C264.484 138.189 264.174 138.518 263.771 138.755C263.371 138.989 262.895 139.107 262.344 139.107ZM262.351 137.935C262.602 137.935 262.811 137.864 262.979 137.722C263.147 137.577 263.274 137.381 263.359 137.132C263.447 136.884 263.491 136.601 263.491 136.283C263.491 135.966 263.447 135.683 263.359 135.435C263.274 135.186 263.147 134.99 262.979 134.845C262.811 134.701 262.602 134.629 262.351 134.629C262.097 134.629 261.884 134.701 261.711 134.845C261.541 134.99 261.412 135.186 261.324 135.435C261.239 135.683 261.197 135.966 261.197 136.283C261.197 136.601 261.239 136.884 261.324 137.132C261.412 137.381 261.541 137.577 261.711 137.722C261.884 137.864 262.097 137.935 262.351 137.935ZM270.308 129.384V141.344H268.873V129.384H270.308ZM275.663 139H274.015L276.526 131.727H278.507L281.015 139H279.367L277.545 133.389H277.488L275.663 139ZM275.56 136.141H279.452V137.342H275.56V136.141ZM286.273 135.101L284.888 135.186C284.864 135.068 284.813 134.961 284.735 134.866C284.657 134.769 284.554 134.692 284.426 134.636C284.301 134.576 284.151 134.547 283.975 134.547C283.741 134.547 283.543 134.597 283.382 134.696C283.221 134.793 283.141 134.923 283.141 135.087C283.141 135.217 283.193 135.327 283.297 135.417C283.401 135.507 283.58 135.579 283.833 135.634L284.82 135.832C285.351 135.941 285.746 136.116 286.007 136.358C286.267 136.599 286.397 136.917 286.397 137.31C286.397 137.667 286.292 137.981 286.081 138.251C285.873 138.521 285.586 138.731 285.222 138.883C284.86 139.032 284.442 139.107 283.968 139.107C283.246 139.107 282.671 138.956 282.242 138.656C281.816 138.353 281.566 137.941 281.493 137.42L282.981 137.342C283.026 137.562 283.135 137.73 283.308 137.846C283.481 137.96 283.702 138.016 283.972 138.016C284.237 138.016 284.45 137.965 284.611 137.864C284.774 137.759 284.857 137.626 284.86 137.462C284.857 137.325 284.799 137.213 284.686 137.125C284.572 137.035 284.397 136.966 284.16 136.919L283.215 136.731C282.683 136.624 282.286 136.44 282.026 136.177C281.768 135.914 281.639 135.579 281.639 135.172C281.639 134.821 281.733 134.52 281.923 134.266C282.115 134.013 282.383 133.818 282.729 133.68C283.077 133.543 283.484 133.474 283.95 133.474C284.639 133.474 285.182 133.62 285.577 133.911C285.975 134.202 286.207 134.599 286.273 135.101ZM288.721 137.43L288.724 135.616H288.944L290.691 133.545H292.428L290.081 136.287H289.722L288.721 137.43ZM287.35 139V131.727H288.863V139H287.35ZM290.759 139L289.154 136.624L290.162 135.555L292.531 139H290.759ZM299.458 133.819C299.43 133.532 299.308 133.31 299.093 133.151C298.877 132.993 298.585 132.913 298.215 132.913C297.964 132.913 297.753 132.949 297.58 133.02C297.407 133.089 297.274 133.184 297.182 133.308C297.092 133.431 297.047 133.57 297.047 133.727C297.042 133.857 297.07 133.97 297.129 134.067C297.19 134.165 297.274 134.249 297.381 134.32C297.487 134.388 297.61 134.449 297.75 134.501C297.89 134.55 298.039 134.593 298.198 134.629L298.851 134.785C299.168 134.856 299.459 134.951 299.725 135.069C299.99 135.187 300.219 135.333 300.414 135.506C300.608 135.679 300.758 135.882 300.865 136.116C300.973 136.351 301.029 136.62 301.031 136.923C301.029 137.368 300.915 137.754 300.691 138.08C300.468 138.405 300.146 138.657 299.725 138.837C299.306 139.014 298.8 139.103 298.208 139.103C297.621 139.103 297.11 139.013 296.674 138.833C296.241 138.653 295.902 138.387 295.659 138.034C295.417 137.679 295.29 137.24 295.279 136.717H296.767C296.783 136.96 296.853 137.164 296.976 137.327C297.102 137.488 297.268 137.61 297.477 137.693C297.687 137.774 297.925 137.814 298.191 137.814C298.451 137.814 298.677 137.776 298.869 137.7C299.063 137.625 299.213 137.519 299.32 137.384C299.426 137.249 299.48 137.094 299.48 136.919C299.48 136.756 299.431 136.618 299.334 136.507C299.239 136.396 299.1 136.301 298.915 136.223C298.733 136.145 298.509 136.074 298.244 136.01L297.452 135.811C296.839 135.662 296.355 135.429 295.999 135.112C295.644 134.794 295.468 134.367 295.47 133.83C295.468 133.389 295.585 133.004 295.822 132.675C296.061 132.346 296.389 132.089 296.806 131.905C297.222 131.72 297.696 131.628 298.226 131.628C298.766 131.628 299.237 131.72 299.639 131.905C300.044 132.089 300.359 132.346 300.584 132.675C300.809 133.004 300.925 133.386 300.932 133.819H299.458ZM304.523 139.107C303.962 139.107 303.479 138.993 303.074 138.766C302.672 138.536 302.362 138.212 302.144 137.793C301.926 137.371 301.817 136.873 301.817 136.298C301.817 135.737 301.926 135.244 302.144 134.82C302.362 134.397 302.668 134.066 303.064 133.83C303.461 133.593 303.928 133.474 304.463 133.474C304.823 133.474 305.158 133.532 305.468 133.648C305.78 133.762 306.052 133.934 306.284 134.163C306.519 134.393 306.701 134.682 306.831 135.03C306.962 135.375 307.027 135.78 307.027 136.244V136.66H302.421V135.722H305.603C305.603 135.504 305.555 135.312 305.461 135.143C305.366 134.975 305.234 134.844 305.066 134.749C304.901 134.652 304.708 134.604 304.488 134.604C304.258 134.604 304.054 134.657 303.877 134.763C303.702 134.868 303.564 135.009 303.465 135.186C303.365 135.361 303.315 135.557 303.312 135.772V136.663C303.312 136.933 303.362 137.166 303.461 137.363C303.563 137.559 303.706 137.711 303.891 137.817C304.076 137.924 304.295 137.977 304.548 137.977C304.716 137.977 304.87 137.954 305.01 137.906C305.149 137.859 305.269 137.788 305.368 137.693C305.468 137.598 305.543 137.482 305.596 137.345L306.995 137.438C306.924 137.774 306.778 138.067 306.558 138.318C306.34 138.567 306.058 138.761 305.713 138.901C305.369 139.038 304.973 139.107 304.523 139.107ZM308.014 139V133.545H309.48V134.497H309.537C309.637 134.159 309.804 133.903 310.038 133.73C310.272 133.555 310.542 133.467 310.848 133.467C310.923 133.467 311.005 133.472 311.093 133.482C311.18 133.491 311.257 133.504 311.324 133.521V134.863C311.252 134.842 311.154 134.823 311.029 134.806C310.903 134.79 310.788 134.781 310.684 134.781C310.462 134.781 310.263 134.83 310.088 134.927C309.915 135.022 309.778 135.154 309.676 135.325C309.576 135.495 309.527 135.692 309.527 135.914V139H308.014ZM317.357 133.545L315.45 139H313.745L311.838 133.545H313.436L314.569 137.448H314.626L315.755 133.545H317.357ZM320.441 139.107C319.88 139.107 319.397 138.993 318.992 138.766C318.59 138.536 318.28 138.212 318.062 137.793C317.844 137.371 317.735 136.873 317.735 136.298C317.735 135.737 317.844 135.244 318.062 134.82C318.28 134.397 318.586 134.066 318.982 133.83C319.379 133.593 319.846 133.474 320.381 133.474C320.741 133.474 321.076 133.532 321.386 133.648C321.698 133.762 321.97 133.934 322.202 134.163C322.437 134.393 322.619 134.682 322.749 135.03C322.879 135.375 322.945 135.78 322.945 136.244V136.66H318.339V135.722H321.521C321.521 135.504 321.473 135.312 321.379 135.143C321.284 134.975 321.152 134.844 320.984 134.749C320.819 134.652 320.626 134.604 320.406 134.604C320.176 134.604 319.972 134.657 319.795 134.763C319.62 134.868 319.482 135.009 319.383 135.186C319.283 135.361 319.232 135.557 319.23 135.772V136.663C319.23 136.933 319.28 137.166 319.379 137.363C319.481 137.559 319.624 137.711 319.809 137.817C319.994 137.924 320.213 137.977 320.466 137.977C320.634 137.977 320.788 137.954 320.928 137.906C321.067 137.859 321.187 137.788 321.286 137.693C321.386 137.598 321.461 137.482 321.513 137.345L322.913 137.438C322.842 137.774 322.696 138.067 322.476 138.318C322.258 138.567 321.976 138.761 321.631 138.901C321.287 139.038 320.891 139.107 320.441 139.107ZM323.932 139V133.545H325.398V134.497H325.455C325.555 134.159 325.722 133.903 325.956 133.73C326.19 133.555 326.46 133.467 326.766 133.467C326.841 133.467 326.923 133.472 327.011 133.482C327.098 133.491 327.175 133.504 327.241 133.521V134.863C327.17 134.842 327.072 134.823 326.947 134.806C326.821 134.79 326.706 134.781 326.602 134.781C326.38 134.781 326.181 134.83 326.006 134.927C325.833 135.022 325.696 135.154 325.594 135.325C325.494 135.495 325.445 135.692 325.445 135.914V139H323.932Z" fill="#333333"/>
<path d="M309.553 256.18C309.524 255.893 309.402 255.671 309.187 255.512C308.972 255.354 308.679 255.274 308.31 255.274C308.059 255.274 307.847 255.31 307.674 255.381C307.501 255.449 307.369 255.545 307.276 255.668C307.186 255.792 307.142 255.931 307.142 256.087C307.137 256.218 307.164 256.331 307.223 256.428C307.285 256.525 307.369 256.609 307.475 256.681C307.582 256.749 307.705 256.81 307.845 256.862C307.984 256.911 308.133 256.954 308.292 256.989L308.945 257.146C309.263 257.217 309.554 257.311 309.819 257.43C310.084 257.548 310.314 257.694 310.508 257.867C310.702 258.039 310.852 258.243 310.959 258.477C311.068 258.712 311.124 258.98 311.126 259.283C311.124 259.729 311.01 260.114 310.785 260.441C310.562 260.765 310.24 261.018 309.819 261.198C309.4 261.375 308.895 261.464 308.303 261.464C307.716 261.464 307.204 261.374 306.769 261.194C306.335 261.014 305.997 260.748 305.753 260.395C305.512 260.04 305.385 259.601 305.373 259.078H306.861C306.878 259.321 306.947 259.525 307.07 259.688C307.196 259.849 307.363 259.971 307.571 260.054C307.782 260.135 308.02 260.175 308.285 260.175C308.545 260.175 308.771 260.137 308.963 260.061C309.157 259.985 309.308 259.88 309.414 259.745C309.521 259.61 309.574 259.455 309.574 259.28C309.574 259.117 309.526 258.979 309.428 258.868C309.334 258.757 309.194 258.662 309.009 258.584C308.827 258.506 308.603 258.435 308.338 258.371L307.546 258.172C306.933 258.023 306.449 257.79 306.094 257.472C305.739 257.155 305.562 256.728 305.565 256.19C305.562 255.75 305.68 255.365 305.916 255.036C306.155 254.707 306.483 254.45 306.9 254.266C307.317 254.081 307.79 253.989 308.32 253.989C308.86 253.989 309.331 254.081 309.734 254.266C310.139 254.45 310.454 254.707 310.678 255.036C310.903 255.365 311.019 255.747 311.026 256.18H309.553ZM314.596 261.467C314.038 261.467 313.557 261.349 313.154 261.112C312.754 260.873 312.447 260.542 312.231 260.118C312.018 259.694 311.912 259.207 311.912 258.655C311.912 258.096 312.019 257.606 312.235 257.185C312.453 256.761 312.761 256.431 313.162 256.194C313.562 255.955 314.038 255.835 314.589 255.835C315.065 255.835 315.482 255.922 315.839 256.095C316.197 256.267 316.48 256.51 316.688 256.823C316.896 257.135 317.011 257.502 317.032 257.923H315.605C315.565 257.651 315.458 257.432 315.285 257.266C315.115 257.098 314.891 257.014 314.614 257.014C314.38 257.014 314.175 257.078 314 257.206C313.827 257.332 313.692 257.515 313.595 257.756C313.498 257.998 313.449 258.29 313.449 258.634C313.449 258.982 313.497 259.278 313.591 259.521C313.688 259.765 313.824 259.951 314 260.079C314.175 260.207 314.38 260.271 314.614 260.271C314.787 260.271 314.942 260.235 315.079 260.164C315.219 260.093 315.334 259.99 315.424 259.855C315.516 259.718 315.576 259.553 315.605 259.362H317.032C317.009 259.778 316.895 260.145 316.691 260.462C316.49 260.777 316.212 261.024 315.857 261.201C315.502 261.379 315.082 261.467 314.596 261.467ZM319.514 258.207V261.361H318.001V254.088H319.471V256.869H319.535C319.658 256.547 319.857 256.295 320.132 256.112C320.406 255.928 320.751 255.835 321.165 255.835C321.544 255.835 321.874 255.918 322.156 256.084C322.44 256.247 322.66 256.483 322.816 256.791C322.975 257.096 323.053 257.462 323.051 257.888V261.361H321.538V258.158C321.54 257.822 321.455 257.56 321.282 257.373C321.112 257.186 320.873 257.092 320.565 257.092C320.359 257.092 320.177 257.136 320.018 257.224C319.862 257.311 319.739 257.439 319.649 257.607C319.561 257.773 319.516 257.973 319.514 258.207ZM326.727 261.467C326.166 261.467 325.683 261.354 325.278 261.127C324.876 260.897 324.565 260.573 324.348 260.154C324.13 259.732 324.021 259.234 324.021 258.658C324.021 258.097 324.13 257.605 324.348 257.181C324.565 256.757 324.872 256.427 325.267 256.19C325.665 255.954 326.132 255.835 326.667 255.835C327.026 255.835 327.361 255.893 327.672 256.009C327.984 256.123 328.256 256.295 328.488 256.524C328.723 256.754 328.905 257.043 329.035 257.391C329.165 257.736 329.23 258.141 329.23 258.605V259.021H324.625V258.083H327.806C327.806 257.865 327.759 257.672 327.664 257.504C327.57 257.336 327.438 257.205 327.27 257.11C327.105 257.013 326.912 256.965 326.691 256.965C326.462 256.965 326.258 257.018 326.081 257.124C325.905 257.229 325.768 257.369 325.669 257.547C325.569 257.722 325.518 257.917 325.516 258.133V259.024C325.516 259.294 325.566 259.527 325.665 259.724C325.767 259.92 325.91 260.072 326.095 260.178C326.279 260.285 326.498 260.338 326.752 260.338C326.92 260.338 327.074 260.314 327.213 260.267C327.353 260.22 327.473 260.149 327.572 260.054C327.672 259.959 327.747 259.843 327.799 259.706L329.199 259.798C329.127 260.135 328.982 260.428 328.762 260.679C328.544 260.928 328.262 261.122 327.917 261.261C327.573 261.399 327.177 261.467 326.727 261.467ZM332.228 261.45C331.813 261.45 331.438 261.343 331.102 261.13C330.768 260.915 330.503 260.599 330.306 260.182C330.112 259.763 330.015 259.249 330.015 258.641C330.015 258.016 330.116 257.496 330.317 257.082C330.518 256.665 330.786 256.354 331.12 256.148C331.456 255.939 331.824 255.835 332.224 255.835C332.529 255.835 332.784 255.887 332.988 255.992C333.194 256.093 333.359 256.221 333.485 256.375C333.613 256.527 333.71 256.676 333.776 256.823H333.822V254.088H335.331V261.361H333.84V260.487H333.776C333.705 260.639 333.604 260.789 333.474 260.938C333.346 261.085 333.179 261.207 332.973 261.304C332.77 261.401 332.521 261.45 332.228 261.45ZM332.707 260.246C332.951 260.246 333.157 260.18 333.325 260.047C333.495 259.912 333.626 259.724 333.716 259.482C333.808 259.241 333.854 258.958 333.854 258.634C333.854 258.309 333.809 258.028 333.719 257.788C333.629 257.549 333.499 257.365 333.328 257.234C333.158 257.104 332.951 257.039 332.707 257.039C332.458 257.039 332.249 257.107 332.078 257.242C331.908 257.377 331.779 257.564 331.691 257.803C331.604 258.042 331.56 258.319 331.56 258.634C331.56 258.951 331.604 259.231 331.691 259.475C331.781 259.717 331.91 259.906 332.078 260.043C332.249 260.178 332.458 260.246 332.707 260.246ZM340.073 259.038V255.906H341.586V261.361H340.133V260.37H340.077C339.953 260.69 339.749 260.947 339.462 261.141C339.178 261.335 338.831 261.432 338.422 261.432C338.057 261.432 337.736 261.349 337.459 261.183C337.182 261.018 336.966 260.782 336.809 260.477C336.656 260.171 336.577 259.806 336.575 259.379V255.906H338.088V259.109C338.09 259.431 338.177 259.686 338.347 259.873C338.518 260.06 338.746 260.154 339.032 260.154C339.215 260.154 339.385 260.112 339.544 260.029C339.702 259.944 339.83 259.819 339.927 259.653C340.027 259.487 340.075 259.282 340.073 259.038ZM344.309 254.088V261.361H342.796V254.088H344.309ZM348.006 261.467C347.445 261.467 346.962 261.354 346.557 261.127C346.155 260.897 345.845 260.573 345.627 260.154C345.409 259.732 345.3 259.234 345.3 258.658C345.3 258.097 345.409 257.605 345.627 257.181C345.845 256.757 346.151 256.427 346.547 256.19C346.944 255.954 347.411 255.835 347.946 255.835C348.306 255.835 348.641 255.893 348.951 256.009C349.263 256.123 349.536 256.295 349.768 256.524C350.002 256.754 350.184 257.043 350.314 257.391C350.445 257.736 350.51 258.141 350.51 258.605V259.021H345.904V258.083H349.086C349.086 257.865 349.038 257.672 348.944 257.504C348.849 257.336 348.718 257.205 348.55 257.11C348.384 257.013 348.191 256.965 347.971 256.965C347.741 256.965 347.537 257.018 347.36 257.124C347.185 257.229 347.047 257.369 346.948 257.547C346.849 257.722 346.798 257.917 346.795 258.133V259.024C346.795 259.294 346.845 259.527 346.944 259.724C347.046 259.92 347.189 260.072 347.374 260.178C347.559 260.285 347.778 260.338 348.031 260.338C348.199 260.338 348.353 260.314 348.493 260.267C348.632 260.22 348.752 260.149 348.851 260.054C348.951 259.959 349.027 259.843 349.079 259.706L350.478 259.798C350.407 260.135 350.261 260.428 350.041 260.679C349.823 260.928 349.541 261.122 349.196 261.261C348.853 261.399 348.456 261.467 348.006 261.467Z" fill="#333333"/>
<path d="M298.664 264.948H300.56L302.563 269.835H302.648L304.651 264.948H306.548V272.221H305.056V267.487H304.996L303.114 272.185H302.098L300.216 267.469H300.156V272.221H298.664V264.948ZM309.341 272.324C308.993 272.324 308.683 272.263 308.411 272.143C308.139 272.02 307.923 271.839 307.765 271.599C307.608 271.358 307.53 271.057 307.53 270.697C307.53 270.394 307.586 270.14 307.697 269.934C307.809 269.728 307.96 269.562 308.152 269.437C308.344 269.311 308.561 269.217 308.805 269.153C309.051 269.089 309.309 269.044 309.579 269.018C309.897 268.985 310.152 268.954 310.346 268.925C310.541 268.895 310.681 268.85 310.769 268.79C310.857 268.731 310.9 268.644 310.9 268.528V268.506C310.9 268.281 310.829 268.107 310.687 267.984C310.548 267.861 310.349 267.8 310.091 267.8C309.818 267.8 309.602 267.86 309.441 267.981C309.28 268.099 309.173 268.248 309.121 268.428L307.722 268.315C307.793 267.983 307.933 267.697 308.141 267.455C308.349 267.211 308.618 267.024 308.947 266.894C309.279 266.762 309.662 266.695 310.098 266.695C310.401 266.695 310.691 266.731 310.968 266.802C311.247 266.873 311.495 266.983 311.71 267.132C311.928 267.281 312.099 267.473 312.225 267.707C312.35 267.939 312.413 268.218 312.413 268.542V272.221H310.979V271.464H310.936C310.848 271.635 310.731 271.785 310.584 271.915C310.438 272.043 310.261 272.144 310.055 272.217C309.849 272.288 309.611 272.324 309.341 272.324ZM309.775 271.28C309.997 271.28 310.194 271.236 310.364 271.148C310.535 271.058 310.668 270.938 310.765 270.786C310.863 270.635 310.911 270.463 310.911 270.271V269.692C310.864 269.723 310.799 269.752 310.716 269.778C310.635 269.801 310.544 269.824 310.442 269.845C310.34 269.864 310.239 269.882 310.137 269.898C310.035 269.913 309.943 269.926 309.86 269.938C309.682 269.964 309.527 270.005 309.395 270.062C309.262 270.119 309.159 270.196 309.086 270.293C309.012 270.387 308.976 270.506 308.976 270.648C308.976 270.854 309.05 271.011 309.199 271.12C309.351 271.227 309.543 271.28 309.775 271.28ZM315.1 269.067V272.221H313.587V266.766H315.029V267.729H315.092C315.213 267.411 315.416 267.161 315.7 266.976C315.984 266.789 316.328 266.695 316.733 266.695C317.112 266.695 317.442 266.778 317.724 266.944C318.006 267.11 318.225 267.346 318.381 267.654C318.537 267.96 318.615 268.324 318.615 268.748V272.221H317.102V269.018C317.105 268.684 317.02 268.424 316.847 268.237C316.674 268.047 316.436 267.952 316.133 267.952C315.929 267.952 315.749 267.996 315.593 268.084C315.439 268.171 315.319 268.299 315.231 268.467C315.146 268.633 315.102 268.833 315.1 269.067ZM321.363 272.324C321.015 272.324 320.705 272.263 320.433 272.143C320.16 272.02 319.945 271.839 319.786 271.599C319.63 271.358 319.552 271.057 319.552 270.697C319.552 270.394 319.607 270.14 319.719 269.934C319.83 269.728 319.982 269.562 320.173 269.437C320.365 269.311 320.583 269.217 320.827 269.153C321.073 269.089 321.331 269.044 321.601 269.018C321.918 268.985 322.174 268.954 322.368 268.925C322.562 268.895 322.703 268.85 322.79 268.79C322.878 268.731 322.922 268.644 322.922 268.528V268.506C322.922 268.281 322.851 268.107 322.709 267.984C322.569 267.861 322.37 267.8 322.112 267.8C321.84 267.8 321.623 267.86 321.462 267.981C321.301 268.099 321.195 268.248 321.143 268.428L319.744 268.315C319.815 267.983 319.954 267.697 320.163 267.455C320.371 267.211 320.64 267.024 320.969 266.894C321.3 266.762 321.684 266.695 322.119 266.695C322.422 266.695 322.712 266.731 322.989 266.802C323.269 266.873 323.516 266.983 323.732 267.132C323.949 267.281 324.121 267.473 324.246 267.707C324.372 267.939 324.435 268.218 324.435 268.542V272.221H323V271.464H322.957C322.87 271.635 322.753 271.785 322.606 271.915C322.459 272.043 322.283 272.144 322.077 272.217C321.871 272.288 321.633 272.324 321.363 272.324ZM321.796 271.28C322.019 271.28 322.215 271.236 322.386 271.148C322.556 271.058 322.69 270.938 322.787 270.786C322.884 270.635 322.933 270.463 322.933 270.271V269.692C322.885 269.723 322.82 269.752 322.737 269.778C322.657 269.801 322.566 269.824 322.464 269.845C322.362 269.864 322.26 269.882 322.158 269.898C322.057 269.913 321.964 269.926 321.881 269.938C321.704 269.964 321.549 270.005 321.416 270.062C321.284 270.119 321.181 270.196 321.107 270.293C321.034 270.387 320.997 270.506 320.997 270.648C320.997 270.854 321.072 271.011 321.221 271.12C321.372 271.227 321.564 271.28 321.796 271.28ZM328.066 274.38C327.576 274.38 327.155 274.313 326.805 274.178C326.457 274.045 326.18 273.864 325.974 273.634C325.768 273.405 325.634 273.147 325.573 272.86L326.972 272.672C327.015 272.781 327.082 272.883 327.174 272.977C327.267 273.072 327.389 273.148 327.54 273.205C327.694 273.264 327.881 273.293 328.101 273.293C328.43 273.293 328.701 273.213 328.914 273.052C329.13 272.893 329.238 272.627 329.238 272.253V271.255H329.174C329.107 271.406 329.008 271.55 328.875 271.685C328.743 271.82 328.572 271.93 328.364 272.015C328.156 272.1 327.907 272.143 327.618 272.143C327.209 272.143 326.836 272.048 326.5 271.859C326.166 271.667 325.899 271.375 325.701 270.982C325.504 270.586 325.406 270.087 325.406 269.483C325.406 268.865 325.507 268.349 325.708 267.935C325.909 267.52 326.176 267.21 326.51 267.004C326.846 266.798 327.215 266.695 327.615 266.695C327.92 266.695 328.176 266.747 328.382 266.852C328.588 266.953 328.753 267.081 328.879 267.235C329.007 267.387 329.105 267.536 329.174 267.683H329.23V266.766H330.733V272.274C330.733 272.738 330.619 273.126 330.392 273.439C330.164 273.751 329.85 273.986 329.447 274.142C329.047 274.301 328.587 274.38 328.066 274.38ZM328.098 271.006C328.341 271.006 328.547 270.946 328.716 270.825C328.886 270.702 329.016 270.527 329.106 270.3C329.199 270.07 329.245 269.795 329.245 269.476C329.245 269.156 329.2 268.879 329.11 268.645C329.02 268.408 328.89 268.225 328.719 268.094C328.549 267.964 328.341 267.899 328.098 267.899C327.849 267.899 327.64 267.967 327.469 268.102C327.299 268.234 327.17 268.419 327.082 268.656C326.994 268.892 326.951 269.166 326.951 269.476C326.951 269.791 326.994 270.063 327.082 270.293C327.172 270.52 327.301 270.696 327.469 270.822C327.64 270.945 327.849 271.006 328.098 271.006ZM334.422 272.327C333.861 272.327 333.378 272.214 332.973 271.987C332.571 271.757 332.261 271.433 332.043 271.013C331.825 270.592 331.716 270.094 331.716 269.518C331.716 268.957 331.825 268.465 332.043 268.041C332.261 267.617 332.567 267.287 332.963 267.05C333.36 266.814 333.827 266.695 334.362 266.695C334.722 266.695 335.057 266.753 335.367 266.869C335.679 266.983 335.952 267.155 336.184 267.384C336.418 267.614 336.6 267.903 336.73 268.251C336.861 268.596 336.926 269.001 336.926 269.465V269.881H332.32V268.943H335.502C335.502 268.725 335.454 268.532 335.36 268.364C335.265 268.196 335.134 268.065 334.966 267.97C334.8 267.873 334.607 267.825 334.387 267.825C334.157 267.825 333.953 267.878 333.776 267.984C333.601 268.089 333.463 268.229 333.364 268.407C333.265 268.582 333.214 268.777 333.211 268.993V269.884C333.211 270.154 333.261 270.387 333.36 270.584C333.462 270.78 333.605 270.932 333.79 271.038C333.975 271.145 334.194 271.198 334.447 271.198C334.615 271.198 334.769 271.174 334.909 271.127C335.048 271.08 335.168 271.009 335.267 270.914C335.367 270.819 335.443 270.703 335.495 270.566L336.894 270.658C336.823 270.995 336.677 271.288 336.457 271.539C336.239 271.788 335.957 271.982 335.612 272.121C335.269 272.259 334.872 272.327 334.422 272.327ZM337.913 272.221V266.766H339.355V267.729H339.419C339.532 267.409 339.722 267.157 339.987 266.972C340.252 266.788 340.569 266.695 340.939 266.695C341.313 266.695 341.631 266.789 341.894 266.976C342.157 267.161 342.332 267.411 342.419 267.729H342.476C342.587 267.416 342.789 267.166 343.08 266.979C343.373 266.79 343.72 266.695 344.12 266.695C344.629 266.695 345.042 266.857 345.36 267.182C345.679 267.504 345.839 267.961 345.839 268.553V272.221H344.33V268.851C344.33 268.548 344.249 268.321 344.088 268.169C343.927 268.018 343.726 267.942 343.485 267.942C343.21 267.942 342.996 268.029 342.842 268.205C342.688 268.377 342.611 268.606 342.611 268.89V272.221H341.145V268.819C341.145 268.551 341.068 268.338 340.914 268.18C340.762 268.021 340.562 267.942 340.314 267.942C340.145 267.942 339.994 267.984 339.859 268.07C339.726 268.152 339.621 268.27 339.543 268.421C339.465 268.57 339.426 268.746 339.426 268.947V272.221H337.913ZM349.52 272.327C348.959 272.327 348.476 272.214 348.071 271.987C347.669 271.757 347.358 271.433 347.141 271.013C346.923 270.592 346.814 270.094 346.814 269.518C346.814 268.957 346.923 268.465 347.141 268.041C347.358 267.617 347.665 267.287 348.06 267.05C348.458 266.814 348.924 266.695 349.46 266.695C349.819 266.695 350.154 266.753 350.464 266.869C350.777 266.983 351.049 267.155 351.281 267.384C351.516 267.614 351.698 267.903 351.828 268.251C351.958 268.596 352.023 269.001 352.023 269.465V269.881H347.418V268.943H350.599C350.599 268.725 350.552 268.532 350.457 268.364C350.363 268.196 350.231 268.065 350.063 267.97C349.897 267.873 349.705 267.825 349.484 267.825C349.255 267.825 349.051 267.878 348.874 267.984C348.698 268.089 348.561 268.229 348.462 268.407C348.362 268.582 348.311 268.777 348.309 268.993V269.884C348.309 270.154 348.359 270.387 348.458 270.584C348.56 270.78 348.703 270.932 348.888 271.038C349.072 271.145 349.291 271.198 349.545 271.198C349.713 271.198 349.867 271.174 350.006 271.127C350.146 271.08 350.266 271.009 350.365 270.914C350.464 270.819 350.54 270.703 350.592 270.566L351.991 270.658C351.92 270.995 351.775 271.288 351.555 271.539C351.337 271.788 351.055 271.982 350.71 272.121C350.366 272.259 349.97 272.327 349.52 272.327ZM354.523 269.067V272.221H353.011V266.766H354.452V267.729H354.516C354.637 267.411 354.839 267.161 355.124 266.976C355.408 266.789 355.752 266.695 356.157 266.695C356.536 266.695 356.866 266.778 357.148 266.944C357.429 267.11 357.648 267.346 357.805 267.654C357.961 267.96 358.039 268.324 358.039 268.748V272.221H356.526V269.018C356.529 268.684 356.443 268.424 356.271 268.237C356.098 268.047 355.86 267.952 355.557 267.952C355.353 267.952 355.173 267.996 355.017 268.084C354.863 268.171 354.742 268.299 354.655 268.467C354.57 268.633 354.526 268.833 354.523 269.067ZM362.133 266.766V267.903H358.848V266.766H362.133ZM359.594 265.46H361.106V270.545C361.106 270.684 361.128 270.793 361.17 270.871C361.213 270.947 361.272 271 361.348 271.031C361.426 271.062 361.516 271.077 361.618 271.077C361.689 271.077 361.76 271.072 361.831 271.06C361.902 271.045 361.956 271.035 361.994 271.028L362.232 272.153C362.156 272.177 362.05 272.204 361.912 272.235C361.775 272.268 361.608 272.288 361.412 272.295C361.047 272.31 360.728 272.261 360.453 272.15C360.181 272.039 359.969 271.866 359.817 271.631C359.666 271.397 359.591 271.101 359.594 270.744V265.46Z" fill="#333333"/>
<path d="M186.042 261H183.545V253.956H186.063C186.771 253.956 187.381 254.097 187.892 254.379C188.404 254.659 188.797 255.061 189.072 255.586C189.35 256.112 189.488 256.74 189.488 257.471C189.488 258.205 189.35 258.835 189.072 259.363C188.797 259.89 188.401 260.295 187.886 260.577C187.372 260.859 186.757 261 186.042 261ZM185.034 259.724H185.98C186.42 259.724 186.791 259.646 187.091 259.49C187.394 259.332 187.621 259.088 187.772 258.758C187.926 258.425 188.003 257.996 188.003 257.471C188.003 256.951 187.926 256.525 187.772 256.195C187.621 255.865 187.395 255.622 187.095 255.466C186.794 255.31 186.424 255.232 185.984 255.232H185.034V259.724ZM192.07 261.1C191.733 261.1 191.433 261.041 191.169 260.924C190.906 260.805 190.697 260.63 190.543 260.398C190.392 260.164 190.316 259.873 190.316 259.525C190.316 259.231 190.37 258.985 190.478 258.785C190.586 258.586 190.733 258.425 190.918 258.304C191.104 258.182 191.315 258.09 191.551 258.028C191.79 257.966 192.039 257.923 192.301 257.898C192.608 257.866 192.856 257.836 193.044 257.808C193.232 257.778 193.368 257.735 193.453 257.678C193.538 257.62 193.58 257.535 193.58 257.423V257.402C193.58 257.185 193.512 257.016 193.374 256.897C193.239 256.778 193.046 256.718 192.796 256.718C192.532 256.718 192.323 256.776 192.167 256.893C192.011 257.008 191.908 257.152 191.857 257.327L190.502 257.217C190.571 256.896 190.706 256.618 190.908 256.384C191.11 256.148 191.37 255.967 191.689 255.841C192.01 255.713 192.381 255.648 192.803 255.648C193.097 255.648 193.377 255.683 193.646 255.752C193.916 255.82 194.156 255.927 194.365 256.071C194.575 256.216 194.742 256.402 194.863 256.629C194.985 256.853 195.046 257.123 195.046 257.437V261H193.656V260.267H193.615C193.53 260.433 193.416 260.578 193.274 260.704C193.132 260.828 192.961 260.925 192.762 260.997C192.562 261.065 192.332 261.1 192.07 261.1ZM192.49 260.089C192.706 260.089 192.896 260.046 193.061 259.961C193.226 259.874 193.356 259.757 193.45 259.61C193.544 259.464 193.591 259.298 193.591 259.112V258.551C193.545 258.581 193.482 258.608 193.401 258.634C193.324 258.657 193.235 258.678 193.137 258.699C193.038 258.717 192.939 258.735 192.841 258.751C192.742 258.764 192.653 258.777 192.573 258.788C192.401 258.814 192.25 258.854 192.122 258.909C191.994 258.964 191.894 259.038 191.823 259.132C191.752 259.224 191.716 259.339 191.716 259.476C191.716 259.676 191.788 259.828 191.933 259.934C192.08 260.037 192.265 260.089 192.49 260.089ZM198.992 255.717V256.818H195.811V255.717H198.992ZM196.533 254.451H197.998V259.377C197.998 259.512 198.019 259.617 198.06 259.693C198.101 259.766 198.159 259.818 198.232 259.848C198.308 259.878 198.395 259.893 198.493 259.893C198.562 259.893 198.631 259.887 198.7 259.875C198.769 259.862 198.821 259.851 198.858 259.844L199.088 260.935C199.015 260.958 198.912 260.984 198.779 261.014C198.646 261.046 198.484 261.065 198.294 261.072C197.941 261.086 197.631 261.039 197.365 260.931C197.102 260.823 196.896 260.656 196.75 260.429C196.603 260.202 196.531 259.915 196.533 259.569V254.451ZM201.453 261.1C201.116 261.1 200.816 261.041 200.552 260.924C200.288 260.805 200.08 260.63 199.926 260.398C199.775 260.164 199.699 259.873 199.699 259.525C199.699 259.231 199.753 258.985 199.861 258.785C199.968 258.586 200.115 258.425 200.301 258.304C200.487 258.182 200.698 258.09 200.934 258.028C201.172 257.966 201.422 257.923 201.684 257.898C201.991 257.866 202.238 257.836 202.426 257.808C202.614 257.778 202.751 257.735 202.836 257.678C202.921 257.62 202.963 257.535 202.963 257.423V257.402C202.963 257.185 202.894 257.016 202.757 256.897C202.621 256.778 202.429 256.718 202.179 256.718C201.915 256.718 201.705 256.776 201.549 256.893C201.393 257.008 201.29 257.152 201.24 257.327L199.885 257.217C199.953 256.896 200.089 256.618 200.291 256.384C200.492 256.148 200.753 255.967 201.071 255.841C201.392 255.713 201.764 255.648 202.186 255.648C202.479 255.648 202.76 255.683 203.028 255.752C203.299 255.82 203.538 255.927 203.747 256.071C203.958 256.216 204.124 256.402 204.246 256.629C204.367 256.853 204.428 257.123 204.428 257.437V261H203.039V260.267H202.997C202.913 260.433 202.799 260.578 202.657 260.704C202.515 260.828 202.344 260.925 202.144 260.997C201.945 261.065 201.714 261.1 201.453 261.1ZM201.873 260.089C202.088 260.089 202.279 260.046 202.444 259.961C202.609 259.874 202.738 259.757 202.832 259.61C202.926 259.464 202.973 259.298 202.973 259.112V258.551C202.927 258.581 202.864 258.608 202.784 258.634C202.706 258.657 202.618 258.678 202.519 258.699C202.421 258.717 202.322 258.735 202.223 258.751C202.125 258.764 202.035 258.777 201.955 258.788C201.783 258.814 201.633 258.854 201.505 258.909C201.376 258.964 201.277 259.038 201.205 259.132C201.134 259.224 201.099 259.339 201.099 259.476C201.099 259.676 201.171 259.828 201.315 259.934C201.462 260.037 201.648 260.089 201.873 260.089ZM165.612 265.956H167.449L169.389 270.689H169.471L171.411 265.956H173.248V273H171.803V268.415H171.745L169.922 272.966H168.938L167.115 268.398H167.057V273H165.612V265.956ZM176.834 273.103C176.3 273.103 175.838 272.99 175.448 272.763C175.06 272.533 174.761 272.215 174.55 271.807C174.339 271.396 174.234 270.92 174.234 270.379C174.234 269.833 174.339 269.357 174.55 268.948C174.761 268.538 175.06 268.219 175.448 267.992C175.838 267.763 176.3 267.648 176.834 267.648C177.368 267.648 177.829 267.763 178.217 267.992C178.606 268.219 178.907 268.538 179.118 268.948C179.329 269.357 179.434 269.833 179.434 270.379C179.434 270.92 179.329 271.396 179.118 271.807C178.907 272.215 178.606 272.533 178.217 272.763C177.829 272.99 177.368 273.103 176.834 273.103ZM176.841 271.968C177.084 271.968 177.287 271.899 177.45 271.762C177.612 271.622 177.735 271.432 177.818 271.191C177.903 270.95 177.945 270.676 177.945 270.369C177.945 270.062 177.903 269.788 177.818 269.547C177.735 269.306 177.612 269.116 177.45 268.976C177.287 268.836 177.084 268.766 176.841 268.766C176.596 268.766 176.389 268.836 176.222 268.976C176.057 269.116 175.932 269.306 175.847 269.547C175.764 269.788 175.723 270.062 175.723 270.369C175.723 270.676 175.764 270.95 175.847 271.191C175.932 271.432 176.057 271.622 176.222 271.762C176.389 271.899 176.596 271.968 176.841 271.968ZM182.334 273.086C181.932 273.086 181.569 272.983 181.243 272.776C180.92 272.568 180.663 272.262 180.473 271.858C180.285 271.452 180.191 270.955 180.191 270.365C180.191 269.76 180.288 269.257 180.483 268.856C180.678 268.452 180.937 268.15 181.26 267.951C181.586 267.749 181.943 267.648 182.33 267.648C182.626 267.648 182.872 267.699 183.07 267.8C183.269 267.898 183.43 268.022 183.551 268.171C183.675 268.318 183.769 268.462 183.833 268.604H183.878V265.956H185.34V273H183.895V272.154H183.833C183.764 272.301 183.667 272.446 183.541 272.591C183.417 272.733 183.255 272.851 183.056 272.945C182.859 273.039 182.618 273.086 182.334 273.086ZM182.798 271.92C183.034 271.92 183.234 271.856 183.396 271.727C183.561 271.597 183.688 271.414 183.775 271.181C183.864 270.947 183.909 270.673 183.909 270.359C183.909 270.044 183.865 269.772 183.778 269.54C183.691 269.308 183.565 269.13 183.4 269.003C183.235 268.877 183.034 268.814 182.798 268.814C182.557 268.814 182.354 268.88 182.189 269.01C182.024 269.141 181.899 269.322 181.814 269.554C181.729 269.785 181.687 270.054 181.687 270.359C181.687 270.666 181.729 270.938 181.814 271.174C181.901 271.408 182.026 271.591 182.189 271.724C182.354 271.855 182.557 271.92 182.798 271.92ZM186.544 273V267.717H188.009V273H186.544ZM187.28 267.036C187.062 267.036 186.876 266.964 186.72 266.819C186.566 266.673 186.489 266.497 186.489 266.293C186.489 266.091 186.566 265.918 186.72 265.774C186.876 265.627 187.062 265.554 187.28 265.554C187.498 265.554 187.684 265.627 187.837 265.774C187.993 265.918 188.071 266.091 188.071 266.293C188.071 266.497 187.993 266.673 187.837 266.819C187.684 266.964 187.498 267.036 187.28 267.036ZM192.024 267.717V268.818H188.763V267.717H192.024ZM189.51 273V267.335C189.51 266.952 189.584 266.635 189.733 266.383C189.885 266.13 190.091 265.941 190.352 265.815C190.614 265.689 190.911 265.626 191.243 265.626C191.468 265.626 191.673 265.643 191.859 265.678C192.047 265.712 192.187 265.743 192.279 265.77L192.017 266.871C191.96 266.853 191.889 266.835 191.804 266.819C191.721 266.803 191.637 266.795 191.549 266.795C191.334 266.795 191.184 266.846 191.099 266.947C191.014 267.045 190.972 267.184 190.972 267.363V273H189.51ZM192.919 273V267.717H194.384V273H192.919ZM193.655 267.036C193.437 267.036 193.25 266.964 193.095 266.819C192.941 266.673 192.864 266.497 192.864 266.293C192.864 266.091 192.941 265.918 193.095 265.774C193.25 265.627 193.437 265.554 193.655 265.554C193.873 265.554 194.059 265.627 194.212 265.774C194.368 265.918 194.446 266.091 194.446 266.293C194.446 266.497 194.368 266.673 194.212 266.819C194.059 266.964 193.873 267.036 193.655 267.036ZM197.945 273.103C197.404 273.103 196.938 272.989 196.549 272.759C196.161 272.528 195.863 272.207 195.654 271.796C195.448 271.386 195.345 270.913 195.345 270.379C195.345 269.838 195.449 269.363 195.658 268.955C195.869 268.545 196.168 268.225 196.555 267.996C196.943 267.764 197.404 267.648 197.938 267.648C198.399 267.648 198.802 267.732 199.149 267.899C199.495 268.067 199.769 268.302 199.971 268.604C200.172 268.907 200.284 269.263 200.304 269.671H198.922C198.883 269.407 198.78 269.195 198.612 269.034C198.447 268.872 198.23 268.79 197.962 268.79C197.735 268.79 197.537 268.852 197.367 268.976C197.2 269.097 197.069 269.275 196.975 269.509C196.881 269.743 196.834 270.026 196.834 270.359C196.834 270.696 196.88 270.982 196.972 271.218C197.066 271.455 197.197 271.635 197.367 271.758C197.537 271.882 197.735 271.944 197.962 271.944C198.129 271.944 198.28 271.91 198.413 271.841C198.548 271.772 198.659 271.672 198.746 271.542C198.836 271.409 198.894 271.249 198.922 271.064H200.304C200.281 271.467 200.171 271.823 199.974 272.13C199.779 272.435 199.51 272.673 199.166 272.845C198.822 273.017 198.415 273.103 197.945 273.103ZM202.749 273.1C202.412 273.1 202.111 273.041 201.848 272.924C201.584 272.805 201.375 272.63 201.222 272.398C201.07 272.164 200.995 271.873 200.995 271.525C200.995 271.231 201.049 270.985 201.156 270.785C201.264 270.586 201.411 270.425 201.597 270.304C201.782 270.182 201.993 270.09 202.23 270.028C202.468 269.966 202.718 269.923 202.979 269.898C203.287 269.866 203.534 269.836 203.722 269.808C203.91 269.778 204.047 269.735 204.131 269.678C204.216 269.62 204.259 269.535 204.259 269.423V269.402C204.259 269.185 204.19 269.016 204.052 268.897C203.917 268.778 203.724 268.718 203.475 268.718C203.211 268.718 203.001 268.776 202.845 268.893C202.689 269.008 202.586 269.152 202.536 269.327L201.18 269.217C201.249 268.896 201.385 268.618 201.586 268.384C201.788 268.148 202.048 267.967 202.367 267.841C202.688 267.713 203.06 267.648 203.481 267.648C203.775 267.648 204.056 267.683 204.324 267.752C204.595 267.82 204.834 267.927 205.043 268.071C205.254 268.216 205.42 268.402 205.542 268.629C205.663 268.853 205.724 269.123 205.724 269.437V273H204.334V272.267H204.293C204.208 272.433 204.095 272.578 203.953 272.704C203.81 272.828 203.64 272.925 203.44 272.997C203.241 273.065 203.01 273.1 202.749 273.1ZM203.168 272.089C203.384 272.089 203.574 272.046 203.739 271.961C203.904 271.874 204.034 271.757 204.128 271.61C204.222 271.464 204.269 271.298 204.269 271.112V270.551C204.223 270.581 204.16 270.608 204.08 270.634C204.002 270.657 203.914 270.678 203.815 270.699C203.716 270.717 203.618 270.735 203.519 270.751C203.421 270.764 203.331 270.777 203.251 270.788C203.079 270.814 202.929 270.854 202.8 270.909C202.672 270.964 202.572 271.038 202.501 271.132C202.43 271.224 202.395 271.339 202.395 271.476C202.395 271.676 202.467 271.828 202.611 271.934C202.758 272.037 202.944 272.089 203.168 272.089ZM209.671 267.717V268.818H206.489V267.717H209.671ZM207.211 266.451H208.677V271.377C208.677 271.512 208.697 271.617 208.739 271.693C208.78 271.766 208.837 271.818 208.91 271.848C208.986 271.878 209.073 271.893 209.172 271.893C209.241 271.893 209.309 271.887 209.378 271.875C209.447 271.862 209.5 271.851 209.536 271.844L209.767 272.935C209.694 272.958 209.59 272.984 209.457 273.014C209.324 273.046 209.163 273.065 208.972 273.072C208.619 273.086 208.31 273.039 208.044 272.931C207.78 272.823 207.575 272.656 207.428 272.429C207.281 272.202 207.209 271.915 207.211 271.569V266.451ZM210.625 273V267.717H212.09V273H210.625ZM211.361 267.036C211.143 267.036 210.956 266.964 210.8 266.819C210.647 266.673 210.57 266.497 210.57 266.293C210.57 266.091 210.647 265.918 210.8 265.774C210.956 265.627 211.143 265.554 211.361 265.554C211.579 265.554 211.765 265.627 211.918 265.774C212.074 265.918 212.152 266.091 212.152 266.293C212.152 266.497 212.074 266.673 211.918 266.819C211.765 266.964 211.579 267.036 211.361 267.036ZM215.651 273.103C215.117 273.103 214.655 272.99 214.265 272.763C213.877 272.533 213.578 272.215 213.367 271.807C213.156 271.396 213.051 270.92 213.051 270.379C213.051 269.833 213.156 269.357 213.367 268.948C213.578 268.538 213.877 268.219 214.265 267.992C214.655 267.763 215.117 267.648 215.651 267.648C216.185 267.648 216.646 267.763 217.033 267.992C217.423 268.219 217.724 268.538 217.935 268.948C218.145 269.357 218.251 269.833 218.251 270.379C218.251 270.92 218.145 271.396 217.935 271.807C217.724 272.215 217.423 272.533 217.033 272.763C216.646 272.99 216.185 273.103 215.651 273.103ZM215.658 271.968C215.901 271.968 216.104 271.899 216.266 271.762C216.429 271.622 216.552 271.432 216.634 271.191C216.719 270.95 216.762 270.676 216.762 270.369C216.762 270.062 216.719 269.788 216.634 269.547C216.552 269.306 216.429 269.116 216.266 268.976C216.104 268.836 215.901 268.766 215.658 268.766C215.412 268.766 215.206 268.836 215.039 268.976C214.873 269.116 214.749 269.306 214.664 269.547C214.581 269.788 214.54 270.062 214.54 270.369C214.54 270.676 214.581 270.95 214.664 271.191C214.749 271.432 214.873 271.622 215.039 271.762C215.206 271.899 215.412 271.968 215.658 271.968ZM220.669 269.946V273H219.204V267.717H220.6V268.649H220.662C220.779 268.342 220.975 268.099 221.25 267.92C221.525 267.739 221.859 267.648 222.251 267.648C222.618 267.648 222.938 267.729 223.211 267.889C223.483 268.05 223.695 268.279 223.847 268.577C223.998 268.873 224.074 269.226 224.074 269.636V273H222.609V269.898C222.611 269.574 222.528 269.322 222.361 269.141C222.194 268.958 221.963 268.866 221.67 268.866C221.473 268.866 221.298 268.908 221.147 268.993C220.998 269.078 220.881 269.202 220.796 269.365C220.714 269.525 220.671 269.719 220.669 269.946Z" fill="#333333"/>
<path d="M205.675 207.718V200.446H210.064V201.227H206.556V203.684H209.837V204.465H206.556V206.937H210.121V207.718H205.675ZM212.163 202.264L213.47 204.494L214.777 202.264H215.743L213.981 204.991L215.743 207.718H214.777L213.47 205.602L212.163 207.718H211.197L212.93 204.991L211.197 202.264H212.163ZM219.311 202.264V202.974H216.484V202.264H219.311ZM217.308 200.957H218.146V206.156C218.146 206.392 218.18 206.57 218.249 206.688C218.32 206.804 218.41 206.883 218.519 206.923C218.63 206.961 218.747 206.98 218.87 206.98C218.963 206.98 219.038 206.975 219.097 206.965C219.157 206.954 219.204 206.944 219.24 206.937L219.41 207.69C219.353 207.711 219.274 207.732 219.172 207.754C219.07 207.777 218.941 207.789 218.785 207.789C218.548 207.789 218.316 207.738 218.089 207.637C217.864 207.535 217.677 207.38 217.528 207.171C217.381 206.963 217.308 206.7 217.308 206.383V200.957ZM222.8 207.832C222.274 207.832 221.821 207.716 221.439 207.484C221.061 207.249 220.768 206.923 220.562 206.504C220.359 206.082 220.257 205.592 220.257 205.034C220.257 204.475 220.359 203.982 220.562 203.556C220.768 203.128 221.055 202.794 221.422 202.555C221.791 202.313 222.222 202.193 222.714 202.193C222.998 202.193 223.279 202.24 223.556 202.335C223.833 202.429 224.085 202.583 224.312 202.796C224.54 203.007 224.721 203.286 224.856 203.634C224.991 203.982 225.058 204.411 225.058 204.92V205.275H220.854V204.551H224.206C224.206 204.243 224.144 203.968 224.021 203.727C223.9 203.485 223.728 203.295 223.503 203.155C223.28 203.015 223.017 202.946 222.714 202.946C222.381 202.946 222.092 203.028 221.848 203.194C221.606 203.357 221.421 203.571 221.29 203.833C221.16 204.096 221.095 204.378 221.095 204.678V205.161C221.095 205.573 221.166 205.923 221.308 206.209C221.452 206.493 221.653 206.71 221.908 206.859C222.164 207.006 222.461 207.079 222.8 207.079C223.02 207.079 223.219 207.048 223.396 206.987C223.576 206.923 223.731 206.828 223.861 206.703C223.992 206.575 224.092 206.416 224.163 206.227L224.973 206.454C224.888 206.729 224.744 206.97 224.543 207.178C224.342 207.384 224.093 207.545 223.797 207.661C223.501 207.775 223.169 207.832 222.8 207.832ZM227.171 204.437V207.718H226.333V202.264H227.143V203.116H227.214C227.341 202.839 227.536 202.616 227.796 202.448C228.056 202.278 228.393 202.193 228.805 202.193C229.174 202.193 229.497 202.268 229.774 202.42C230.051 202.569 230.266 202.796 230.42 203.102C230.574 203.405 230.651 203.788 230.651 204.252V207.718H229.813V204.309C229.813 203.881 229.702 203.547 229.479 203.308C229.257 203.066 228.951 202.946 228.563 202.946C228.296 202.946 228.056 203.004 227.846 203.12C227.637 203.236 227.473 203.405 227.352 203.627C227.231 203.85 227.171 204.12 227.171 204.437ZM234.242 207.832C233.788 207.832 233.386 207.717 233.038 207.487C232.69 207.255 232.418 206.929 232.222 206.507C232.025 206.084 231.927 205.583 231.927 205.005C231.927 204.432 232.025 203.935 232.222 203.514C232.418 203.092 232.692 202.767 233.042 202.537C233.392 202.307 233.797 202.193 234.256 202.193C234.612 202.193 234.892 202.252 235.098 202.37C235.306 202.486 235.465 202.619 235.574 202.768C235.685 202.915 235.772 203.035 235.833 203.13H235.904V200.446H236.742V207.718H235.933V206.88H235.833C235.772 206.98 235.684 207.105 235.57 207.257C235.457 207.406 235.295 207.54 235.084 207.658C234.873 207.774 234.593 207.832 234.242 207.832ZM234.356 207.079C234.692 207.079 234.976 206.991 235.208 206.816C235.44 206.639 235.616 206.394 235.737 206.081C235.858 205.766 235.918 205.403 235.918 204.991C235.918 204.584 235.859 204.227 235.741 203.922C235.622 203.614 235.447 203.375 235.215 203.205C234.983 203.032 234.697 202.946 234.356 202.946C234.001 202.946 233.705 203.037 233.468 203.219C233.234 203.399 233.057 203.644 232.939 203.954C232.823 204.262 232.765 204.607 232.765 204.991C232.765 205.379 232.824 205.732 232.942 206.049C233.063 206.364 233.241 206.615 233.475 206.802C233.712 206.987 234.005 207.079 234.356 207.079ZM242.257 203.485L241.504 203.698C241.457 203.573 241.387 203.451 241.295 203.333C241.205 203.212 241.082 203.112 240.925 203.034C240.769 202.956 240.569 202.917 240.325 202.917C239.991 202.917 239.713 202.994 239.491 203.148C239.271 203.299 239.161 203.492 239.161 203.727C239.161 203.935 239.236 204.1 239.388 204.22C239.539 204.341 239.776 204.442 240.098 204.522L240.908 204.721C241.395 204.839 241.759 205.021 241.998 205.264C242.237 205.506 242.357 205.817 242.357 206.198C242.357 206.511 242.267 206.79 242.087 207.036C241.909 207.283 241.661 207.477 241.341 207.619C241.021 207.761 240.65 207.832 240.226 207.832C239.67 207.832 239.209 207.711 238.844 207.47C238.48 207.228 238.249 206.875 238.152 206.411L238.947 206.213C239.023 206.506 239.166 206.726 239.377 206.873C239.59 207.02 239.868 207.093 240.212 207.093C240.602 207.093 240.912 207.01 241.142 206.845C241.374 206.677 241.49 206.475 241.49 206.241C241.49 206.052 241.424 205.893 241.291 205.765C241.159 205.635 240.955 205.538 240.68 205.474L239.771 205.261C239.272 205.142 238.905 204.959 238.67 204.71C238.438 204.459 238.322 204.146 238.322 203.769C238.322 203.462 238.409 203.189 238.582 202.953C238.757 202.716 238.995 202.53 239.295 202.395C239.598 202.26 239.942 202.193 240.325 202.193C240.865 202.193 241.289 202.311 241.597 202.548C241.907 202.785 242.127 203.097 242.257 203.485Z" fill="#333333"/>
<path d="M129.104 23.5692V23.001L133.677 20.6715V21.5806L130.169 23.2709L130.197 23.2141V23.3561L130.169 23.2993L133.677 24.9896V25.8987L129.104 23.5692ZM135.695 23.5692V23.001L140.269 20.6715V21.5806L136.761 23.2709L136.789 23.2141V23.3561L136.761 23.2993L140.269 24.9896V25.8987L135.695 23.5692ZM142.046 26.126V20.6715H142.884V26.126H142.046ZM142.472 19.7624C142.309 19.7624 142.168 19.7067 142.049 19.5955C141.933 19.4842 141.875 19.3504 141.875 19.1942C141.875 19.0379 141.933 18.9042 142.049 18.7929C142.168 18.6816 142.309 18.626 142.472 18.626C142.635 18.626 142.775 18.6816 142.891 18.7929C143.009 18.9042 143.068 19.0379 143.068 19.1942C143.068 19.3504 143.009 19.4842 142.891 19.5955C142.775 19.7067 142.635 19.7624 142.472 19.7624ZM145.257 22.8448V26.126H144.419V20.6715H145.228V21.5237H145.299C145.427 21.2467 145.621 21.0242 145.882 20.8561C146.142 20.6857 146.478 20.6004 146.89 20.6004C147.26 20.6004 147.583 20.6762 147.86 20.8277C148.137 20.9769 148.352 21.2041 148.506 21.5095C148.66 21.8126 148.737 22.1961 148.737 22.6601V26.126H147.899V22.7169C147.899 22.2884 147.788 21.9546 147.565 21.7155C147.343 21.474 147.037 21.3533 146.649 21.3533C146.381 21.3533 146.142 21.4113 145.932 21.5273C145.723 21.6433 145.559 21.8126 145.438 22.0351C145.317 22.2576 145.257 22.5275 145.257 22.8448ZM152.484 26.2396C151.973 26.2396 151.533 26.1189 151.163 25.8774C150.794 25.636 150.51 25.3033 150.311 24.8796C150.112 24.4558 150.013 23.9717 150.013 23.4271C150.013 22.8732 150.115 22.3843 150.318 21.9605C150.524 21.5344 150.811 21.2018 151.177 20.9627C151.547 20.7212 151.978 20.6004 152.47 20.6004C152.854 20.6004 153.199 20.6715 153.507 20.8135C153.815 20.9556 154.067 21.1544 154.263 21.4101C154.46 21.6658 154.582 21.9641 154.629 22.305H153.791C153.727 22.0564 153.585 21.8362 153.365 21.6445C153.147 21.4503 152.854 21.3533 152.484 21.3533C152.158 21.3533 151.871 21.4385 151.625 21.609C151.381 21.777 151.191 22.015 151.053 22.3227C150.918 22.6281 150.851 22.9868 150.851 23.3987C150.851 23.8201 150.917 24.1871 151.05 24.4996C151.185 24.8121 151.374 25.0547 151.618 25.2276C151.864 25.4004 152.153 25.4868 152.484 25.4868C152.702 25.4868 152.9 25.4489 153.077 25.3732C153.255 25.2974 153.405 25.1885 153.528 25.0465C153.651 24.9044 153.739 24.734 153.791 24.5351H154.629C154.582 24.8571 154.465 25.1471 154.278 25.4051C154.093 25.6608 153.848 25.8644 153.543 26.0159C153.24 26.1651 152.887 26.2396 152.484 26.2396ZM156.692 18.8533V26.126H155.854V18.8533H156.692ZM161.665 23.8959V20.6715H162.503V26.126H161.665V25.2027H161.608C161.48 25.4797 161.281 25.7153 161.011 25.9094C160.742 26.1011 160.401 26.197 159.989 26.197C159.648 26.197 159.345 26.1225 159.08 25.9733C158.815 25.8218 158.606 25.5945 158.455 25.2915C158.303 24.9861 158.227 24.6014 158.227 24.1374V20.6715H159.065V24.0806C159.065 24.4783 159.177 24.7955 159.399 25.0323C159.624 25.269 159.911 25.3874 160.259 25.3874C160.467 25.3874 160.679 25.3341 160.894 25.2276C161.112 25.121 161.294 24.9577 161.441 24.7375C161.59 24.5173 161.665 24.2368 161.665 23.8959ZM166.098 26.2396C165.643 26.2396 165.242 26.1248 164.894 25.8952C164.546 25.6632 164.273 25.3365 164.077 24.9151C163.881 24.4913 163.782 23.9906 163.782 23.4129C163.782 22.84 163.881 22.3429 164.077 21.9215C164.273 21.5001 164.547 21.1745 164.897 20.9449C165.248 20.7153 165.653 20.6004 166.112 20.6004C166.467 20.6004 166.747 20.6596 166.953 20.778C167.162 20.894 167.32 21.0266 167.429 21.1757C167.541 21.3225 167.627 21.4432 167.689 21.5379H167.76V18.8533H168.598V26.126H167.788V25.2879H167.689C167.627 25.3874 167.539 25.5128 167.426 25.6644C167.312 25.8135 167.15 25.9473 166.939 26.0656C166.729 26.1816 166.448 26.2396 166.098 26.2396ZM166.211 25.4868C166.547 25.4868 166.831 25.3992 167.064 25.224C167.296 25.0465 167.472 24.8014 167.593 24.4889C167.713 24.1741 167.774 23.8107 167.774 23.3987C167.774 22.9915 167.715 22.6352 167.596 22.3298C167.478 22.0221 167.303 21.783 167.071 21.6125C166.839 21.4397 166.552 21.3533 166.211 21.3533C165.856 21.3533 165.56 21.4444 165.323 21.6267C165.089 21.8066 164.913 22.0517 164.794 22.3618C164.678 22.6696 164.62 23.0152 164.62 23.3987C164.62 23.787 164.68 24.1397 164.798 24.457C164.919 24.7718 165.096 25.0228 165.331 25.2098C165.567 25.3945 165.861 25.4868 166.211 25.4868ZM172.536 26.2396C172.01 26.2396 171.557 26.1236 171.176 25.8916C170.797 25.6573 170.505 25.3306 170.299 24.9115C170.095 24.4901 169.993 24.0001 169.993 23.4413C169.993 22.8826 170.095 22.3902 170.299 21.9641C170.505 21.5356 170.791 21.2018 171.158 20.9627C171.527 20.7212 171.958 20.6004 172.451 20.6004C172.735 20.6004 173.015 20.6478 173.292 20.7425C173.569 20.8372 173.821 20.9911 174.049 21.2041C174.276 21.4148 174.457 21.6942 174.592 22.0422C174.727 22.3902 174.794 22.8187 174.794 23.3277V23.6828H170.59V22.9584H173.942C173.942 22.6506 173.881 22.376 173.757 22.1345C173.637 21.8931 173.464 21.7025 173.239 21.5628C173.016 21.4231 172.754 21.3533 172.451 21.3533C172.117 21.3533 171.828 21.4361 171.584 21.6019C171.343 21.7652 171.157 21.9783 171.027 22.2411C170.896 22.5038 170.831 22.7856 170.831 23.0862V23.5692C170.831 23.9811 170.902 24.3303 171.044 24.6168C171.189 24.9009 171.389 25.1175 171.644 25.2666C171.9 25.4134 172.197 25.4868 172.536 25.4868C172.756 25.4868 172.955 25.456 173.132 25.3945C173.312 25.3306 173.467 25.2359 173.598 25.1104C173.728 24.9825 173.828 24.8239 173.899 24.6345L174.709 24.8618C174.624 25.1364 174.481 25.3779 174.279 25.5862C174.078 25.7922 173.83 25.9532 173.534 26.0692C173.238 26.1828 172.905 26.2396 172.536 26.2396ZM180.885 23.5692L176.311 25.8987V24.9896L179.819 23.2993L179.791 23.3561V23.2141L179.819 23.2709L176.311 21.5806V20.6715L180.885 23.001V23.5692ZM187.476 23.5692L182.902 25.8987V24.9896L186.411 23.2993L186.383 23.3561V23.2141L186.411 23.2709L182.902 21.5806V20.6715L187.476 23.001V23.5692Z" fill="#333333"/>
<path d="M238.437 83.0212V82.453L243.01 80.1235V81.0325L239.502 82.7229L239.53 82.6661V82.8081L239.502 82.7513L243.01 84.4416V85.3507L238.437 83.0212ZM245.028 83.0212V82.453L249.602 80.1235V81.0325L246.094 82.7229L246.122 82.6661V82.8081L246.094 82.7513L249.602 84.4416V85.3507L245.028 83.0212ZM251.379 85.578V80.1235H252.217V85.578H251.379ZM251.805 79.2144C251.641 79.2144 251.501 79.1587 251.382 79.0475C251.266 78.9362 251.208 78.8024 251.208 78.6462C251.208 78.4899 251.266 78.3562 251.382 78.2449C251.501 78.1336 251.641 78.078 251.805 78.078C251.968 78.078 252.108 78.1336 252.224 78.2449C252.342 78.3562 252.401 78.4899 252.401 78.6462C252.401 78.8024 252.342 78.9362 252.224 79.0475C252.108 79.1587 251.968 79.2144 251.805 79.2144ZM254.59 82.2968V85.578H253.752V80.1235H254.561V80.9757H254.632C254.76 80.6987 254.954 80.4762 255.215 80.3081C255.475 80.1377 255.811 80.0524 256.223 80.0524C256.593 80.0524 256.916 80.1282 257.193 80.2797C257.47 80.4289 257.685 80.6561 257.839 80.9615C257.993 81.2646 258.07 81.6481 258.07 82.1121V85.578H257.232V82.1689C257.232 81.7404 257.121 81.4066 256.898 81.1675C256.675 80.926 256.37 80.8053 255.982 80.8053C255.714 80.8053 255.475 80.8633 255.264 80.9793C255.056 81.0953 254.892 81.2646 254.771 81.4871C254.65 81.7096 254.59 81.9795 254.59 82.2968ZM261.817 85.6916C261.306 85.6916 260.866 85.5709 260.496 85.3294C260.127 85.0879 259.843 84.7553 259.644 84.3316C259.445 83.9078 259.346 83.4236 259.346 82.8791C259.346 82.3252 259.447 81.8363 259.651 81.4125C259.857 80.9864 260.143 80.6538 260.51 80.4147C260.88 80.1732 261.311 80.0524 261.803 80.0524C262.187 80.0524 262.532 80.1235 262.84 80.2655C263.148 80.4075 263.4 80.6064 263.596 80.8621C263.793 81.1178 263.915 81.4161 263.962 81.757H263.124C263.06 81.5084 262.918 81.2882 262.698 81.0965C262.48 80.9023 262.187 80.8053 261.817 80.8053C261.491 80.8053 261.204 80.8905 260.958 81.061C260.714 81.229 260.523 81.467 260.386 81.7747C260.251 82.0801 260.184 82.4388 260.184 82.8507C260.184 83.2721 260.25 83.6391 260.383 83.9516C260.517 84.2641 260.707 84.5067 260.951 84.6796C261.197 84.8524 261.486 84.9388 261.817 84.9388C262.035 84.9388 262.233 84.9009 262.41 84.8252C262.588 84.7494 262.738 84.6405 262.861 84.4985C262.984 84.3564 263.072 84.186 263.124 83.9871H263.962C263.915 84.3091 263.798 84.5991 263.611 84.8571C263.426 85.1128 263.181 85.3164 262.875 85.4679C262.572 85.6171 262.22 85.6916 261.817 85.6916ZM266.025 78.3053V85.578H265.187V78.3053H266.025ZM270.998 83.3479V80.1235H271.836V85.578H270.998V84.6547H270.941C270.813 84.9317 270.614 85.1673 270.344 85.3614C270.074 85.5531 269.734 85.649 269.322 85.649C268.981 85.649 268.678 85.5745 268.413 85.4253C268.147 85.2738 267.939 85.0465 267.788 84.7435C267.636 84.4381 267.56 84.0534 267.56 83.5894V80.1235H268.398V83.5325C268.398 83.9303 268.51 84.2475 268.732 84.4843C268.957 84.721 269.244 84.8394 269.592 84.8394C269.8 84.8394 270.012 84.7861 270.227 84.6796C270.445 84.573 270.627 84.4097 270.774 84.1895C270.923 83.9693 270.998 83.6888 270.998 83.3479ZM275.43 85.6916C274.976 85.6916 274.575 85.5768 274.227 85.3472C273.879 85.1152 273.606 84.7885 273.41 84.3671C273.213 83.9433 273.115 83.4426 273.115 82.8649C273.115 82.292 273.213 81.7949 273.41 81.3735C273.606 80.9521 273.88 80.6265 274.23 80.3969C274.581 80.1673 274.985 80.0524 275.445 80.0524C275.8 80.0524 276.08 80.1116 276.286 80.23C276.495 80.346 276.653 80.4786 276.762 80.6277C276.873 80.7745 276.96 80.8952 277.021 80.9899H277.092V78.3053H277.93V85.578H277.121V84.7399H277.021C276.96 84.8394 276.872 84.9648 276.759 85.1164C276.645 85.2655 276.483 85.3993 276.272 85.5176C276.061 85.6336 275.781 85.6916 275.43 85.6916ZM275.544 84.9388C275.88 84.9388 276.164 84.8512 276.396 84.676C276.628 84.4985 276.805 84.2534 276.926 83.9409C277.046 83.6261 277.107 83.2627 277.107 82.8507C277.107 82.4435 277.047 82.0872 276.929 81.7818C276.811 81.4741 276.636 81.235 276.404 81.0645C276.171 80.8917 275.885 80.8053 275.544 80.8053C275.189 80.8053 274.893 80.8964 274.656 81.0787C274.422 81.2586 274.246 81.5037 274.127 81.8138C274.011 82.1216 273.953 82.4672 273.953 82.8507C273.953 83.239 274.012 83.5917 274.131 83.909C274.252 84.2238 274.429 84.4748 274.663 84.6618C274.9 84.8465 275.194 84.9388 275.544 84.9388ZM281.869 85.6916C281.343 85.6916 280.89 85.5756 280.509 85.3436C280.13 85.1093 279.837 84.7825 279.631 84.3635C279.428 83.9421 279.326 83.4521 279.326 82.8933C279.326 82.3346 279.428 81.8422 279.631 81.4161C279.837 80.9876 280.124 80.6538 280.491 80.4147C280.86 80.1732 281.291 80.0524 281.783 80.0524C282.068 80.0524 282.348 80.0998 282.625 80.1945C282.902 80.2892 283.154 80.4431 283.381 80.6561C283.609 80.8668 283.79 81.1462 283.925 81.4942C284.06 81.8422 284.127 82.2707 284.127 82.7797V83.1348H279.923V82.4104H283.275C283.275 82.1026 283.213 81.828 283.09 81.5865C282.97 81.345 282.797 81.1545 282.572 81.0148C282.349 80.8751 282.087 80.8053 281.783 80.8053C281.45 80.8053 281.161 80.8881 280.917 81.0539C280.676 81.2172 280.49 81.4303 280.359 81.6931C280.229 81.9558 280.164 82.2376 280.164 82.5382V83.0212C280.164 83.4331 280.235 83.7823 280.377 84.0688C280.522 84.3529 280.722 84.5695 280.977 84.7186C281.233 84.8654 281.53 84.9388 281.869 84.9388C282.089 84.9388 282.288 84.908 282.465 84.8465C282.645 84.7825 282.8 84.6879 282.93 84.5624C283.061 84.4345 283.161 84.2759 283.232 84.0865L284.042 84.3138C283.957 84.5884 283.814 84.8299 283.612 85.0382C283.411 85.2442 283.163 85.4052 282.867 85.5212C282.571 85.6348 282.238 85.6916 281.869 85.6916ZM290.217 83.0212L285.644 85.3507V84.4416L289.152 82.7513L289.124 82.8081V82.6661L289.152 82.7229L285.644 81.0325V80.1235L290.217 82.453V83.0212ZM296.809 83.0212L292.235 85.3507V84.4416L295.744 82.7513L295.715 82.8081V82.6661L295.744 82.7229L292.235 81.0325V80.1235L296.809 82.453V83.0212Z" fill="#333333"/>
<path d="M303.64 209.816V202.544H308.029V203.325H304.52V205.782H307.802V206.564H304.52V209.035H308.086V209.816H303.64ZM310.128 204.362L311.434 206.592L312.741 204.362H313.707L311.946 207.089L313.707 209.816H312.741L311.434 207.7L310.128 209.816H309.162L310.895 207.089L309.162 204.362H310.128ZM317.275 204.362V205.072H314.449V204.362H317.275ZM315.272 203.055H316.11V208.254C316.11 208.491 316.145 208.668 316.213 208.787C316.284 208.903 316.374 208.981 316.483 209.021C316.595 209.059 316.712 209.078 316.835 209.078C316.927 209.078 317.003 209.073 317.062 209.064C317.121 209.052 317.169 209.042 317.204 209.035L317.375 209.788C317.318 209.809 317.239 209.831 317.137 209.852C317.035 209.876 316.906 209.887 316.75 209.887C316.513 209.887 316.281 209.837 316.054 209.735C315.829 209.633 315.642 209.478 315.493 209.27C315.346 209.061 315.272 208.798 315.272 208.481V203.055ZM320.764 209.93C320.239 209.93 319.785 209.814 319.404 209.582C319.025 209.348 318.733 209.021 318.527 208.602C318.323 208.181 318.222 207.69 318.222 207.132C318.222 206.573 318.323 206.081 318.527 205.654C318.733 205.226 319.019 204.892 319.386 204.653C319.756 204.412 320.187 204.291 320.679 204.291C320.963 204.291 321.244 204.338 321.521 204.433C321.798 204.528 322.05 204.681 322.277 204.895C322.504 205.105 322.685 205.385 322.82 205.733C322.955 206.081 323.023 206.509 323.023 207.018V207.373H318.818V206.649H322.17C322.17 206.341 322.109 206.066 321.986 205.825C321.865 205.583 321.692 205.393 321.467 205.253C321.245 205.114 320.982 205.044 320.679 205.044C320.345 205.044 320.056 205.127 319.813 205.292C319.571 205.456 319.385 205.669 319.255 205.931C319.125 206.194 319.06 206.476 319.06 206.777V207.26C319.06 207.672 319.131 208.021 319.273 208.307C319.417 208.591 319.617 208.808 319.873 208.957C320.129 209.104 320.426 209.177 320.764 209.177C320.984 209.177 321.183 209.146 321.361 209.085C321.541 209.021 321.696 208.926 321.826 208.801C321.956 208.673 322.057 208.514 322.128 208.325L322.938 208.552C322.852 208.827 322.709 209.068 322.508 209.277C322.307 209.483 322.058 209.644 321.762 209.76C321.466 209.873 321.134 209.93 320.764 209.93ZM325.136 206.535V209.816H324.298V204.362H325.107V205.214H325.178C325.306 204.937 325.5 204.715 325.761 204.547C326.021 204.376 326.357 204.291 326.769 204.291C327.139 204.291 327.462 204.367 327.739 204.518C328.016 204.667 328.231 204.895 328.385 205.2C328.539 205.503 328.616 205.886 328.616 206.35V209.816H327.778V206.407C327.778 205.979 327.666 205.645 327.444 205.406C327.221 205.164 326.916 205.044 326.528 205.044C326.26 205.044 326.021 205.102 325.81 205.218C325.602 205.334 325.438 205.503 325.317 205.725C325.196 205.948 325.136 206.218 325.136 206.535ZM332.207 209.93C331.752 209.93 331.351 209.815 331.003 209.586C330.655 209.354 330.383 209.027 330.186 208.605C329.99 208.182 329.892 207.681 329.892 207.103C329.892 206.53 329.99 206.033 330.186 205.612C330.383 205.19 330.656 204.865 331.007 204.635C331.357 204.406 331.762 204.291 332.221 204.291C332.576 204.291 332.857 204.35 333.063 204.468C333.271 204.584 333.43 204.717 333.539 204.866C333.65 205.013 333.736 205.134 333.798 205.228H333.869V202.544H334.707V209.816H333.897V208.978H333.798C333.736 209.078 333.649 209.203 333.535 209.355C333.421 209.504 333.259 209.638 333.048 209.756C332.838 209.872 332.557 209.93 332.207 209.93ZM332.32 209.177C332.657 209.177 332.941 209.09 333.173 208.914C333.405 208.737 333.581 208.492 333.702 208.179C333.823 207.864 333.883 207.501 333.883 207.089C333.883 206.682 333.824 206.326 333.705 206.02C333.587 205.712 333.412 205.473 333.18 205.303C332.948 205.13 332.661 205.044 332.32 205.044C331.965 205.044 331.669 205.135 331.433 205.317C331.198 205.497 331.022 205.742 330.904 206.052C330.788 206.36 330.73 206.706 330.73 207.089C330.73 207.477 330.789 207.83 330.907 208.147C331.028 208.462 331.205 208.713 331.44 208.9C331.677 209.085 331.97 209.177 332.32 209.177ZM340.222 205.583L339.469 205.797C339.422 205.671 339.352 205.549 339.259 205.431C339.169 205.31 339.046 205.211 338.89 205.132C338.734 205.054 338.534 205.015 338.29 205.015C337.956 205.015 337.678 205.092 337.455 205.246C337.235 205.398 337.125 205.591 337.125 205.825C337.125 206.033 337.201 206.198 337.352 206.319C337.504 206.439 337.741 206.54 338.063 206.62L338.872 206.819C339.36 206.938 339.723 207.119 339.963 207.363C340.202 207.604 340.321 207.915 340.321 208.297C340.321 208.609 340.231 208.888 340.051 209.135C339.874 209.381 339.625 209.575 339.306 209.717C338.986 209.859 338.614 209.93 338.191 209.93C337.634 209.93 337.174 209.809 336.809 209.568C336.445 209.326 336.214 208.974 336.117 208.51L336.912 208.311C336.988 208.604 337.131 208.824 337.342 208.971C337.555 209.118 337.833 209.191 338.176 209.191C338.567 209.191 338.877 209.109 339.107 208.943C339.339 208.775 339.455 208.574 339.455 208.339C339.455 208.15 339.388 207.991 339.256 207.863C339.123 207.733 338.92 207.636 338.645 207.572L337.736 207.359C337.236 207.241 336.87 207.057 336.635 206.809C336.403 206.558 336.287 206.244 336.287 205.868C336.287 205.56 336.374 205.288 336.546 205.051C336.722 204.814 336.959 204.628 337.26 204.493C337.563 204.358 337.906 204.291 338.29 204.291C338.83 204.291 339.254 204.409 339.561 204.646C339.871 204.883 340.092 205.195 340.222 205.583Z" fill="#333333"/>
<path d="M199.206 243.567L218.85 211.388" stroke="black"/>
<path d="M329.031 244.775L321.753 214.174" stroke="black"/>
<path d="M309.104 169.451L307.691 175.168L313.178 173.374L309.104 169.451ZM318.741 202.485L310.777 173.633L309.826 173.944L317.791 202.795L318.741 202.485Z" fill="black"/>
<path d="M303 60L299.472 64.5702L305.194 65.3404L303 60ZM296.496 112.067L296.63 111.067L295.639 110.933L295.504 111.933L296.496 112.067ZM296.899 109.067L297.169 107.067L296.178 106.933L295.908 108.933L296.899 109.067ZM297.438 105.067L297.707 103.067L296.716 102.933L296.447 104.933L297.438 105.067ZM297.976 101.067L298.246 99.0667L297.254 98.9333L296.985 100.933L297.976 101.067ZM298.515 97.0667L298.784 95.0667L297.793 94.9333L297.524 96.9333L298.515 97.0667ZM299.053 93.0667L299.322 91.0667L298.331 90.9333L298.062 92.9333L299.053 93.0667ZM299.592 89.0667L299.861 87.0667L298.87 86.9333L298.601 88.9333L299.592 89.0667ZM300.13 85.0667L300.399 83.0667L299.408 82.9333L299.139 84.9333L300.13 85.0667ZM300.669 81.0667L300.938 79.0667L299.947 78.9333L299.678 80.9333L300.669 81.0667ZM301.207 77.0667L301.476 75.0667L300.485 74.9333L300.216 76.9333L301.207 77.0667ZM301.746 73.0667L302.015 71.0667L301.024 70.9333L300.754 72.9333L301.746 73.0667ZM302.284 69.0667L302.553 67.0667L301.562 66.9333L301.293 68.9333L302.284 69.0667ZM302.822 65.0667L303.092 63.0667L302.101 62.9333L301.831 64.9333L302.822 65.0667ZM303 60L299.472 64.5702L305.194 65.3404L303 60ZM296.496 112.067L296.63 111.067L295.639 110.933L295.504 111.933L296.496 112.067ZM296.899 109.067L297.169 107.067L296.178 106.933L295.908 108.933L296.899 109.067ZM297.438 105.067L297.707 103.067L296.716 102.933L296.447 104.933L297.438 105.067ZM297.976 101.067L298.246 99.0667L297.254 98.9333L296.985 100.933L297.976 101.067ZM298.515 97.0667L298.784 95.0667L297.793 94.9333L297.524 96.9333L298.515 97.0667ZM299.053 93.0667L299.322 91.0667L298.331 90.9333L298.062 92.9333L299.053 93.0667ZM299.592 89.0667L299.861 87.0667L298.87 86.9333L298.601 88.9333L299.592 89.0667ZM300.13 85.0667L300.399 83.0667L299.408 82.9333L299.139 84.9333L300.13 85.0667ZM300.669 81.0667L300.938 79.0667L299.947 78.9333L299.678 80.9333L300.669 81.0667ZM301.207 77.0667L301.476 75.0667L300.485 74.9333L300.216 76.9333L301.207 77.0667ZM301.746 73.0667L302.015 71.0667L301.024 70.9333L300.754 72.9333L301.746 73.0667ZM302.284 69.0667L302.553 67.0667L301.562 66.9333L301.293 68.9333L302.284 69.0667ZM302.822 65.0667L303.092 63.0667L302.101 62.9333L301.831 64.9333L302.822 65.0667Z" fill="black"/>
<path d="M303 60L305.5 65.5L299 64.5L303 60Z" fill="black"/>
<path d="M249.404 161.372L244.425 163.876L249.052 167.329L249.404 161.372ZM225.853 199.681L247.406 165.478L246.604 164.88L225.051 199.083L225.853 199.681Z" fill="black"/>
<path d="M141.62 47.9189L141.62 45.0003L142.117 44.9855L142.117 44.0439L143.102 44.0439L143.117 43.541L146.111 43.541L146.096 44.0439L149.09 44.0439L149.105 43.541L152.099 43.541L152.084 44.0439L155.078 44.0439L155.093 43.541L158.087 43.541L158.072 44.0439L161.066 44.0439L161.081 43.541L164.075 43.541L164.06 44.0439L167.054 44.0439L167.069 43.541L170.063 43.541L170.048 44.0439L173.042 44.0439L173.057 43.541L176.051 43.541L176.036 44.0439L179.03 44.0439L179.045 43.541L182.039 43.541L182.024 44.0439L185.018 44.0439L185.033 43.541L188.027 43.541L188.012 44.0439L191.006 44.0439L191.021 43.541L194.015 43.541L194 44.0439L196.994 44.0439L197.009 43.541L200.003 43.541L199.988 44.0439L202.982 44.0439L202.997 43.541L205.991 43.541L205.976 44.0439L208.97 44.0439L208.985 43.541L211.979 43.541L211.964 44.0439L214.958 44.0439L214.973 43.541L217.967 43.541L217.952 44.0439L220.946 44.0439L220.961 43.541L223.955 43.541L223.94 44.0439L226.934 44.0439L226.949 43.541L229.943 43.541L229.928 44.0439L232.922 44.0439L232.937 43.541L235.931 43.541L235.916 44.0439L238.91 44.0439L238.925 43.541L241.919 43.541L241.904 44.0439L244.898 44.0439L244.913 43.541L247.907 43.541L247.892 44.0439L250.886 44.0439L250.901 43.541L253.895 43.541L253.88 44.0439L256.874 44.0439L256.889 43.541L259.883 43.541L259.868 44.0439L261.365 44.0439L261.877 44.0439L261.877 43.5262L261.877 42.8782L261.38 42.893L261.38 41.597L261.453 41.5948L262.356 42.1622L262.627 41.7327L265.123 43.3002L264.851 43.7297L265.428 44.0917L264.869 44.4426L265.122 44.8677L262.627 46.4352L262.374 46.0101L261.487 46.5678L261.38 46.571L261.38 45.275L261.877 45.2602L261.877 44.6122L261.877 44.124L261.395 44.124L259.91 44.124L259.895 44.627L256.926 44.627L256.941 44.124L253.972 44.124L253.957 44.627L250.988 44.627L251.003 44.124L248.034 44.124L248.019 44.627L245.05 44.627L245.065 44.124L242.096 44.124L242.081 44.627L239.112 44.627L239.127 44.124L236.158 44.124L236.143 44.627L233.174 44.627L233.189 44.124L230.22 44.124L230.205 44.627L227.236 44.627L227.25 44.124L224.281 44.124L224.267 44.627L221.298 44.627L221.312 44.124L218.343 44.124L218.329 44.627L215.36 44.627L215.374 44.124L212.405 44.124L212.391 44.627L209.422 44.627L209.436 44.124L206.467 44.124L206.453 44.627L203.484 44.627L203.498 44.124L200.529 44.124L200.514 44.627L197.545 44.627L197.56 44.124L194.591 44.124L194.576 44.627L191.607 44.627L191.622 44.124L188.653 44.124L188.638 44.627L185.669 44.627L185.684 44.124L182.715 44.124L182.7 44.627L179.731 44.627L179.746 44.124L176.777 44.124L176.762 44.627L173.793 44.627L173.808 44.124L170.839 44.124L170.824 44.627L167.855 44.627L167.87 44.124L164.9 44.124L164.886 44.627L161.917 44.627L161.931 44.124L158.962 44.124L158.948 44.627L155.979 44.627L155.993 44.124L153.024 44.124L153.01 44.627L150.041 44.627L150.055 44.124L147.086 44.124L147.072 44.627L144.103 44.627L144.117 44.124L142.633 44.124L142.121 44.124L142.121 44.6417L142.121 46.101L142.618 46.0863L142.618 49.0049L142.121 49.0197L142.121 51.9383L142.618 51.9235L142.618 54.8422L142.121 54.8569L142.121 57.7755L142.618 57.7608L142.618 60.6794L142.121 60.6942L142.121 63.6128L142.618 63.5981L142.618 66.5167L142.121 66.5314L142.121 67.473L141.136 67.473L141.121 67.976L138.127 67.976L138.142 67.473L135.148 67.473L135.133 67.976L132.139 67.976L132.154 67.473L129.16 67.473L129.145 67.976L126.151 67.976L126.166 67.473L123.172 67.473L123.157 67.976L120.163 67.976L120.178 67.473L117.184 67.473L117.169 67.976L114.175 67.976L114.19 67.473L111.196 67.473L111.181 67.976L108.187 67.976L108.202 67.473L105.208 67.473L105.193 67.976L102.199 67.976L102.214 67.473L99.2196 67.473L99.205 67.976L96.211 67.976L96.2256 67.473L93.2316 67.473L93.217 67.976L90.223 67.976L90.2376 67.473L87.2436 67.473L87.229 67.976L84.235 67.976L84.2496 67.473L81.2556 67.473L81.241 67.976L78.247 67.976L78.2616 67.473L75.2676 67.473L75.253 67.976L72.259 67.976L72.2736 67.473L69.2796 67.473L69.265 67.976L66.271 67.976L66.2856 67.473L63.2916 67.473L63.277 67.976L60.283 67.976L60.2976 67.473L57.3036 67.473L57.289 67.976L54.295 67.976L54.3096 67.473L51.3156 67.473L51.301 67.976L48.307 67.976L48.3216 67.473L45.3276 67.473L45.313 67.976L42.319 67.976L42.3336 67.473L39.3396 67.473L39.325 67.976L36.331 67.976L36.3456 67.473L34.8486 67.473L34.8419 67.7042L34.834 67.7045L34.834 67.3929L36.3025 67.3929L36.3171 66.89L39.2834 66.89L39.2688 67.3929L42.2351 67.3929L42.2497 66.89L45.2159 66.89L45.2014 67.3929L48.1677 67.3929L48.1822 66.89L51.1485 66.89L51.1339 67.3929L54.1002 67.3929L54.1148 66.89L57.0811 66.89L57.0665 67.3929L60.0328 67.3929L60.0474 66.89L63.0136 66.89L62.9991 67.3929L65.9653 67.3929L65.9799 66.89L68.9462 66.89L68.9316 67.3929L71.8979 67.3929L71.9125 66.89L74.8788 66.89L74.8642 67.3929L77.8305 67.3929L77.845 66.89L80.8113 66.89L80.7967 67.3929L83.763 67.3929L83.7776 66.89L86.7439 66.89L86.7293 67.3929L89.6956 67.3929L89.7101 66.89L92.6764 66.89L92.6619 67.3929L95.6281 67.3929L95.6427 66.89L98.609 66.89L98.5944 67.3929L101.561 67.3929L101.575 66.89L104.542 66.89L104.527 67.3929L107.493 67.3929L107.508 66.89L110.474 66.89L110.46 67.3929L113.426 67.3929L113.44 66.89L116.407 66.89L116.392 67.3929L119.358 67.3929L119.373 66.89L122.339 66.89L122.325 67.3929L125.291 67.3929L125.305 66.89L128.272 66.89L128.257 67.393L131.223 67.393L131.238 66.89L134.204 66.89L134.19 67.393L137.156 67.393L137.171 66.89L140.137 66.89L140.122 67.393L141.605 67.393L142.117 67.393L142.117 66.8752L142.117 65.4159L141.62 65.4307L141.62 62.5121L142.117 62.4973L142.117 59.5787L141.62 59.5934L141.62 56.6748L142.117 56.66L142.117 53.7414L141.62 53.7562L141.62 50.8375L142.117 50.8228L142.117 47.9042L141.62 47.9189Z" fill="#D9D9D9" stroke="black" stroke-dasharray="3 3"/>
<path d="M17.351 52.3398C21.3752 52.3398 24.6374 48.7899 24.6374 44.4109C24.6374 40.0319 21.3752 36.482 17.351 36.482C13.3269 36.482 10.0646 40.0319 10.0646 44.4109C10.0646 48.7899 13.3269 52.3398 17.351 52.3398Z" stroke="black"/>
<path d="M17.5496 52.5993L18.0237 79.7634L7.5916 99.6383" stroke="black"/>
<path d="M18.2073 79.694L28.7302 97.7237" stroke="black"/>
<path d="M5.892 60.2024L28.9538 60.4468" stroke="black"/>
<path d="M3.0625 113H0.144886V103.545H3.19176C4.1089 103.545 4.8937 103.735 5.54616 104.113C6.19863 104.489 6.69875 105.029 7.04652 105.734C7.39429 106.435 7.56818 107.276 7.56818 108.254C7.56818 109.239 7.39276 110.087 7.0419 110.798C6.69105 111.506 6.18016 112.051 5.50923 112.432C4.83831 112.811 4.02273 113 3.0625 113ZM1.28977 111.984H2.98864C3.77036 111.984 4.41821 111.834 4.93217 111.532C5.44614 111.23 5.82931 110.801 6.08168 110.244C6.33404 109.687 6.46023 109.024 6.46023 108.254C6.46023 107.491 6.33558 106.834 6.08629 106.283C5.837 105.729 5.46461 105.304 4.96911 105.009C4.4736 104.71 3.85653 104.561 3.1179 104.561H1.28977V111.984ZM12.2216 113.148C11.5814 113.148 11.0198 112.995 10.5366 112.691C10.0565 112.386 9.68099 111.96 9.41016 111.412C9.1424 110.864 9.00852 110.224 9.00852 109.491C9.00852 108.753 9.1424 108.108 9.41016 107.557C9.68099 107.006 10.0565 106.578 10.5366 106.274C11.0198 105.969 11.5814 105.817 12.2216 105.817C12.8617 105.817 13.4219 105.969 13.902 106.274C14.3852 106.578 14.7607 107.006 15.0284 107.557C15.2992 108.108 15.4347 108.753 15.4347 109.491C15.4347 110.224 15.2992 110.864 15.0284 111.412C14.7607 111.96 14.3852 112.386 13.902 112.691C13.4219 112.995 12.8617 113.148 12.2216 113.148ZM12.2216 112.169C12.7079 112.169 13.108 112.044 13.4219 111.795C13.7358 111.546 13.9682 111.218 14.119 110.812C14.2698 110.406 14.3452 109.965 14.3452 109.491C14.3452 109.018 14.2698 108.576 14.119 108.167C13.9682 107.757 13.7358 107.426 13.4219 107.174C13.108 106.922 12.7079 106.795 12.2216 106.795C11.7353 106.795 11.3352 106.922 11.0213 107.174C10.7074 107.426 10.475 107.757 10.3242 108.167C10.1734 108.576 10.098 109.018 10.098 109.491C10.098 109.965 10.1734 110.406 10.3242 110.812C10.475 111.218 10.7074 111.546 11.0213 111.795C11.3352 112.044 11.7353 112.169 12.2216 112.169ZM19.9784 113.148C19.3137 113.148 18.7412 112.991 18.2611 112.677C17.781 112.363 17.4117 111.931 17.1531 111.38C16.8946 110.829 16.7654 110.199 16.7654 109.491C16.7654 108.771 16.8977 108.136 17.1624 107.585C17.4301 107.031 17.8025 106.598 18.2796 106.288C18.7597 105.974 19.3198 105.817 19.96 105.817C20.4585 105.817 20.9079 105.909 21.308 106.094C21.7081 106.278 22.0358 106.537 22.2913 106.869C22.5467 107.202 22.7052 107.589 22.7668 108.033H21.6773C21.5942 107.71 21.4095 107.423 21.1233 107.174C20.8402 106.922 20.4585 106.795 19.9784 106.795C19.5537 106.795 19.1813 106.906 18.8612 107.128C18.5442 107.346 18.2965 107.656 18.118 108.056C17.9426 108.453 17.8548 108.919 17.8548 109.455C17.8548 110.002 17.941 110.479 18.1134 110.886C18.2888 111.292 18.535 111.607 18.852 111.832C19.1721 112.057 19.5476 112.169 19.9784 112.169C20.2616 112.169 20.5186 112.12 20.7494 112.021C20.9802 111.923 21.1756 111.781 21.3357 111.597C21.4957 111.412 21.6096 111.19 21.6773 110.932H22.7668C22.7052 111.35 22.5529 111.727 22.3097 112.063C22.0697 112.395 21.7512 112.66 21.3541 112.857C20.9602 113.051 20.5016 113.148 19.9784 113.148ZM27.4433 105.909V106.832H23.7686V105.909H27.4433ZM24.8396 104.21H25.9291V110.969C25.9291 111.277 25.9737 111.507 26.0629 111.661C26.1553 111.812 26.2722 111.914 26.4138 111.966C26.5584 112.015 26.7108 112.04 26.8708 112.04C26.9909 112.04 27.0893 112.034 27.1663 112.021C27.2432 112.006 27.3048 111.994 27.3509 111.984L27.5725 112.963C27.4987 112.991 27.3956 113.018 27.2632 113.046C27.1309 113.077 26.9632 113.092 26.76 113.092C26.4523 113.092 26.1507 113.026 25.8552 112.894C25.5628 112.761 25.3197 112.56 25.1258 112.289C24.935 112.018 24.8396 111.677 24.8396 111.264V104.21ZM31.8866 113.148C31.2465 113.148 30.6848 112.995 30.2016 112.691C29.7215 112.386 29.346 111.96 29.0752 111.412C28.8074 110.864 28.6736 110.224 28.6736 109.491C28.6736 108.753 28.8074 108.108 29.0752 107.557C29.346 107.006 29.7215 106.578 30.2016 106.274C30.6848 105.969 31.2465 105.817 31.8866 105.817C32.5268 105.817 33.0869 105.969 33.567 106.274C34.0502 106.578 34.4257 107.006 34.6934 107.557C34.9643 108.108 35.0997 108.753 35.0997 109.491C35.0997 110.224 34.9643 110.864 34.6934 111.412C34.4257 111.96 34.0502 112.386 33.567 112.691C33.0869 112.995 32.5268 113.148 31.8866 113.148ZM31.8866 112.169C32.3729 112.169 32.773 112.044 33.0869 111.795C33.4008 111.546 33.6332 111.218 33.784 110.812C33.9348 110.406 34.0102 109.965 34.0102 109.491C34.0102 109.018 33.9348 108.576 33.784 108.167C33.6332 107.757 33.4008 107.426 33.0869 107.174C32.773 106.922 32.3729 106.795 31.8866 106.795C31.4004 106.795 31.0003 106.922 30.6863 107.174C30.3724 107.426 30.1401 107.757 29.9893 108.167C29.8385 108.576 29.7631 109.018 29.7631 109.491C29.7631 109.965 29.8385 110.406 29.9893 110.812C30.1401 111.218 30.3724 111.546 30.6863 111.795C31.0003 112.044 31.4004 112.169 31.8866 112.169ZM36.7628 113V105.909H37.8153V106.98H37.8892C38.0185 106.629 38.2524 106.345 38.5909 106.126C38.9295 105.908 39.3111 105.798 39.7358 105.798C39.8158 105.798 39.9158 105.8 40.0359 105.803C40.1559 105.806 40.2467 105.811 40.3082 105.817V106.925C40.2713 106.915 40.1867 106.902 40.0543 106.883C39.9251 106.862 39.7881 106.851 39.6435 106.851C39.2988 106.851 38.991 106.923 38.7202 107.068C38.4524 107.209 38.2401 107.406 38.0831 107.659C37.9292 107.908 37.8523 108.193 37.8523 108.513V113H36.7628Z" fill="black"/>
<path d="M266.922 43.992L261.106 47.5774L260.972 40.6353L266.922 43.992Z" fill="black"/>
</svg>
